%TF.GenerationSoftware,KiCad,Pcbnew,5.99.0-unknown-2a6c73b8df~142~ubuntu21.04.1*%
%TF.CreationDate,2021-10-24T13:29:39+00:00*%
%TF.ProjectId,wederian,77656465-7269-4616-9e2e-6b696361645f,rev?*%
%TF.SameCoordinates,Original*%
%TF.FileFunction,Legend,Top*%
%TF.FilePolarity,Positive*%
%FSLAX46Y46*%
G04 Gerber Fmt 4.6, Leading zero omitted, Abs format (unit mm)*
G04 Created by KiCad (PCBNEW 5.99.0-unknown-2a6c73b8df~142~ubuntu21.04.1) date 2021-10-24 13:29:39*
%MOMM*%
%LPD*%
G01*
G04 APERTURE LIST*
%ADD10C,0.120000*%
%ADD11C,0.100000*%
%ADD12C,0.125000*%
%ADD13C,0.150000*%
%ADD14C,0.010000*%
G04 APERTURE END LIST*
D10*
X188500000Y-92000000D02*
X185500000Y-92000000D01*
X185521089Y-96200000D02*
X188521089Y-96200000D01*
X135250000Y-117000000D02*
X190750000Y-117000000D01*
X185521089Y-92000000D02*
X185521089Y-96200000D01*
X188521089Y-96200000D02*
X188521089Y-92000000D01*
X135250000Y-85250000D02*
X190750000Y-85250000D01*
X166000000Y-117500000D02*
X166000000Y-123500000D01*
X166000000Y-123500000D02*
X160000000Y-123500000D01*
X160000000Y-123500000D02*
X160000000Y-117500000D01*
X160000000Y-117500000D02*
X166000000Y-117500000D01*
D11*
X186194898Y-92823690D02*
X186028231Y-92585595D01*
X185909184Y-92823690D02*
X185909184Y-92323690D01*
X186099660Y-92323690D01*
X186147279Y-92347500D01*
X186171089Y-92371309D01*
X186194898Y-92418928D01*
X186194898Y-92490357D01*
X186171089Y-92537976D01*
X186147279Y-92561785D01*
X186099660Y-92585595D01*
X185909184Y-92585595D01*
X186409184Y-92561785D02*
X186575850Y-92561785D01*
X186647279Y-92823690D02*
X186409184Y-92823690D01*
X186409184Y-92323690D01*
X186647279Y-92323690D01*
X186837755Y-92799880D02*
X186909184Y-92823690D01*
X187028231Y-92823690D01*
X187075850Y-92799880D01*
X187099660Y-92776071D01*
X187123469Y-92728452D01*
X187123469Y-92680833D01*
X187099660Y-92633214D01*
X187075850Y-92609404D01*
X187028231Y-92585595D01*
X186932993Y-92561785D01*
X186885374Y-92537976D01*
X186861565Y-92514166D01*
X186837755Y-92466547D01*
X186837755Y-92418928D01*
X186861565Y-92371309D01*
X186885374Y-92347500D01*
X186932993Y-92323690D01*
X187052041Y-92323690D01*
X187123469Y-92347500D01*
X187337755Y-92561785D02*
X187504422Y-92561785D01*
X187575850Y-92823690D02*
X187337755Y-92823690D01*
X187337755Y-92323690D01*
X187575850Y-92323690D01*
X187718708Y-92323690D02*
X188004422Y-92323690D01*
X187861565Y-92823690D02*
X187861565Y-92323690D01*
X185935374Y-95826190D02*
X185935374Y-95326190D01*
X186102041Y-95683333D01*
X186268708Y-95326190D01*
X186268708Y-95826190D01*
X186506803Y-95826190D02*
X186506803Y-95326190D01*
X186721089Y-95802380D02*
X186792517Y-95826190D01*
X186911565Y-95826190D01*
X186959184Y-95802380D01*
X186982993Y-95778571D01*
X187006803Y-95730952D01*
X187006803Y-95683333D01*
X186982993Y-95635714D01*
X186959184Y-95611904D01*
X186911565Y-95588095D01*
X186816327Y-95564285D01*
X186768708Y-95540476D01*
X186744898Y-95516666D01*
X186721089Y-95469047D01*
X186721089Y-95421428D01*
X186744898Y-95373809D01*
X186768708Y-95350000D01*
X186816327Y-95326190D01*
X186935374Y-95326190D01*
X187006803Y-95350000D01*
X187316327Y-95326190D02*
X187411565Y-95326190D01*
X187459184Y-95350000D01*
X187506803Y-95397619D01*
X187530612Y-95492857D01*
X187530612Y-95659523D01*
X187506803Y-95754761D01*
X187459184Y-95802380D01*
X187411565Y-95826190D01*
X187316327Y-95826190D01*
X187268708Y-95802380D01*
X187221089Y-95754761D01*
X187197279Y-95659523D01*
X187197279Y-95492857D01*
X187221089Y-95397619D01*
X187268708Y-95350000D01*
X187316327Y-95326190D01*
X185878231Y-93802380D02*
X185949660Y-93826190D01*
X186068708Y-93826190D01*
X186116327Y-93802380D01*
X186140136Y-93778571D01*
X186163946Y-93730952D01*
X186163946Y-93683333D01*
X186140136Y-93635714D01*
X186116327Y-93611904D01*
X186068708Y-93588095D01*
X185973469Y-93564285D01*
X185925850Y-93540476D01*
X185902041Y-93516666D01*
X185878231Y-93469047D01*
X185878231Y-93421428D01*
X185902041Y-93373809D01*
X185925850Y-93350000D01*
X185973469Y-93326190D01*
X186092517Y-93326190D01*
X186163946Y-93350000D01*
X186663946Y-93778571D02*
X186640136Y-93802380D01*
X186568708Y-93826190D01*
X186521089Y-93826190D01*
X186449660Y-93802380D01*
X186402041Y-93754761D01*
X186378231Y-93707142D01*
X186354422Y-93611904D01*
X186354422Y-93540476D01*
X186378231Y-93445238D01*
X186402041Y-93397619D01*
X186449660Y-93350000D01*
X186521089Y-93326190D01*
X186568708Y-93326190D01*
X186640136Y-93350000D01*
X186663946Y-93373809D01*
X186878231Y-93826190D02*
X186878231Y-93326190D01*
X187163946Y-93826190D02*
X186949660Y-93540476D01*
X187163946Y-93326190D02*
X186878231Y-93611904D01*
X185935374Y-94826190D02*
X185935374Y-94326190D01*
X186102041Y-94683333D01*
X186268708Y-94326190D01*
X186268708Y-94826190D01*
X186602041Y-94326190D02*
X186697279Y-94326190D01*
X186744898Y-94350000D01*
X186792517Y-94397619D01*
X186816327Y-94492857D01*
X186816327Y-94659523D01*
X186792517Y-94754761D01*
X186744898Y-94802380D01*
X186697279Y-94826190D01*
X186602041Y-94826190D01*
X186554422Y-94802380D01*
X186506803Y-94754761D01*
X186482993Y-94659523D01*
X186482993Y-94492857D01*
X186506803Y-94397619D01*
X186554422Y-94350000D01*
X186602041Y-94326190D01*
X187006803Y-94802380D02*
X187078231Y-94826190D01*
X187197279Y-94826190D01*
X187244898Y-94802380D01*
X187268708Y-94778571D01*
X187292517Y-94730952D01*
X187292517Y-94683333D01*
X187268708Y-94635714D01*
X187244898Y-94611904D01*
X187197279Y-94588095D01*
X187102041Y-94564285D01*
X187054422Y-94540476D01*
X187030612Y-94516666D01*
X187006803Y-94469047D01*
X187006803Y-94421428D01*
X187030612Y-94373809D01*
X187054422Y-94350000D01*
X187102041Y-94326190D01*
X187221089Y-94326190D01*
X187292517Y-94350000D01*
X187506803Y-94826190D02*
X187506803Y-94326190D01*
D12*
X185161565Y-106564285D02*
X184994898Y-106564285D01*
X184994898Y-106826190D02*
X184994898Y-106326190D01*
X185232993Y-106326190D01*
X185423469Y-106826190D02*
X185423469Y-106326190D01*
X185947279Y-106826190D02*
X185780612Y-106588095D01*
X185661565Y-106826190D02*
X185661565Y-106326190D01*
X185852041Y-106326190D01*
X185899660Y-106350000D01*
X185923469Y-106373809D01*
X185947279Y-106421428D01*
X185947279Y-106492857D01*
X185923469Y-106540476D01*
X185899660Y-106564285D01*
X185852041Y-106588095D01*
X185661565Y-106588095D01*
X186161565Y-106826190D02*
X186161565Y-106326190D01*
X186328231Y-106683333D01*
X186494898Y-106326190D01*
X186494898Y-106826190D01*
X186685374Y-106326190D02*
X186804422Y-106826190D01*
X186899660Y-106469047D01*
X186994898Y-106826190D01*
X187113946Y-106326190D01*
X187280612Y-106683333D02*
X187518708Y-106683333D01*
X187232993Y-106826190D02*
X187399660Y-106326190D01*
X187566327Y-106826190D01*
X188018708Y-106826190D02*
X187852041Y-106588095D01*
X187732993Y-106826190D02*
X187732993Y-106326190D01*
X187923469Y-106326190D01*
X187971089Y-106350000D01*
X187994898Y-106373809D01*
X188018708Y-106421428D01*
X188018708Y-106492857D01*
X187994898Y-106540476D01*
X187971089Y-106564285D01*
X187923469Y-106588095D01*
X187732993Y-106588095D01*
X188232993Y-106564285D02*
X188399660Y-106564285D01*
X188471089Y-106826190D02*
X188232993Y-106826190D01*
X188232993Y-106326190D01*
X188471089Y-106326190D01*
D13*
X142121309Y-119952380D02*
X142121309Y-120666666D01*
X142073690Y-120809523D01*
X141978452Y-120904761D01*
X141835595Y-120952380D01*
X141740357Y-120952380D01*
X143073690Y-120952380D02*
X142597500Y-120952380D01*
X142597500Y-119952380D01*
X143978452Y-120857142D02*
X143930833Y-120904761D01*
X143787976Y-120952380D01*
X143692738Y-120952380D01*
X143549880Y-120904761D01*
X143454642Y-120809523D01*
X143407023Y-120714285D01*
X143359404Y-120523809D01*
X143359404Y-120380952D01*
X143407023Y-120190476D01*
X143454642Y-120095238D01*
X143549880Y-120000000D01*
X143692738Y-119952380D01*
X143787976Y-119952380D01*
X143930833Y-120000000D01*
X143978452Y-120047619D01*
X144692738Y-119952380D02*
X144692738Y-120666666D01*
X144645119Y-120809523D01*
X144549880Y-120904761D01*
X144407023Y-120952380D01*
X144311785Y-120952380D01*
X145645119Y-120952380D02*
X145168928Y-120952380D01*
X145168928Y-119952380D01*
X146549880Y-120857142D02*
X146502261Y-120904761D01*
X146359404Y-120952380D01*
X146264166Y-120952380D01*
X146121309Y-120904761D01*
X146026071Y-120809523D01*
X145978452Y-120714285D01*
X145930833Y-120523809D01*
X145930833Y-120380952D01*
X145978452Y-120190476D01*
X146026071Y-120095238D01*
X146121309Y-120000000D01*
X146264166Y-119952380D01*
X146359404Y-119952380D01*
X146502261Y-120000000D01*
X146549880Y-120047619D01*
X147264166Y-119952380D02*
X147264166Y-120666666D01*
X147216547Y-120809523D01*
X147121309Y-120904761D01*
X146978452Y-120952380D01*
X146883214Y-120952380D01*
X148216547Y-120952380D02*
X147740357Y-120952380D01*
X147740357Y-119952380D01*
X149121309Y-120857142D02*
X149073690Y-120904761D01*
X148930833Y-120952380D01*
X148835595Y-120952380D01*
X148692738Y-120904761D01*
X148597500Y-120809523D01*
X148549880Y-120714285D01*
X148502261Y-120523809D01*
X148502261Y-120380952D01*
X148549880Y-120190476D01*
X148597500Y-120095238D01*
X148692738Y-120000000D01*
X148835595Y-119952380D01*
X148930833Y-119952380D01*
X149073690Y-120000000D01*
X149121309Y-120047619D01*
X149835595Y-119952380D02*
X149835595Y-120666666D01*
X149787976Y-120809523D01*
X149692738Y-120904761D01*
X149549880Y-120952380D01*
X149454642Y-120952380D01*
X150787976Y-120952380D02*
X150311785Y-120952380D01*
X150311785Y-119952380D01*
X151692738Y-120857142D02*
X151645119Y-120904761D01*
X151502261Y-120952380D01*
X151407023Y-120952380D01*
X151264166Y-120904761D01*
X151168928Y-120809523D01*
X151121309Y-120714285D01*
X151073690Y-120523809D01*
X151073690Y-120380952D01*
X151121309Y-120190476D01*
X151168928Y-120095238D01*
X151264166Y-120000000D01*
X151407023Y-119952380D01*
X151502261Y-119952380D01*
X151645119Y-120000000D01*
X151692738Y-120047619D01*
D12*
X166666666Y-119476190D02*
X166952380Y-119476190D01*
X166809523Y-119976190D02*
X166809523Y-119476190D01*
X167119047Y-119976190D02*
X167119047Y-119476190D01*
X167119047Y-119714285D02*
X167404761Y-119714285D01*
X167404761Y-119976190D02*
X167404761Y-119476190D01*
X167642857Y-119714285D02*
X167809523Y-119714285D01*
X167880952Y-119976190D02*
X167642857Y-119976190D01*
X167642857Y-119476190D01*
X167880952Y-119476190D01*
X168380952Y-119976190D02*
X168214285Y-119738095D01*
X168095238Y-119976190D02*
X168095238Y-119476190D01*
X168285714Y-119476190D01*
X168333333Y-119500000D01*
X168357142Y-119523809D01*
X168380952Y-119571428D01*
X168380952Y-119642857D01*
X168357142Y-119690476D01*
X168333333Y-119714285D01*
X168285714Y-119738095D01*
X168095238Y-119738095D01*
X168595238Y-119976190D02*
X168595238Y-119476190D01*
X168761904Y-119833333D01*
X168928571Y-119476190D01*
X168928571Y-119976190D01*
X169142857Y-119833333D02*
X169380952Y-119833333D01*
X169095238Y-119976190D02*
X169261904Y-119476190D01*
X169428571Y-119976190D01*
X169833333Y-119976190D02*
X169595238Y-119976190D01*
X169595238Y-119476190D01*
X158511904Y-91976190D02*
X158821428Y-91976190D01*
X158654761Y-92166666D01*
X158726190Y-92166666D01*
X158773809Y-92190476D01*
X158797619Y-92214285D01*
X158821428Y-92261904D01*
X158821428Y-92380952D01*
X158797619Y-92428571D01*
X158773809Y-92452380D01*
X158726190Y-92476190D01*
X158583333Y-92476190D01*
X158535714Y-92452380D01*
X158511904Y-92428571D01*
X159035714Y-92428571D02*
X159059523Y-92452380D01*
X159035714Y-92476190D01*
X159011904Y-92452380D01*
X159035714Y-92428571D01*
X159035714Y-92476190D01*
X159226190Y-91976190D02*
X159535714Y-91976190D01*
X159369047Y-92166666D01*
X159440476Y-92166666D01*
X159488095Y-92190476D01*
X159511904Y-92214285D01*
X159535714Y-92261904D01*
X159535714Y-92380952D01*
X159511904Y-92428571D01*
X159488095Y-92452380D01*
X159440476Y-92476190D01*
X159297619Y-92476190D01*
X159250000Y-92452380D01*
X159226190Y-92428571D01*
X159678571Y-91976190D02*
X159845238Y-92476190D01*
X160011904Y-91976190D01*
D13*
X172640595Y-81027380D02*
X172878690Y-82027380D01*
X173069166Y-81313095D01*
X173259642Y-82027380D01*
X173497738Y-81027380D01*
X173878690Y-81503571D02*
X174212023Y-81503571D01*
X174354880Y-82027380D02*
X173878690Y-82027380D01*
X173878690Y-81027380D01*
X174354880Y-81027380D01*
X174783452Y-82027380D02*
X174783452Y-81027380D01*
X175021547Y-81027380D01*
X175164404Y-81075000D01*
X175259642Y-81170238D01*
X175307261Y-81265476D01*
X175354880Y-81455952D01*
X175354880Y-81598809D01*
X175307261Y-81789285D01*
X175259642Y-81884523D01*
X175164404Y-81979761D01*
X175021547Y-82027380D01*
X174783452Y-82027380D01*
X175783452Y-81503571D02*
X176116785Y-81503571D01*
X176259642Y-82027380D02*
X175783452Y-82027380D01*
X175783452Y-81027380D01*
X176259642Y-81027380D01*
X177259642Y-82027380D02*
X176926309Y-81551190D01*
X176688214Y-82027380D02*
X176688214Y-81027380D01*
X177069166Y-81027380D01*
X177164404Y-81075000D01*
X177212023Y-81122619D01*
X177259642Y-81217857D01*
X177259642Y-81360714D01*
X177212023Y-81455952D01*
X177164404Y-81503571D01*
X177069166Y-81551190D01*
X176688214Y-81551190D01*
X177688214Y-82027380D02*
X177688214Y-81027380D01*
X178116785Y-81741666D02*
X178592976Y-81741666D01*
X178021547Y-82027380D02*
X178354880Y-81027380D01*
X178688214Y-82027380D01*
X179021547Y-82027380D02*
X179021547Y-81027380D01*
X179592976Y-82027380D01*
X179592976Y-81027380D01*
X181021547Y-81027380D02*
X181116785Y-81027380D01*
X181212023Y-81075000D01*
X181259642Y-81122619D01*
X181307261Y-81217857D01*
X181354880Y-81408333D01*
X181354880Y-81646428D01*
X181307261Y-81836904D01*
X181259642Y-81932142D01*
X181212023Y-81979761D01*
X181116785Y-82027380D01*
X181021547Y-82027380D01*
X180926309Y-81979761D01*
X180878690Y-81932142D01*
X180831071Y-81836904D01*
X180783452Y-81646428D01*
X180783452Y-81408333D01*
X180831071Y-81217857D01*
X180878690Y-81122619D01*
X180926309Y-81075000D01*
X181021547Y-81027380D01*
X181783452Y-81932142D02*
X181831071Y-81979761D01*
X181783452Y-82027380D01*
X181735833Y-81979761D01*
X181783452Y-81932142D01*
X181783452Y-82027380D01*
X182212023Y-81122619D02*
X182259642Y-81075000D01*
X182354880Y-81027380D01*
X182592976Y-81027380D01*
X182688214Y-81075000D01*
X182735833Y-81122619D01*
X182783452Y-81217857D01*
X182783452Y-81313095D01*
X182735833Y-81455952D01*
X182164404Y-82027380D01*
X182783452Y-82027380D01*
X183212023Y-81932142D02*
X183259642Y-81979761D01*
X183212023Y-82027380D01*
X183164404Y-81979761D01*
X183212023Y-81932142D01*
X183212023Y-82027380D01*
X183878690Y-81027380D02*
X183973928Y-81027380D01*
X184069166Y-81075000D01*
X184116785Y-81122619D01*
X184164404Y-81217857D01*
X184212023Y-81408333D01*
X184212023Y-81646428D01*
X184164404Y-81836904D01*
X184116785Y-81932142D01*
X184069166Y-81979761D01*
X183973928Y-82027380D01*
X183878690Y-82027380D01*
X183783452Y-81979761D01*
X183735833Y-81932142D01*
X183688214Y-81836904D01*
X183640595Y-81646428D01*
X183640595Y-81408333D01*
X183688214Y-81217857D01*
X183735833Y-81122619D01*
X183783452Y-81075000D01*
X183878690Y-81027380D01*
X146478571Y-81952380D02*
X146478571Y-80952380D01*
X147145238Y-80952380D02*
X147335714Y-80952380D01*
X147430952Y-81000000D01*
X147526190Y-81095238D01*
X147573809Y-81285714D01*
X147573809Y-81619047D01*
X147526190Y-81809523D01*
X147430952Y-81904761D01*
X147335714Y-81952380D01*
X147145238Y-81952380D01*
X147050000Y-81904761D01*
X146954761Y-81809523D01*
X146907142Y-81619047D01*
X146907142Y-81285714D01*
X146954761Y-81095238D01*
X147050000Y-81000000D01*
X147145238Y-80952380D01*
X147907142Y-80952380D02*
X148573809Y-80952380D01*
X148145238Y-81952380D01*
X148954761Y-81952380D02*
X148954761Y-80952380D01*
X149288095Y-81666666D01*
X149621428Y-80952380D01*
X149621428Y-81952380D01*
D12*
X136964285Y-93654761D02*
X136964285Y-93821428D01*
X137226190Y-93821428D02*
X136726190Y-93821428D01*
X136726190Y-93583333D01*
X136726190Y-93392857D02*
X137130952Y-93392857D01*
X137178571Y-93369047D01*
X137202380Y-93345238D01*
X137226190Y-93297619D01*
X137226190Y-93202380D01*
X137202380Y-93154761D01*
X137178571Y-93130952D01*
X137130952Y-93107142D01*
X136726190Y-93107142D01*
X137202380Y-92892857D02*
X137226190Y-92821428D01*
X137226190Y-92702380D01*
X137202380Y-92654761D01*
X137178571Y-92630952D01*
X137130952Y-92607142D01*
X137083333Y-92607142D01*
X137035714Y-92630952D01*
X137011904Y-92654761D01*
X136988095Y-92702380D01*
X136964285Y-92797619D01*
X136940476Y-92845238D01*
X136916666Y-92869047D01*
X136869047Y-92892857D01*
X136821428Y-92892857D01*
X136773809Y-92869047D01*
X136750000Y-92845238D01*
X136726190Y-92797619D01*
X136726190Y-92678571D01*
X136750000Y-92607142D01*
X136964285Y-92392857D02*
X136964285Y-92226190D01*
X137226190Y-92154761D02*
X137226190Y-92392857D01*
X136726190Y-92392857D01*
X136726190Y-92154761D01*
D13*
%TO.C,U2*%
X152038095Y-93602380D02*
X152038095Y-94411904D01*
X152085714Y-94507142D01*
X152133333Y-94554761D01*
X152228571Y-94602380D01*
X152419047Y-94602380D01*
X152514285Y-94554761D01*
X152561904Y-94507142D01*
X152609523Y-94411904D01*
X152609523Y-93602380D01*
X153038095Y-93697619D02*
X153085714Y-93650000D01*
X153180952Y-93602380D01*
X153419047Y-93602380D01*
X153514285Y-93650000D01*
X153561904Y-93697619D01*
X153609523Y-93792857D01*
X153609523Y-93888095D01*
X153561904Y-94030952D01*
X152990476Y-94602380D01*
X153609523Y-94602380D01*
%TO.C,J1*%
X139166666Y-100702380D02*
X139166666Y-101416666D01*
X139119047Y-101559523D01*
X139023809Y-101654761D01*
X138880952Y-101702380D01*
X138785714Y-101702380D01*
X140166666Y-101702380D02*
X139595238Y-101702380D01*
X139880952Y-101702380D02*
X139880952Y-100702380D01*
X139785714Y-100845238D01*
X139690476Y-100940476D01*
X139595238Y-100988095D01*
%TO.C,R2*%
X152233333Y-98952380D02*
X151900000Y-98476190D01*
X151661904Y-98952380D02*
X151661904Y-97952380D01*
X152042857Y-97952380D01*
X152138095Y-98000000D01*
X152185714Y-98047619D01*
X152233333Y-98142857D01*
X152233333Y-98285714D01*
X152185714Y-98380952D01*
X152138095Y-98428571D01*
X152042857Y-98476190D01*
X151661904Y-98476190D01*
X152614285Y-98047619D02*
X152661904Y-98000000D01*
X152757142Y-97952380D01*
X152995238Y-97952380D01*
X153090476Y-98000000D01*
X153138095Y-98047619D01*
X153185714Y-98142857D01*
X153185714Y-98238095D01*
X153138095Y-98380952D01*
X152566666Y-98952380D01*
X153185714Y-98952380D01*
%TO.C,C1*%
X164083333Y-105557142D02*
X164035714Y-105604761D01*
X163892857Y-105652380D01*
X163797619Y-105652380D01*
X163654761Y-105604761D01*
X163559523Y-105509523D01*
X163511904Y-105414285D01*
X163464285Y-105223809D01*
X163464285Y-105080952D01*
X163511904Y-104890476D01*
X163559523Y-104795238D01*
X163654761Y-104700000D01*
X163797619Y-104652380D01*
X163892857Y-104652380D01*
X164035714Y-104700000D01*
X164083333Y-104747619D01*
X165035714Y-105652380D02*
X164464285Y-105652380D01*
X164750000Y-105652380D02*
X164750000Y-104652380D01*
X164654761Y-104795238D01*
X164559523Y-104890476D01*
X164464285Y-104938095D01*
%TO.C,C7*%
X159383333Y-94357142D02*
X159335714Y-94404761D01*
X159192857Y-94452380D01*
X159097619Y-94452380D01*
X158954761Y-94404761D01*
X158859523Y-94309523D01*
X158811904Y-94214285D01*
X158764285Y-94023809D01*
X158764285Y-93880952D01*
X158811904Y-93690476D01*
X158859523Y-93595238D01*
X158954761Y-93500000D01*
X159097619Y-93452380D01*
X159192857Y-93452380D01*
X159335714Y-93500000D01*
X159383333Y-93547619D01*
X159716666Y-93452380D02*
X160383333Y-93452380D01*
X159954761Y-94452380D01*
%TO.C,Y1*%
X162523809Y-109776190D02*
X162523809Y-110252380D01*
X162190476Y-109252380D02*
X162523809Y-109776190D01*
X162857142Y-109252380D01*
X163714285Y-110252380D02*
X163142857Y-110252380D01*
X163428571Y-110252380D02*
X163428571Y-109252380D01*
X163333333Y-109395238D01*
X163238095Y-109490476D01*
X163142857Y-109538095D01*
%TO.C,C6*%
X171083333Y-93757142D02*
X171035714Y-93804761D01*
X170892857Y-93852380D01*
X170797619Y-93852380D01*
X170654761Y-93804761D01*
X170559523Y-93709523D01*
X170511904Y-93614285D01*
X170464285Y-93423809D01*
X170464285Y-93280952D01*
X170511904Y-93090476D01*
X170559523Y-92995238D01*
X170654761Y-92900000D01*
X170797619Y-92852380D01*
X170892857Y-92852380D01*
X171035714Y-92900000D01*
X171083333Y-92947619D01*
X171940476Y-92852380D02*
X171750000Y-92852380D01*
X171654761Y-92900000D01*
X171607142Y-92947619D01*
X171511904Y-93090476D01*
X171464285Y-93280952D01*
X171464285Y-93661904D01*
X171511904Y-93757142D01*
X171559523Y-93804761D01*
X171654761Y-93852380D01*
X171845238Y-93852380D01*
X171940476Y-93804761D01*
X171988095Y-93757142D01*
X172035714Y-93661904D01*
X172035714Y-93423809D01*
X171988095Y-93328571D01*
X171940476Y-93280952D01*
X171845238Y-93233333D01*
X171654761Y-93233333D01*
X171559523Y-93280952D01*
X171511904Y-93328571D01*
X171464285Y-93423809D01*
%TO.C,U1*%
X173988095Y-94202380D02*
X173988095Y-95011904D01*
X174035714Y-95107142D01*
X174083333Y-95154761D01*
X174178571Y-95202380D01*
X174369047Y-95202380D01*
X174464285Y-95154761D01*
X174511904Y-95107142D01*
X174559523Y-95011904D01*
X174559523Y-94202380D01*
X175559523Y-95202380D02*
X174988095Y-95202380D01*
X175273809Y-95202380D02*
X175273809Y-94202380D01*
X175178571Y-94345238D01*
X175083333Y-94440476D01*
X174988095Y-94488095D01*
%TO.C,C9*%
X147833333Y-89857142D02*
X147785714Y-89904761D01*
X147642857Y-89952380D01*
X147547619Y-89952380D01*
X147404761Y-89904761D01*
X147309523Y-89809523D01*
X147261904Y-89714285D01*
X147214285Y-89523809D01*
X147214285Y-89380952D01*
X147261904Y-89190476D01*
X147309523Y-89095238D01*
X147404761Y-89000000D01*
X147547619Y-88952380D01*
X147642857Y-88952380D01*
X147785714Y-89000000D01*
X147833333Y-89047619D01*
X148309523Y-89952380D02*
X148500000Y-89952380D01*
X148595238Y-89904761D01*
X148642857Y-89857142D01*
X148738095Y-89714285D01*
X148785714Y-89523809D01*
X148785714Y-89142857D01*
X148738095Y-89047619D01*
X148690476Y-89000000D01*
X148595238Y-88952380D01*
X148404761Y-88952380D01*
X148309523Y-89000000D01*
X148261904Y-89047619D01*
X148214285Y-89142857D01*
X148214285Y-89380952D01*
X148261904Y-89476190D01*
X148309523Y-89523809D01*
X148404761Y-89571428D01*
X148595238Y-89571428D01*
X148690476Y-89523809D01*
X148738095Y-89476190D01*
X148785714Y-89380952D01*
%TO.C,C5*%
X145583333Y-94607142D02*
X145535714Y-94654761D01*
X145392857Y-94702380D01*
X145297619Y-94702380D01*
X145154761Y-94654761D01*
X145059523Y-94559523D01*
X145011904Y-94464285D01*
X144964285Y-94273809D01*
X144964285Y-94130952D01*
X145011904Y-93940476D01*
X145059523Y-93845238D01*
X145154761Y-93750000D01*
X145297619Y-93702380D01*
X145392857Y-93702380D01*
X145535714Y-93750000D01*
X145583333Y-93797619D01*
X146488095Y-93702380D02*
X146011904Y-93702380D01*
X145964285Y-94178571D01*
X146011904Y-94130952D01*
X146107142Y-94083333D01*
X146345238Y-94083333D01*
X146440476Y-94130952D01*
X146488095Y-94178571D01*
X146535714Y-94273809D01*
X146535714Y-94511904D01*
X146488095Y-94607142D01*
X146440476Y-94654761D01*
X146345238Y-94702380D01*
X146107142Y-94702380D01*
X146011904Y-94654761D01*
X145964285Y-94607142D01*
%TO.C,C4*%
X165533333Y-100557142D02*
X165485714Y-100604761D01*
X165342857Y-100652380D01*
X165247619Y-100652380D01*
X165104761Y-100604761D01*
X165009523Y-100509523D01*
X164961904Y-100414285D01*
X164914285Y-100223809D01*
X164914285Y-100080952D01*
X164961904Y-99890476D01*
X165009523Y-99795238D01*
X165104761Y-99700000D01*
X165247619Y-99652380D01*
X165342857Y-99652380D01*
X165485714Y-99700000D01*
X165533333Y-99747619D01*
X166390476Y-99985714D02*
X166390476Y-100652380D01*
X166152380Y-99604761D02*
X165914285Y-100319047D01*
X166533333Y-100319047D01*
%TO.C,R1*%
X152233333Y-103952380D02*
X151900000Y-103476190D01*
X151661904Y-103952380D02*
X151661904Y-102952380D01*
X152042857Y-102952380D01*
X152138095Y-103000000D01*
X152185714Y-103047619D01*
X152233333Y-103142857D01*
X152233333Y-103285714D01*
X152185714Y-103380952D01*
X152138095Y-103428571D01*
X152042857Y-103476190D01*
X151661904Y-103476190D01*
X153185714Y-103952380D02*
X152614285Y-103952380D01*
X152900000Y-103952380D02*
X152900000Y-102952380D01*
X152804761Y-103095238D01*
X152709523Y-103190476D01*
X152614285Y-103238095D01*
%TO.C,R5*%
X140908333Y-110202380D02*
X140575000Y-109726190D01*
X140336904Y-110202380D02*
X140336904Y-109202380D01*
X140717857Y-109202380D01*
X140813095Y-109250000D01*
X140860714Y-109297619D01*
X140908333Y-109392857D01*
X140908333Y-109535714D01*
X140860714Y-109630952D01*
X140813095Y-109678571D01*
X140717857Y-109726190D01*
X140336904Y-109726190D01*
X141813095Y-109202380D02*
X141336904Y-109202380D01*
X141289285Y-109678571D01*
X141336904Y-109630952D01*
X141432142Y-109583333D01*
X141670238Y-109583333D01*
X141765476Y-109630952D01*
X141813095Y-109678571D01*
X141860714Y-109773809D01*
X141860714Y-110011904D01*
X141813095Y-110107142D01*
X141765476Y-110154761D01*
X141670238Y-110202380D01*
X141432142Y-110202380D01*
X141336904Y-110154761D01*
X141289285Y-110107142D01*
%TO.C,R6*%
X140908333Y-108202380D02*
X140575000Y-107726190D01*
X140336904Y-108202380D02*
X140336904Y-107202380D01*
X140717857Y-107202380D01*
X140813095Y-107250000D01*
X140860714Y-107297619D01*
X140908333Y-107392857D01*
X140908333Y-107535714D01*
X140860714Y-107630952D01*
X140813095Y-107678571D01*
X140717857Y-107726190D01*
X140336904Y-107726190D01*
X141765476Y-107202380D02*
X141575000Y-107202380D01*
X141479761Y-107250000D01*
X141432142Y-107297619D01*
X141336904Y-107440476D01*
X141289285Y-107630952D01*
X141289285Y-108011904D01*
X141336904Y-108107142D01*
X141384523Y-108154761D01*
X141479761Y-108202380D01*
X141670238Y-108202380D01*
X141765476Y-108154761D01*
X141813095Y-108107142D01*
X141860714Y-108011904D01*
X141860714Y-107773809D01*
X141813095Y-107678571D01*
X141765476Y-107630952D01*
X141670238Y-107583333D01*
X141479761Y-107583333D01*
X141384523Y-107630952D01*
X141336904Y-107678571D01*
X141289285Y-107773809D01*
%TO.C,R3*%
X173583333Y-114452380D02*
X173250000Y-113976190D01*
X173011904Y-114452380D02*
X173011904Y-113452380D01*
X173392857Y-113452380D01*
X173488095Y-113500000D01*
X173535714Y-113547619D01*
X173583333Y-113642857D01*
X173583333Y-113785714D01*
X173535714Y-113880952D01*
X173488095Y-113928571D01*
X173392857Y-113976190D01*
X173011904Y-113976190D01*
X173916666Y-113452380D02*
X174535714Y-113452380D01*
X174202380Y-113833333D01*
X174345238Y-113833333D01*
X174440476Y-113880952D01*
X174488095Y-113928571D01*
X174535714Y-114023809D01*
X174535714Y-114261904D01*
X174488095Y-114357142D01*
X174440476Y-114404761D01*
X174345238Y-114452380D01*
X174059523Y-114452380D01*
X173964285Y-114404761D01*
X173916666Y-114357142D01*
%TO.C,L1*%
X156583333Y-92452380D02*
X156107142Y-92452380D01*
X156107142Y-91452380D01*
X157440476Y-92452380D02*
X156869047Y-92452380D01*
X157154761Y-92452380D02*
X157154761Y-91452380D01*
X157059523Y-91595238D01*
X156964285Y-91690476D01*
X156869047Y-91738095D01*
%TO.C,J2*%
X182087755Y-104252380D02*
X182087755Y-104966666D01*
X182040136Y-105109523D01*
X181944898Y-105204761D01*
X181802041Y-105252380D01*
X181706803Y-105252380D01*
X182516327Y-104347619D02*
X182563946Y-104300000D01*
X182659184Y-104252380D01*
X182897279Y-104252380D01*
X182992517Y-104300000D01*
X183040136Y-104347619D01*
X183087755Y-104442857D01*
X183087755Y-104538095D01*
X183040136Y-104680952D01*
X182468708Y-105252380D01*
X183087755Y-105252380D01*
%TO.C,C10*%
X141357142Y-89857142D02*
X141309523Y-89904761D01*
X141166666Y-89952380D01*
X141071428Y-89952380D01*
X140928571Y-89904761D01*
X140833333Y-89809523D01*
X140785714Y-89714285D01*
X140738095Y-89523809D01*
X140738095Y-89380952D01*
X140785714Y-89190476D01*
X140833333Y-89095238D01*
X140928571Y-89000000D01*
X141071428Y-88952380D01*
X141166666Y-88952380D01*
X141309523Y-89000000D01*
X141357142Y-89047619D01*
X142309523Y-89952380D02*
X141738095Y-89952380D01*
X142023809Y-89952380D02*
X142023809Y-88952380D01*
X141928571Y-89095238D01*
X141833333Y-89190476D01*
X141738095Y-89238095D01*
X142928571Y-88952380D02*
X143023809Y-88952380D01*
X143119047Y-89000000D01*
X143166666Y-89047619D01*
X143214285Y-89142857D01*
X143261904Y-89333333D01*
X143261904Y-89571428D01*
X143214285Y-89761904D01*
X143166666Y-89857142D01*
X143119047Y-89904761D01*
X143023809Y-89952380D01*
X142928571Y-89952380D01*
X142833333Y-89904761D01*
X142785714Y-89857142D01*
X142738095Y-89761904D01*
X142690476Y-89571428D01*
X142690476Y-89333333D01*
X142738095Y-89142857D01*
X142785714Y-89047619D01*
X142833333Y-89000000D01*
X142928571Y-88952380D01*
%TO.C,C3*%
X154833333Y-111207142D02*
X154785714Y-111254761D01*
X154642857Y-111302380D01*
X154547619Y-111302380D01*
X154404761Y-111254761D01*
X154309523Y-111159523D01*
X154261904Y-111064285D01*
X154214285Y-110873809D01*
X154214285Y-110730952D01*
X154261904Y-110540476D01*
X154309523Y-110445238D01*
X154404761Y-110350000D01*
X154547619Y-110302380D01*
X154642857Y-110302380D01*
X154785714Y-110350000D01*
X154833333Y-110397619D01*
X155166666Y-110302380D02*
X155785714Y-110302380D01*
X155452380Y-110683333D01*
X155595238Y-110683333D01*
X155690476Y-110730952D01*
X155738095Y-110778571D01*
X155785714Y-110873809D01*
X155785714Y-111111904D01*
X155738095Y-111207142D01*
X155690476Y-111254761D01*
X155595238Y-111302380D01*
X155309523Y-111302380D01*
X155214285Y-111254761D01*
X155166666Y-111207142D01*
%TO.C,C2*%
X170758333Y-111207142D02*
X170710714Y-111254761D01*
X170567857Y-111302380D01*
X170472619Y-111302380D01*
X170329761Y-111254761D01*
X170234523Y-111159523D01*
X170186904Y-111064285D01*
X170139285Y-110873809D01*
X170139285Y-110730952D01*
X170186904Y-110540476D01*
X170234523Y-110445238D01*
X170329761Y-110350000D01*
X170472619Y-110302380D01*
X170567857Y-110302380D01*
X170710714Y-110350000D01*
X170758333Y-110397619D01*
X171139285Y-110397619D02*
X171186904Y-110350000D01*
X171282142Y-110302380D01*
X171520238Y-110302380D01*
X171615476Y-110350000D01*
X171663095Y-110397619D01*
X171710714Y-110492857D01*
X171710714Y-110588095D01*
X171663095Y-110730952D01*
X171091666Y-111302380D01*
X171710714Y-111302380D01*
%TO.C,C8*%
X156583333Y-120107142D02*
X156535714Y-120154761D01*
X156392857Y-120202380D01*
X156297619Y-120202380D01*
X156154761Y-120154761D01*
X156059523Y-120059523D01*
X156011904Y-119964285D01*
X155964285Y-119773809D01*
X155964285Y-119630952D01*
X156011904Y-119440476D01*
X156059523Y-119345238D01*
X156154761Y-119250000D01*
X156297619Y-119202380D01*
X156392857Y-119202380D01*
X156535714Y-119250000D01*
X156583333Y-119297619D01*
X157154761Y-119630952D02*
X157059523Y-119583333D01*
X157011904Y-119535714D01*
X156964285Y-119440476D01*
X156964285Y-119392857D01*
X157011904Y-119297619D01*
X157059523Y-119250000D01*
X157154761Y-119202380D01*
X157345238Y-119202380D01*
X157440476Y-119250000D01*
X157488095Y-119297619D01*
X157535714Y-119392857D01*
X157535714Y-119440476D01*
X157488095Y-119535714D01*
X157440476Y-119583333D01*
X157345238Y-119630952D01*
X157154761Y-119630952D01*
X157059523Y-119678571D01*
X157011904Y-119726190D01*
X156964285Y-119821428D01*
X156964285Y-120011904D01*
X157011904Y-120107142D01*
X157059523Y-120154761D01*
X157154761Y-120202380D01*
X157345238Y-120202380D01*
X157440476Y-120154761D01*
X157488095Y-120107142D01*
X157535714Y-120011904D01*
X157535714Y-119821428D01*
X157488095Y-119726190D01*
X157440476Y-119678571D01*
X157345238Y-119630952D01*
%TO.C,U3*%
X166738095Y-120952380D02*
X166738095Y-121761904D01*
X166785714Y-121857142D01*
X166833333Y-121904761D01*
X166928571Y-121952380D01*
X167119047Y-121952380D01*
X167214285Y-121904761D01*
X167261904Y-121857142D01*
X167309523Y-121761904D01*
X167309523Y-120952380D01*
X167690476Y-120952380D02*
X168309523Y-120952380D01*
X167976190Y-121333333D01*
X168119047Y-121333333D01*
X168214285Y-121380952D01*
X168261904Y-121428571D01*
X168309523Y-121523809D01*
X168309523Y-121761904D01*
X168261904Y-121857142D01*
X168214285Y-121904761D01*
X168119047Y-121952380D01*
X167833333Y-121952380D01*
X167738095Y-121904761D01*
X167690476Y-121857142D01*
%TO.C,R4*%
X176833333Y-114452380D02*
X176500000Y-113976190D01*
X176261904Y-114452380D02*
X176261904Y-113452380D01*
X176642857Y-113452380D01*
X176738095Y-113500000D01*
X176785714Y-113547619D01*
X176833333Y-113642857D01*
X176833333Y-113785714D01*
X176785714Y-113880952D01*
X176738095Y-113928571D01*
X176642857Y-113976190D01*
X176261904Y-113976190D01*
X177690476Y-113785714D02*
X177690476Y-114452380D01*
X177452380Y-113404761D02*
X177214285Y-114119047D01*
X177833333Y-114119047D01*
%TO.C,RV2*%
X148154761Y-96952380D02*
X147821428Y-96476190D01*
X147583333Y-96952380D02*
X147583333Y-95952380D01*
X147964285Y-95952380D01*
X148059523Y-96000000D01*
X148107142Y-96047619D01*
X148154761Y-96142857D01*
X148154761Y-96285714D01*
X148107142Y-96380952D01*
X148059523Y-96428571D01*
X147964285Y-96476190D01*
X147583333Y-96476190D01*
X148440476Y-95952380D02*
X148773809Y-96952380D01*
X149107142Y-95952380D01*
X149392857Y-96047619D02*
X149440476Y-96000000D01*
X149535714Y-95952380D01*
X149773809Y-95952380D01*
X149869047Y-96000000D01*
X149916666Y-96047619D01*
X149964285Y-96142857D01*
X149964285Y-96238095D01*
X149916666Y-96380952D01*
X149345238Y-96952380D01*
X149964285Y-96952380D01*
%TO.C,F1*%
X140416666Y-92928571D02*
X140083333Y-92928571D01*
X140083333Y-93452380D02*
X140083333Y-92452380D01*
X140559523Y-92452380D01*
X141464285Y-93452380D02*
X140892857Y-93452380D01*
X141178571Y-93452380D02*
X141178571Y-92452380D01*
X141083333Y-92595238D01*
X140988095Y-92690476D01*
X140892857Y-92738095D01*
%TO.C,RV1*%
X148154761Y-106277380D02*
X147821428Y-105801190D01*
X147583333Y-106277380D02*
X147583333Y-105277380D01*
X147964285Y-105277380D01*
X148059523Y-105325000D01*
X148107142Y-105372619D01*
X148154761Y-105467857D01*
X148154761Y-105610714D01*
X148107142Y-105705952D01*
X148059523Y-105753571D01*
X147964285Y-105801190D01*
X147583333Y-105801190D01*
X148440476Y-105277380D02*
X148773809Y-106277380D01*
X149107142Y-105277380D01*
X149964285Y-106277380D02*
X149392857Y-106277380D01*
X149678571Y-106277380D02*
X149678571Y-105277380D01*
X149583333Y-105420238D01*
X149488095Y-105515476D01*
X149392857Y-105563095D01*
%TO.C,R9*%
X165833333Y-109952380D02*
X165500000Y-109476190D01*
X165261904Y-109952380D02*
X165261904Y-108952380D01*
X165642857Y-108952380D01*
X165738095Y-109000000D01*
X165785714Y-109047619D01*
X165833333Y-109142857D01*
X165833333Y-109285714D01*
X165785714Y-109380952D01*
X165738095Y-109428571D01*
X165642857Y-109476190D01*
X165261904Y-109476190D01*
X166309523Y-109952380D02*
X166500000Y-109952380D01*
X166595238Y-109904761D01*
X166642857Y-109857142D01*
X166738095Y-109714285D01*
X166785714Y-109523809D01*
X166785714Y-109142857D01*
X166738095Y-109047619D01*
X166690476Y-109000000D01*
X166595238Y-108952380D01*
X166404761Y-108952380D01*
X166309523Y-109000000D01*
X166261904Y-109047619D01*
X166214285Y-109142857D01*
X166214285Y-109380952D01*
X166261904Y-109476190D01*
X166309523Y-109523809D01*
X166404761Y-109571428D01*
X166595238Y-109571428D01*
X166690476Y-109523809D01*
X166738095Y-109476190D01*
X166785714Y-109380952D01*
%TO.C,R7*%
X183833333Y-112952380D02*
X183500000Y-112476190D01*
X183261904Y-112952380D02*
X183261904Y-111952380D01*
X183642857Y-111952380D01*
X183738095Y-112000000D01*
X183785714Y-112047619D01*
X183833333Y-112142857D01*
X183833333Y-112285714D01*
X183785714Y-112380952D01*
X183738095Y-112428571D01*
X183642857Y-112476190D01*
X183261904Y-112476190D01*
X184166666Y-111952380D02*
X184833333Y-111952380D01*
X184404761Y-112952380D01*
%TO.C,R8*%
X142083333Y-112952380D02*
X141750000Y-112476190D01*
X141511904Y-112952380D02*
X141511904Y-111952380D01*
X141892857Y-111952380D01*
X141988095Y-112000000D01*
X142035714Y-112047619D01*
X142083333Y-112142857D01*
X142083333Y-112285714D01*
X142035714Y-112380952D01*
X141988095Y-112428571D01*
X141892857Y-112476190D01*
X141511904Y-112476190D01*
X142654761Y-112380952D02*
X142559523Y-112333333D01*
X142511904Y-112285714D01*
X142464285Y-112190476D01*
X142464285Y-112142857D01*
X142511904Y-112047619D01*
X142559523Y-112000000D01*
X142654761Y-111952380D01*
X142845238Y-111952380D01*
X142940476Y-112000000D01*
X142988095Y-112047619D01*
X143035714Y-112142857D01*
X143035714Y-112190476D01*
X142988095Y-112285714D01*
X142940476Y-112333333D01*
X142845238Y-112380952D01*
X142654761Y-112380952D01*
X142559523Y-112428571D01*
X142511904Y-112476190D01*
X142464285Y-112571428D01*
X142464285Y-112761904D01*
X142511904Y-112857142D01*
X142559523Y-112904761D01*
X142654761Y-112952380D01*
X142845238Y-112952380D01*
X142940476Y-112904761D01*
X142988095Y-112857142D01*
X143035714Y-112761904D01*
X143035714Y-112571428D01*
X142988095Y-112476190D01*
X142940476Y-112428571D01*
X142845238Y-112380952D01*
D10*
%TO.C,U2*%
X148850000Y-94565000D02*
X150650000Y-94565000D01*
X150650000Y-91345000D02*
X148200000Y-91345000D01*
%TO.C,J1*%
X146093674Y-96236680D02*
X138833674Y-96236680D01*
X146093674Y-104236680D02*
X146093674Y-105736680D01*
X146093674Y-96236680D02*
X146093674Y-97736680D01*
X146093674Y-105736680D02*
X138833674Y-105736680D01*
%TO.C,R2*%
X152637258Y-100522500D02*
X152162742Y-100522500D01*
X152637258Y-99477500D02*
X152162742Y-99477500D01*
%TO.C,C1*%
X165765000Y-104938748D02*
X165765000Y-105461252D01*
X167235000Y-104938748D02*
X167235000Y-105461252D01*
%TO.C,C7*%
X156811252Y-94735000D02*
X156288748Y-94735000D01*
X156811252Y-93265000D02*
X156288748Y-93265000D01*
%TO.C,Y1*%
X157100000Y-115800000D02*
X169700000Y-115800000D01*
X169700000Y-115800000D02*
X169700000Y-110700000D01*
X169700000Y-110700000D02*
X157100000Y-110700000D01*
%TO.C,C6*%
X171390580Y-94490000D02*
X171109420Y-94490000D01*
X171390580Y-95510000D02*
X171109420Y-95510000D01*
D13*
%TO.C,U1*%
X179675000Y-107925000D02*
X179000000Y-107925000D01*
X169325000Y-98150000D02*
X168050000Y-98150000D01*
X179675000Y-107925000D02*
X179675000Y-107250000D01*
X169325000Y-107925000D02*
X169325000Y-107250000D01*
X169325000Y-97575000D02*
X170000000Y-97575000D01*
X179675000Y-97575000D02*
X179000000Y-97575000D01*
X169325000Y-97575000D02*
X169325000Y-98150000D01*
X179675000Y-97575000D02*
X179675000Y-98250000D01*
X169325000Y-107925000D02*
X170000000Y-107925000D01*
D10*
%TO.C,C9*%
X145109420Y-88990000D02*
X145390580Y-88990000D01*
X145109420Y-90010000D02*
X145390580Y-90010000D01*
%TO.C,C5*%
X146011252Y-91395000D02*
X145488748Y-91395000D01*
X146011252Y-92865000D02*
X145488748Y-92865000D01*
%TO.C,C4*%
X166040580Y-102910000D02*
X165759420Y-102910000D01*
X166040580Y-101890000D02*
X165759420Y-101890000D01*
%TO.C,R1*%
X152637258Y-101227500D02*
X152162742Y-101227500D01*
X152637258Y-102272500D02*
X152162742Y-102272500D01*
%TO.C,R5*%
X138562258Y-110272500D02*
X138087742Y-110272500D01*
X138562258Y-109227500D02*
X138087742Y-109227500D01*
%TO.C,R6*%
X138562258Y-107227500D02*
X138087742Y-107227500D01*
X138562258Y-108272500D02*
X138087742Y-108272500D01*
%TO.C,R3*%
X173512742Y-112922500D02*
X173987258Y-112922500D01*
X173512742Y-111877500D02*
X173987258Y-111877500D01*
%TO.C,L1*%
X154149622Y-91440000D02*
X153350378Y-91440000D01*
X154149622Y-92560000D02*
X153350378Y-92560000D01*
%TO.C,J2*%
X188181089Y-96640000D02*
X188181089Y-99290000D01*
X185561089Y-102710000D02*
X185561089Y-105360000D01*
X188181089Y-100710000D02*
X188181089Y-103290000D01*
X185561089Y-96640000D02*
X185561089Y-97290000D01*
X185561089Y-96640000D02*
X188181089Y-96640000D01*
X184331089Y-97290000D02*
X185561089Y-97290000D01*
X185561089Y-105360000D02*
X188181089Y-105360000D01*
X188181089Y-104710000D02*
X188181089Y-105360000D01*
X185561089Y-98710000D02*
X185561089Y-101290000D01*
%TO.C,C10*%
X138859420Y-88990000D02*
X139140580Y-88990000D01*
X138859420Y-90010000D02*
X139140580Y-90010000D01*
%TO.C,C3*%
X154490000Y-113009420D02*
X154490000Y-113290580D01*
X155510000Y-113009420D02*
X155510000Y-113290580D01*
%TO.C,C2*%
X170490000Y-113009420D02*
X170490000Y-113290580D01*
X171510000Y-113009420D02*
X171510000Y-113290580D01*
%TO.C,C8*%
X158240000Y-119609420D02*
X158240000Y-119890580D01*
X159260000Y-119609420D02*
X159260000Y-119890580D01*
%TO.C,U3*%
X164090000Y-121910000D02*
X162350000Y-121910000D01*
X163650000Y-119090000D02*
X162350000Y-119090000D01*
%TO.C,R4*%
X177237258Y-112922500D02*
X176762742Y-112922500D01*
X177237258Y-111877500D02*
X176762742Y-111877500D01*
D14*
%TO.C,G\u002A\u002A\u002A*%
X143332894Y-82770231D02*
X143451606Y-82770287D01*
X143451606Y-82770287D02*
X143561999Y-82770374D01*
X143561999Y-82770374D02*
X143664124Y-82770491D01*
X143664124Y-82770491D02*
X143758029Y-82770640D01*
X143758029Y-82770640D02*
X143843763Y-82770819D01*
X143843763Y-82770819D02*
X143921377Y-82771029D01*
X143921377Y-82771029D02*
X143990920Y-82771271D01*
X143990920Y-82771271D02*
X144052440Y-82771544D01*
X144052440Y-82771544D02*
X144105988Y-82771849D01*
X144105988Y-82771849D02*
X144151613Y-82772186D01*
X144151613Y-82772186D02*
X144189364Y-82772555D01*
X144189364Y-82772555D02*
X144219291Y-82772956D01*
X144219291Y-82772956D02*
X144241443Y-82773390D01*
X144241443Y-82773390D02*
X144255869Y-82773856D01*
X144255869Y-82773856D02*
X144262619Y-82774355D01*
X144262619Y-82774355D02*
X144262952Y-82774427D01*
X144262952Y-82774427D02*
X144283288Y-82783552D01*
X144283288Y-82783552D02*
X144303561Y-82798708D01*
X144303561Y-82798708D02*
X144321231Y-82817829D01*
X144321231Y-82817829D02*
X144327526Y-82826964D01*
X144327526Y-82826964D02*
X144340317Y-82847653D01*
X144340317Y-82847653D02*
X144340317Y-83115681D01*
X144340317Y-83115681D02*
X144327526Y-83136369D01*
X144327526Y-83136369D02*
X144311806Y-83156579D01*
X144311806Y-83156579D02*
X144292365Y-83173734D01*
X144292365Y-83173734D02*
X144271744Y-83185767D01*
X144271744Y-83185767D02*
X144262952Y-83188907D01*
X144262952Y-83188907D02*
X144257261Y-83189411D01*
X144257261Y-83189411D02*
X144243902Y-83189881D01*
X144243902Y-83189881D02*
X144222824Y-83190319D01*
X144222824Y-83190319D02*
X144193977Y-83190725D01*
X144193977Y-83190725D02*
X144157313Y-83191098D01*
X144157313Y-83191098D02*
X144112782Y-83191440D01*
X144112782Y-83191440D02*
X144060335Y-83191749D01*
X144060335Y-83191749D02*
X143999922Y-83192027D01*
X143999922Y-83192027D02*
X143931494Y-83192273D01*
X143931494Y-83192273D02*
X143855002Y-83192488D01*
X143855002Y-83192488D02*
X143770395Y-83192671D01*
X143770395Y-83192671D02*
X143677625Y-83192824D01*
X143677625Y-83192824D02*
X143576643Y-83192945D01*
X143576643Y-83192945D02*
X143467398Y-83193036D01*
X143467398Y-83193036D02*
X143349842Y-83193096D01*
X143349842Y-83193096D02*
X143223924Y-83193127D01*
X143223924Y-83193127D02*
X143089597Y-83193126D01*
X143089597Y-83193126D02*
X143070317Y-83193124D01*
X143070317Y-83193124D02*
X142948775Y-83193101D01*
X142948775Y-83193101D02*
X142835433Y-83193067D01*
X142835433Y-83193067D02*
X142730025Y-83193019D01*
X142730025Y-83193019D02*
X142632285Y-83192957D01*
X142632285Y-83192957D02*
X142541946Y-83192879D01*
X142541946Y-83192879D02*
X142458742Y-83192785D01*
X142458742Y-83192785D02*
X142382406Y-83192672D01*
X142382406Y-83192672D02*
X142312671Y-83192540D01*
X142312671Y-83192540D02*
X142249273Y-83192387D01*
X142249273Y-83192387D02*
X142191944Y-83192212D01*
X142191944Y-83192212D02*
X142140417Y-83192014D01*
X142140417Y-83192014D02*
X142094427Y-83191791D01*
X142094427Y-83191791D02*
X142053708Y-83191543D01*
X142053708Y-83191543D02*
X142017991Y-83191267D01*
X142017991Y-83191267D02*
X141987012Y-83190963D01*
X141987012Y-83190963D02*
X141960504Y-83190629D01*
X141960504Y-83190629D02*
X141938201Y-83190264D01*
X141938201Y-83190264D02*
X141919836Y-83189867D01*
X141919836Y-83189867D02*
X141905142Y-83189437D01*
X141905142Y-83189437D02*
X141893854Y-83188971D01*
X141893854Y-83188971D02*
X141885705Y-83188470D01*
X141885705Y-83188470D02*
X141880428Y-83187931D01*
X141880428Y-83187931D02*
X141877894Y-83187406D01*
X141877894Y-83187406D02*
X141856072Y-83176060D01*
X141856072Y-83176060D02*
X141835308Y-83158955D01*
X141835308Y-83158955D02*
X141818532Y-83138589D01*
X141818532Y-83138589D02*
X141816136Y-83134725D01*
X141816136Y-83134725D02*
X141804550Y-83115017D01*
X141804550Y-83115017D02*
X141804550Y-82848317D01*
X141804550Y-82848317D02*
X141816136Y-82828609D01*
X141816136Y-82828609D02*
X141831871Y-82807918D01*
X141831871Y-82807918D02*
X141852127Y-82790033D01*
X141852127Y-82790033D02*
X141873974Y-82777452D01*
X141873974Y-82777452D02*
X141877894Y-82775927D01*
X141877894Y-82775927D02*
X141880782Y-82775354D01*
X141880782Y-82775354D02*
X141886300Y-82774818D01*
X141886300Y-82774818D02*
X141894713Y-82774320D01*
X141894713Y-82774320D02*
X141906289Y-82773858D01*
X141906289Y-82773858D02*
X141921293Y-82773430D01*
X141921293Y-82773430D02*
X141939993Y-82773036D01*
X141939993Y-82773036D02*
X141962654Y-82772674D01*
X141962654Y-82772674D02*
X141989543Y-82772343D01*
X141989543Y-82772343D02*
X142020926Y-82772042D01*
X142020926Y-82772042D02*
X142057070Y-82771768D01*
X142057070Y-82771768D02*
X142098241Y-82771522D01*
X142098241Y-82771522D02*
X142144705Y-82771301D01*
X142144705Y-82771301D02*
X142196729Y-82771105D01*
X142196729Y-82771105D02*
X142254579Y-82770932D01*
X142254579Y-82770932D02*
X142318521Y-82770781D01*
X142318521Y-82770781D02*
X142388823Y-82770651D01*
X142388823Y-82770651D02*
X142465750Y-82770540D01*
X142465750Y-82770540D02*
X142549568Y-82770447D01*
X142549568Y-82770447D02*
X142640545Y-82770371D01*
X142640545Y-82770371D02*
X142738946Y-82770310D01*
X142738946Y-82770310D02*
X142845038Y-82770263D01*
X142845038Y-82770263D02*
X142959087Y-82770230D01*
X142959087Y-82770230D02*
X143070317Y-82770210D01*
X143070317Y-82770210D02*
X143205814Y-82770205D01*
X143205814Y-82770205D02*
X143332894Y-82770231D01*
X143332894Y-82770231D02*
X143332894Y-82770231D01*
G36*
X143332894Y-82770231D02*
G01*
X143451606Y-82770287D01*
X143561999Y-82770374D01*
X143664124Y-82770491D01*
X143758029Y-82770640D01*
X143843763Y-82770819D01*
X143921377Y-82771029D01*
X143990920Y-82771271D01*
X144052440Y-82771544D01*
X144105988Y-82771849D01*
X144151613Y-82772186D01*
X144189364Y-82772555D01*
X144219291Y-82772956D01*
X144241443Y-82773390D01*
X144255869Y-82773856D01*
X144262619Y-82774355D01*
X144262952Y-82774427D01*
X144283288Y-82783552D01*
X144303561Y-82798708D01*
X144321231Y-82817829D01*
X144327526Y-82826964D01*
X144340317Y-82847653D01*
X144340317Y-83115681D01*
X144327526Y-83136369D01*
X144311806Y-83156579D01*
X144292365Y-83173734D01*
X144271744Y-83185767D01*
X144262952Y-83188907D01*
X144257261Y-83189411D01*
X144243902Y-83189881D01*
X144222824Y-83190319D01*
X144193977Y-83190725D01*
X144157313Y-83191098D01*
X144112782Y-83191440D01*
X144060335Y-83191749D01*
X143999922Y-83192027D01*
X143931494Y-83192273D01*
X143855002Y-83192488D01*
X143770395Y-83192671D01*
X143677625Y-83192824D01*
X143576643Y-83192945D01*
X143467398Y-83193036D01*
X143349842Y-83193096D01*
X143223924Y-83193127D01*
X143089597Y-83193126D01*
X143070317Y-83193124D01*
X142948775Y-83193101D01*
X142835433Y-83193067D01*
X142730025Y-83193019D01*
X142632285Y-83192957D01*
X142541946Y-83192879D01*
X142458742Y-83192785D01*
X142382406Y-83192672D01*
X142312671Y-83192540D01*
X142249273Y-83192387D01*
X142191944Y-83192212D01*
X142140417Y-83192014D01*
X142094427Y-83191791D01*
X142053708Y-83191543D01*
X142017991Y-83191267D01*
X141987012Y-83190963D01*
X141960504Y-83190629D01*
X141938201Y-83190264D01*
X141919836Y-83189867D01*
X141905142Y-83189437D01*
X141893854Y-83188971D01*
X141885705Y-83188470D01*
X141880428Y-83187931D01*
X141877894Y-83187406D01*
X141856072Y-83176060D01*
X141835308Y-83158955D01*
X141818532Y-83138589D01*
X141816136Y-83134725D01*
X141804550Y-83115017D01*
X141804550Y-82848317D01*
X141816136Y-82828609D01*
X141831871Y-82807918D01*
X141852127Y-82790033D01*
X141873974Y-82777452D01*
X141877894Y-82775927D01*
X141880782Y-82775354D01*
X141886300Y-82774818D01*
X141894713Y-82774320D01*
X141906289Y-82773858D01*
X141921293Y-82773430D01*
X141939993Y-82773036D01*
X141962654Y-82772674D01*
X141989543Y-82772343D01*
X142020926Y-82772042D01*
X142057070Y-82771768D01*
X142098241Y-82771522D01*
X142144705Y-82771301D01*
X142196729Y-82771105D01*
X142254579Y-82770932D01*
X142318521Y-82770781D01*
X142388823Y-82770651D01*
X142465750Y-82770540D01*
X142549568Y-82770447D01*
X142640545Y-82770371D01*
X142738946Y-82770310D01*
X142845038Y-82770263D01*
X142959087Y-82770230D01*
X143070317Y-82770210D01*
X143205814Y-82770205D01*
X143332894Y-82770231D01*
G37*
X143332894Y-82770231D02*
X143451606Y-82770287D01*
X143561999Y-82770374D01*
X143664124Y-82770491D01*
X143758029Y-82770640D01*
X143843763Y-82770819D01*
X143921377Y-82771029D01*
X143990920Y-82771271D01*
X144052440Y-82771544D01*
X144105988Y-82771849D01*
X144151613Y-82772186D01*
X144189364Y-82772555D01*
X144219291Y-82772956D01*
X144241443Y-82773390D01*
X144255869Y-82773856D01*
X144262619Y-82774355D01*
X144262952Y-82774427D01*
X144283288Y-82783552D01*
X144303561Y-82798708D01*
X144321231Y-82817829D01*
X144327526Y-82826964D01*
X144340317Y-82847653D01*
X144340317Y-83115681D01*
X144327526Y-83136369D01*
X144311806Y-83156579D01*
X144292365Y-83173734D01*
X144271744Y-83185767D01*
X144262952Y-83188907D01*
X144257261Y-83189411D01*
X144243902Y-83189881D01*
X144222824Y-83190319D01*
X144193977Y-83190725D01*
X144157313Y-83191098D01*
X144112782Y-83191440D01*
X144060335Y-83191749D01*
X143999922Y-83192027D01*
X143931494Y-83192273D01*
X143855002Y-83192488D01*
X143770395Y-83192671D01*
X143677625Y-83192824D01*
X143576643Y-83192945D01*
X143467398Y-83193036D01*
X143349842Y-83193096D01*
X143223924Y-83193127D01*
X143089597Y-83193126D01*
X143070317Y-83193124D01*
X142948775Y-83193101D01*
X142835433Y-83193067D01*
X142730025Y-83193019D01*
X142632285Y-83192957D01*
X142541946Y-83192879D01*
X142458742Y-83192785D01*
X142382406Y-83192672D01*
X142312671Y-83192540D01*
X142249273Y-83192387D01*
X142191944Y-83192212D01*
X142140417Y-83192014D01*
X142094427Y-83191791D01*
X142053708Y-83191543D01*
X142017991Y-83191267D01*
X141987012Y-83190963D01*
X141960504Y-83190629D01*
X141938201Y-83190264D01*
X141919836Y-83189867D01*
X141905142Y-83189437D01*
X141893854Y-83188971D01*
X141885705Y-83188470D01*
X141880428Y-83187931D01*
X141877894Y-83187406D01*
X141856072Y-83176060D01*
X141835308Y-83158955D01*
X141818532Y-83138589D01*
X141816136Y-83134725D01*
X141804550Y-83115017D01*
X141804550Y-82848317D01*
X141816136Y-82828609D01*
X141831871Y-82807918D01*
X141852127Y-82790033D01*
X141873974Y-82777452D01*
X141877894Y-82775927D01*
X141880782Y-82775354D01*
X141886300Y-82774818D01*
X141894713Y-82774320D01*
X141906289Y-82773858D01*
X141921293Y-82773430D01*
X141939993Y-82773036D01*
X141962654Y-82772674D01*
X141989543Y-82772343D01*
X142020926Y-82772042D01*
X142057070Y-82771768D01*
X142098241Y-82771522D01*
X142144705Y-82771301D01*
X142196729Y-82771105D01*
X142254579Y-82770932D01*
X142318521Y-82770781D01*
X142388823Y-82770651D01*
X142465750Y-82770540D01*
X142549568Y-82770447D01*
X142640545Y-82770371D01*
X142738946Y-82770310D01*
X142845038Y-82770263D01*
X142959087Y-82770230D01*
X143070317Y-82770210D01*
X143205814Y-82770205D01*
X143332894Y-82770231D01*
X142005537Y-79807331D02*
X142024231Y-79807492D01*
X142024231Y-79807492D02*
X142148138Y-79808783D01*
X142148138Y-79808783D02*
X142168815Y-79821574D01*
X142168815Y-79821574D02*
X142189017Y-79837296D01*
X142189017Y-79837296D02*
X142206168Y-79856735D01*
X142206168Y-79856735D02*
X142218199Y-79877353D01*
X142218199Y-79877353D02*
X142221340Y-79886149D01*
X142221340Y-79886149D02*
X142222492Y-79894667D01*
X142222492Y-79894667D02*
X142223496Y-79910992D01*
X142223496Y-79910992D02*
X142224335Y-79934464D01*
X142224335Y-79934464D02*
X142224993Y-79964424D01*
X142224993Y-79964424D02*
X142225455Y-80000212D01*
X142225455Y-80000212D02*
X142225703Y-80041169D01*
X142225703Y-80041169D02*
X142225743Y-80065959D01*
X142225743Y-80065959D02*
X142225767Y-80230000D01*
X142225767Y-80230000D02*
X141802076Y-80230000D01*
X141802076Y-80230000D02*
X141803313Y-80057492D01*
X141803313Y-80057492D02*
X141804550Y-79884983D01*
X141804550Y-79884983D02*
X141816309Y-79864980D01*
X141816309Y-79864980D02*
X141830632Y-79846097D01*
X141830632Y-79846097D02*
X141849336Y-79829093D01*
X141849336Y-79829093D02*
X141869675Y-79816177D01*
X141869675Y-79816177D02*
X141883739Y-79810665D01*
X141883739Y-79810665D02*
X141893601Y-79809288D01*
X141893601Y-79809288D02*
X141911319Y-79808252D01*
X141911319Y-79808252D02*
X141936284Y-79807571D01*
X141936284Y-79807571D02*
X141967892Y-79807260D01*
X141967892Y-79807260D02*
X142005537Y-79807331D01*
X142005537Y-79807331D02*
X142005537Y-79807331D01*
G36*
X142005537Y-79807331D02*
G01*
X142024231Y-79807492D01*
X142148138Y-79808783D01*
X142168815Y-79821574D01*
X142189017Y-79837296D01*
X142206168Y-79856735D01*
X142218199Y-79877353D01*
X142221340Y-79886149D01*
X142222492Y-79894667D01*
X142223496Y-79910992D01*
X142224335Y-79934464D01*
X142224993Y-79964424D01*
X142225455Y-80000212D01*
X142225703Y-80041169D01*
X142225743Y-80065959D01*
X142225767Y-80230000D01*
X141802076Y-80230000D01*
X141803313Y-80057492D01*
X141804550Y-79884983D01*
X141816309Y-79864980D01*
X141830632Y-79846097D01*
X141849336Y-79829093D01*
X141869675Y-79816177D01*
X141883739Y-79810665D01*
X141893601Y-79809288D01*
X141911319Y-79808252D01*
X141936284Y-79807571D01*
X141967892Y-79807260D01*
X142005537Y-79807331D01*
G37*
X142005537Y-79807331D02*
X142024231Y-79807492D01*
X142148138Y-79808783D01*
X142168815Y-79821574D01*
X142189017Y-79837296D01*
X142206168Y-79856735D01*
X142218199Y-79877353D01*
X142221340Y-79886149D01*
X142222492Y-79894667D01*
X142223496Y-79910992D01*
X142224335Y-79934464D01*
X142224993Y-79964424D01*
X142225455Y-80000212D01*
X142225703Y-80041169D01*
X142225743Y-80065959D01*
X142225767Y-80230000D01*
X141802076Y-80230000D01*
X141803313Y-80057492D01*
X141804550Y-79884983D01*
X141816309Y-79864980D01*
X141830632Y-79846097D01*
X141849336Y-79829093D01*
X141869675Y-79816177D01*
X141883739Y-79810665D01*
X141893601Y-79809288D01*
X141911319Y-79808252D01*
X141936284Y-79807571D01*
X141967892Y-79807260D01*
X142005537Y-79807331D01*
X143703097Y-80653594D02*
X143795201Y-80653694D01*
X143795201Y-80653694D02*
X143878935Y-80653844D01*
X143878935Y-80653844D02*
X143954331Y-80654045D01*
X143954331Y-80654045D02*
X144021421Y-80654296D01*
X144021421Y-80654296D02*
X144080238Y-80654598D01*
X144080238Y-80654598D02*
X144130813Y-80654950D01*
X144130813Y-80654950D02*
X144173179Y-80655354D01*
X144173179Y-80655354D02*
X144207368Y-80655809D01*
X144207368Y-80655809D02*
X144233412Y-80656315D01*
X144233412Y-80656315D02*
X144251343Y-80656873D01*
X144251343Y-80656873D02*
X144261194Y-80657482D01*
X144261194Y-80657482D02*
X144262952Y-80657760D01*
X144262952Y-80657760D02*
X144283288Y-80666885D01*
X144283288Y-80666885D02*
X144303561Y-80682041D01*
X144303561Y-80682041D02*
X144321231Y-80701162D01*
X144321231Y-80701162D02*
X144327526Y-80710298D01*
X144327526Y-80710298D02*
X144340317Y-80730986D01*
X144340317Y-80730986D02*
X144340317Y-82269014D01*
X144340317Y-82269014D02*
X144327526Y-82289703D01*
X144327526Y-82289703D02*
X144311806Y-82309913D01*
X144311806Y-82309913D02*
X144292365Y-82327067D01*
X144292365Y-82327067D02*
X144271744Y-82339101D01*
X144271744Y-82339101D02*
X144262952Y-82342240D01*
X144262952Y-82342240D02*
X144256561Y-82342872D01*
X144256561Y-82342872D02*
X144242103Y-82343452D01*
X144242103Y-82343452D02*
X144219546Y-82343980D01*
X144219546Y-82343980D02*
X144188859Y-82344457D01*
X144188859Y-82344457D02*
X144150007Y-82344883D01*
X144150007Y-82344883D02*
X144102961Y-82345257D01*
X144102961Y-82345257D02*
X144047687Y-82345581D01*
X144047687Y-82345581D02*
X143984153Y-82345854D01*
X143984153Y-82345854D02*
X143912327Y-82346076D01*
X143912327Y-82346076D02*
X143832176Y-82346248D01*
X143832176Y-82346248D02*
X143743670Y-82346370D01*
X143743670Y-82346370D02*
X143646775Y-82346441D01*
X143646775Y-82346441D02*
X143541460Y-82346463D01*
X143541460Y-82346463D02*
X143493650Y-82346457D01*
X143493650Y-82346457D02*
X143396902Y-82346427D01*
X143396902Y-82346427D02*
X143308288Y-82346376D01*
X143308288Y-82346376D02*
X143227475Y-82346303D01*
X143227475Y-82346303D02*
X143154129Y-82346206D01*
X143154129Y-82346206D02*
X143087918Y-82346081D01*
X143087918Y-82346081D02*
X143028509Y-82345926D01*
X143028509Y-82345926D02*
X142975568Y-82345740D01*
X142975568Y-82345740D02*
X142928764Y-82345519D01*
X142928764Y-82345519D02*
X142887761Y-82345260D01*
X142887761Y-82345260D02*
X142852229Y-82344962D01*
X142852229Y-82344962D02*
X142821833Y-82344622D01*
X142821833Y-82344622D02*
X142796241Y-82344238D01*
X142796241Y-82344238D02*
X142775120Y-82343806D01*
X142775120Y-82343806D02*
X142758137Y-82343325D01*
X142758137Y-82343325D02*
X142744958Y-82342792D01*
X142744958Y-82342792D02*
X142735251Y-82342205D01*
X142735251Y-82342205D02*
X142728683Y-82341560D01*
X142728683Y-82341560D02*
X142724921Y-82340857D01*
X142724921Y-82340857D02*
X142724561Y-82340740D01*
X142724561Y-82340740D02*
X142702739Y-82329393D01*
X142702739Y-82329393D02*
X142681975Y-82312288D01*
X142681975Y-82312288D02*
X142665199Y-82291922D01*
X142665199Y-82291922D02*
X142662802Y-82288058D01*
X142662802Y-82288058D02*
X142651217Y-82268350D01*
X142651217Y-82268350D02*
X142651217Y-81076667D01*
X142651217Y-81076667D02*
X143072433Y-81076667D01*
X143072433Y-81076667D02*
X143072433Y-81923334D01*
X143072433Y-81923334D02*
X143919100Y-81923334D01*
X143919100Y-81923334D02*
X143919100Y-81076667D01*
X143919100Y-81076667D02*
X143072433Y-81076667D01*
X143072433Y-81076667D02*
X142651217Y-81076667D01*
X142651217Y-81076667D02*
X142651217Y-80731650D01*
X142651217Y-80731650D02*
X142662802Y-80711942D01*
X142662802Y-80711942D02*
X142678537Y-80691251D01*
X142678537Y-80691251D02*
X142698793Y-80673366D01*
X142698793Y-80673366D02*
X142720641Y-80660785D01*
X142720641Y-80660785D02*
X142724561Y-80659261D01*
X142724561Y-80659261D02*
X142727910Y-80658547D01*
X142727910Y-80658547D02*
X142734012Y-80657894D01*
X142734012Y-80657894D02*
X142743201Y-80657297D01*
X142743201Y-80657297D02*
X142755808Y-80656756D01*
X142755808Y-80656756D02*
X142772168Y-80656267D01*
X142772168Y-80656267D02*
X142792613Y-80655828D01*
X142792613Y-80655828D02*
X142817475Y-80655436D01*
X142817475Y-80655436D02*
X142847089Y-80655089D01*
X142847089Y-80655089D02*
X142881787Y-80654785D01*
X142881787Y-80654785D02*
X142921903Y-80654520D01*
X142921903Y-80654520D02*
X142967768Y-80654293D01*
X142967768Y-80654293D02*
X143019716Y-80654101D01*
X143019716Y-80654101D02*
X143078080Y-80653942D01*
X143078080Y-80653942D02*
X143143194Y-80653813D01*
X143143194Y-80653813D02*
X143215389Y-80653711D01*
X143215389Y-80653711D02*
X143294999Y-80653634D01*
X143294999Y-80653634D02*
X143382358Y-80653580D01*
X143382358Y-80653580D02*
X143477797Y-80653547D01*
X143477797Y-80653547D02*
X143493650Y-80653543D01*
X143493650Y-80653543D02*
X143602591Y-80653543D01*
X143602591Y-80653543D02*
X143703097Y-80653594D01*
X143703097Y-80653594D02*
X143703097Y-80653594D01*
G36*
X142662802Y-80711942D02*
G01*
X142678537Y-80691251D01*
X142698793Y-80673366D01*
X142720641Y-80660785D01*
X142724561Y-80659261D01*
X142727910Y-80658547D01*
X142734012Y-80657894D01*
X142743201Y-80657297D01*
X142755808Y-80656756D01*
X142772168Y-80656267D01*
X142792613Y-80655828D01*
X142817475Y-80655436D01*
X142847089Y-80655089D01*
X142881787Y-80654785D01*
X142921903Y-80654520D01*
X142967768Y-80654293D01*
X143019716Y-80654101D01*
X143078080Y-80653942D01*
X143143194Y-80653813D01*
X143215389Y-80653711D01*
X143294999Y-80653634D01*
X143382358Y-80653580D01*
X143477797Y-80653547D01*
X143493650Y-80653543D01*
X143602591Y-80653543D01*
X143703097Y-80653594D01*
X143795201Y-80653694D01*
X143878935Y-80653844D01*
X143954331Y-80654045D01*
X144021421Y-80654296D01*
X144080238Y-80654598D01*
X144130813Y-80654950D01*
X144173179Y-80655354D01*
X144207368Y-80655809D01*
X144233412Y-80656315D01*
X144251343Y-80656873D01*
X144261194Y-80657482D01*
X144262952Y-80657760D01*
X144283288Y-80666885D01*
X144303561Y-80682041D01*
X144321231Y-80701162D01*
X144327526Y-80710298D01*
X144340317Y-80730986D01*
X144340317Y-82269014D01*
X144327526Y-82289703D01*
X144311806Y-82309913D01*
X144292365Y-82327067D01*
X144271744Y-82339101D01*
X144262952Y-82342240D01*
X144256561Y-82342872D01*
X144242103Y-82343452D01*
X144219546Y-82343980D01*
X144188859Y-82344457D01*
X144150007Y-82344883D01*
X144102961Y-82345257D01*
X144047687Y-82345581D01*
X143984153Y-82345854D01*
X143912327Y-82346076D01*
X143832176Y-82346248D01*
X143743670Y-82346370D01*
X143646775Y-82346441D01*
X143541460Y-82346463D01*
X143493650Y-82346457D01*
X143396902Y-82346427D01*
X143308288Y-82346376D01*
X143227475Y-82346303D01*
X143154129Y-82346206D01*
X143087918Y-82346081D01*
X143028509Y-82345926D01*
X142975568Y-82345740D01*
X142928764Y-82345519D01*
X142887761Y-82345260D01*
X142852229Y-82344962D01*
X142821833Y-82344622D01*
X142796241Y-82344238D01*
X142775120Y-82343806D01*
X142758137Y-82343325D01*
X142744958Y-82342792D01*
X142735251Y-82342205D01*
X142728683Y-82341560D01*
X142724921Y-82340857D01*
X142724561Y-82340740D01*
X142702739Y-82329393D01*
X142681975Y-82312288D01*
X142665199Y-82291922D01*
X142662802Y-82288058D01*
X142651217Y-82268350D01*
X142651217Y-81923334D01*
X143072433Y-81923334D01*
X143919100Y-81923334D01*
X143919100Y-81076667D01*
X143072433Y-81076667D01*
X143072433Y-81923334D01*
X142651217Y-81923334D01*
X142651217Y-80731650D01*
X142662802Y-80711942D01*
G37*
X142662802Y-80711942D02*
X142678537Y-80691251D01*
X142698793Y-80673366D01*
X142720641Y-80660785D01*
X142724561Y-80659261D01*
X142727910Y-80658547D01*
X142734012Y-80657894D01*
X142743201Y-80657297D01*
X142755808Y-80656756D01*
X142772168Y-80656267D01*
X142792613Y-80655828D01*
X142817475Y-80655436D01*
X142847089Y-80655089D01*
X142881787Y-80654785D01*
X142921903Y-80654520D01*
X142967768Y-80654293D01*
X143019716Y-80654101D01*
X143078080Y-80653942D01*
X143143194Y-80653813D01*
X143215389Y-80653711D01*
X143294999Y-80653634D01*
X143382358Y-80653580D01*
X143477797Y-80653547D01*
X143493650Y-80653543D01*
X143602591Y-80653543D01*
X143703097Y-80653594D01*
X143795201Y-80653694D01*
X143878935Y-80653844D01*
X143954331Y-80654045D01*
X144021421Y-80654296D01*
X144080238Y-80654598D01*
X144130813Y-80654950D01*
X144173179Y-80655354D01*
X144207368Y-80655809D01*
X144233412Y-80656315D01*
X144251343Y-80656873D01*
X144261194Y-80657482D01*
X144262952Y-80657760D01*
X144283288Y-80666885D01*
X144303561Y-80682041D01*
X144321231Y-80701162D01*
X144327526Y-80710298D01*
X144340317Y-80730986D01*
X144340317Y-82269014D01*
X144327526Y-82289703D01*
X144311806Y-82309913D01*
X144292365Y-82327067D01*
X144271744Y-82339101D01*
X144262952Y-82342240D01*
X144256561Y-82342872D01*
X144242103Y-82343452D01*
X144219546Y-82343980D01*
X144188859Y-82344457D01*
X144150007Y-82344883D01*
X144102961Y-82345257D01*
X144047687Y-82345581D01*
X143984153Y-82345854D01*
X143912327Y-82346076D01*
X143832176Y-82346248D01*
X143743670Y-82346370D01*
X143646775Y-82346441D01*
X143541460Y-82346463D01*
X143493650Y-82346457D01*
X143396902Y-82346427D01*
X143308288Y-82346376D01*
X143227475Y-82346303D01*
X143154129Y-82346206D01*
X143087918Y-82346081D01*
X143028509Y-82345926D01*
X142975568Y-82345740D01*
X142928764Y-82345519D01*
X142887761Y-82345260D01*
X142852229Y-82344962D01*
X142821833Y-82344622D01*
X142796241Y-82344238D01*
X142775120Y-82343806D01*
X142758137Y-82343325D01*
X142744958Y-82342792D01*
X142735251Y-82342205D01*
X142728683Y-82341560D01*
X142724921Y-82340857D01*
X142724561Y-82340740D01*
X142702739Y-82329393D01*
X142681975Y-82312288D01*
X142665199Y-82291922D01*
X142662802Y-82288058D01*
X142651217Y-82268350D01*
X142651217Y-81923334D01*
X143072433Y-81923334D01*
X143919100Y-81923334D01*
X143919100Y-81076667D01*
X143072433Y-81076667D01*
X143072433Y-81923334D01*
X142651217Y-81923334D01*
X142651217Y-80731650D01*
X142662802Y-80711942D01*
X143577517Y-79807486D02*
X143700274Y-79807531D01*
X143700274Y-79807531D02*
X143831227Y-79807614D01*
X143831227Y-79807614D02*
X143928462Y-79807696D01*
X143928462Y-79807696D02*
X145111448Y-79808783D01*
X145111448Y-79808783D02*
X145132136Y-79821574D01*
X145132136Y-79821574D02*
X145152346Y-79837294D01*
X145152346Y-79837294D02*
X145169501Y-79856735D01*
X145169501Y-79856735D02*
X145181534Y-79877356D01*
X145181534Y-79877356D02*
X145184674Y-79886149D01*
X145184674Y-79886149D02*
X145185053Y-79891719D01*
X145185053Y-79891719D02*
X145185417Y-79905398D01*
X145185417Y-79905398D02*
X145185764Y-79926829D01*
X145185764Y-79926829D02*
X145186094Y-79955652D01*
X145186094Y-79955652D02*
X145186408Y-79991512D01*
X145186408Y-79991512D02*
X145186706Y-80034049D01*
X145186706Y-80034049D02*
X145186987Y-80082907D01*
X145186987Y-80082907D02*
X145187252Y-80137727D01*
X145187252Y-80137727D02*
X145187501Y-80198152D01*
X145187501Y-80198152D02*
X145187733Y-80263824D01*
X145187733Y-80263824D02*
X145187949Y-80334385D01*
X145187949Y-80334385D02*
X145188148Y-80409477D01*
X145188148Y-80409477D02*
X145188331Y-80488744D01*
X145188331Y-80488744D02*
X145188498Y-80571826D01*
X145188498Y-80571826D02*
X145188648Y-80658367D01*
X145188648Y-80658367D02*
X145188782Y-80748008D01*
X145188782Y-80748008D02*
X145188899Y-80840392D01*
X145188899Y-80840392D02*
X145189000Y-80935161D01*
X145189000Y-80935161D02*
X145189085Y-81031957D01*
X145189085Y-81031957D02*
X145189153Y-81130423D01*
X145189153Y-81130423D02*
X145189205Y-81230201D01*
X145189205Y-81230201D02*
X145189241Y-81330933D01*
X145189241Y-81330933D02*
X145189260Y-81432261D01*
X145189260Y-81432261D02*
X145189263Y-81533827D01*
X145189263Y-81533827D02*
X145189249Y-81635275D01*
X145189249Y-81635275D02*
X145189219Y-81736246D01*
X145189219Y-81736246D02*
X145189173Y-81836382D01*
X145189173Y-81836382D02*
X145189110Y-81935326D01*
X145189110Y-81935326D02*
X145189031Y-82032719D01*
X145189031Y-82032719D02*
X145188935Y-82128205D01*
X145188935Y-82128205D02*
X145188823Y-82221426D01*
X145188823Y-82221426D02*
X145188695Y-82312023D01*
X145188695Y-82312023D02*
X145188550Y-82399639D01*
X145188550Y-82399639D02*
X145188389Y-82483916D01*
X145188389Y-82483916D02*
X145188211Y-82564496D01*
X145188211Y-82564496D02*
X145188017Y-82641023D01*
X145188017Y-82641023D02*
X145187807Y-82713137D01*
X145187807Y-82713137D02*
X145187580Y-82780481D01*
X145187580Y-82780481D02*
X145187337Y-82842698D01*
X145187337Y-82842698D02*
X145187078Y-82899430D01*
X145187078Y-82899430D02*
X145186802Y-82950319D01*
X145186802Y-82950319D02*
X145186510Y-82995007D01*
X145186510Y-82995007D02*
X145186201Y-83033136D01*
X145186201Y-83033136D02*
X145185876Y-83064350D01*
X145185876Y-83064350D02*
X145185534Y-83088289D01*
X145185534Y-83088289D02*
X145185177Y-83104597D01*
X145185177Y-83104597D02*
X145184802Y-83112915D01*
X145184802Y-83112915D02*
X145184674Y-83113852D01*
X145184674Y-83113852D02*
X145175551Y-83134182D01*
X145175551Y-83134182D02*
X145160400Y-83154453D01*
X145160400Y-83154453D02*
X145141286Y-83172125D01*
X145141286Y-83172125D02*
X145132147Y-83178426D01*
X145132147Y-83178426D02*
X145111471Y-83191217D01*
X145111471Y-83191217D02*
X144984127Y-83192207D01*
X144984127Y-83192207D02*
X144944908Y-83192419D01*
X144944908Y-83192419D02*
X144913310Y-83192363D01*
X144913310Y-83192363D02*
X144888490Y-83192011D01*
X144888490Y-83192011D02*
X144869605Y-83191335D01*
X144869605Y-83191335D02*
X144855813Y-83190309D01*
X144855813Y-83190309D02*
X144846272Y-83188904D01*
X144846272Y-83188904D02*
X144841228Y-83187524D01*
X144841228Y-83187524D02*
X144819136Y-83175898D01*
X144819136Y-83175898D02*
X144798226Y-83158536D01*
X144798226Y-83158536D02*
X144781471Y-83137979D01*
X144781471Y-83137979D02*
X144779469Y-83134725D01*
X144779469Y-83134725D02*
X144767883Y-83115017D01*
X144767883Y-83115017D02*
X144765767Y-81690500D01*
X144765767Y-81690500D02*
X144765563Y-81556613D01*
X144765563Y-81556613D02*
X144765361Y-81430952D01*
X144765361Y-81430952D02*
X144765160Y-81313276D01*
X144765160Y-81313276D02*
X144764958Y-81203343D01*
X144764958Y-81203343D02*
X144764754Y-81100912D01*
X144764754Y-81100912D02*
X144764546Y-81005744D01*
X144764546Y-81005744D02*
X144764334Y-80917595D01*
X144764334Y-80917595D02*
X144764116Y-80836227D01*
X144764116Y-80836227D02*
X144763891Y-80761396D01*
X144763891Y-80761396D02*
X144763658Y-80692863D01*
X144763658Y-80692863D02*
X144763415Y-80630387D01*
X144763415Y-80630387D02*
X144763160Y-80573726D01*
X144763160Y-80573726D02*
X144762894Y-80522640D01*
X144762894Y-80522640D02*
X144762614Y-80476886D01*
X144762614Y-80476886D02*
X144762319Y-80436225D01*
X144762319Y-80436225D02*
X144762007Y-80400416D01*
X144762007Y-80400416D02*
X144761678Y-80369217D01*
X144761678Y-80369217D02*
X144761331Y-80342387D01*
X144761331Y-80342387D02*
X144760963Y-80319685D01*
X144760963Y-80319685D02*
X144760574Y-80300870D01*
X144760574Y-80300870D02*
X144760163Y-80285702D01*
X144760163Y-80285702D02*
X144759727Y-80273939D01*
X144759727Y-80273939D02*
X144759266Y-80265340D01*
X144759266Y-80265340D02*
X144758779Y-80259664D01*
X144758779Y-80259664D02*
X144758264Y-80256671D01*
X144758264Y-80256671D02*
X144758088Y-80256232D01*
X144758088Y-80256232D02*
X144750630Y-80247340D01*
X144750630Y-80247340D02*
X144739979Y-80238845D01*
X144739979Y-80238845D02*
X144739038Y-80238256D01*
X144739038Y-80238256D02*
X144737439Y-80237360D01*
X144737439Y-80237360D02*
X144735478Y-80236532D01*
X144735478Y-80236532D02*
X144732831Y-80235768D01*
X144732831Y-80235768D02*
X144729174Y-80235066D01*
X144729174Y-80235066D02*
X144724185Y-80234424D01*
X144724185Y-80234424D02*
X144717540Y-80233838D01*
X144717540Y-80233838D02*
X144708915Y-80233306D01*
X144708915Y-80233306D02*
X144697987Y-80232825D01*
X144697987Y-80232825D02*
X144684432Y-80232393D01*
X144684432Y-80232393D02*
X144667927Y-80232006D01*
X144667927Y-80232006D02*
X144648148Y-80231663D01*
X144648148Y-80231663D02*
X144624772Y-80231359D01*
X144624772Y-80231359D02*
X144597475Y-80231094D01*
X144597475Y-80231094D02*
X144565934Y-80230863D01*
X144565934Y-80230863D02*
X144529825Y-80230664D01*
X144529825Y-80230664D02*
X144488824Y-80230495D01*
X144488824Y-80230495D02*
X144442609Y-80230353D01*
X144442609Y-80230353D02*
X144390856Y-80230235D01*
X144390856Y-80230235D02*
X144333240Y-80230138D01*
X144333240Y-80230138D02*
X144269439Y-80230060D01*
X144269439Y-80230060D02*
X144199130Y-80229998D01*
X144199130Y-80229998D02*
X144121988Y-80229949D01*
X144121988Y-80229949D02*
X144037690Y-80229911D01*
X144037690Y-80229911D02*
X143945912Y-80229880D01*
X143945912Y-80229880D02*
X143846332Y-80229854D01*
X143846332Y-80229854D02*
X143738625Y-80229831D01*
X143738625Y-80229831D02*
X143732834Y-80229830D01*
X143732834Y-80229830D02*
X143621421Y-80229800D01*
X143621421Y-80229800D02*
X143518186Y-80229756D01*
X143518186Y-80229756D02*
X143422837Y-80229697D01*
X143422837Y-80229697D02*
X143335085Y-80229620D01*
X143335085Y-80229620D02*
X143254639Y-80229524D01*
X143254639Y-80229524D02*
X143181209Y-80229407D01*
X143181209Y-80229407D02*
X143114506Y-80229268D01*
X143114506Y-80229268D02*
X143054240Y-80229106D01*
X143054240Y-80229106D02*
X143000119Y-80228917D01*
X143000119Y-80228917D02*
X142951855Y-80228702D01*
X142951855Y-80228702D02*
X142909158Y-80228457D01*
X142909158Y-80228457D02*
X142871736Y-80228182D01*
X142871736Y-80228182D02*
X142839301Y-80227875D01*
X142839301Y-80227875D02*
X142811562Y-80227533D01*
X142811562Y-80227533D02*
X142788229Y-80227156D01*
X142788229Y-80227156D02*
X142769012Y-80226742D01*
X142769012Y-80226742D02*
X142753621Y-80226290D01*
X142753621Y-80226290D02*
X142741766Y-80225796D01*
X142741766Y-80225796D02*
X142733157Y-80225261D01*
X142733157Y-80225261D02*
X142727503Y-80224681D01*
X142727503Y-80224681D02*
X142724561Y-80224073D01*
X142724561Y-80224073D02*
X142702739Y-80212727D01*
X142702739Y-80212727D02*
X142681975Y-80195621D01*
X142681975Y-80195621D02*
X142665199Y-80175256D01*
X142665199Y-80175256D02*
X142662802Y-80171392D01*
X142662802Y-80171392D02*
X142651217Y-80151684D01*
X142651217Y-80151684D02*
X142651217Y-79884983D01*
X142651217Y-79884983D02*
X142662976Y-79864980D01*
X142662976Y-79864980D02*
X142676900Y-79846554D01*
X142676900Y-79846554D02*
X142695092Y-79829781D01*
X142695092Y-79829781D02*
X142714833Y-79816868D01*
X142714833Y-79816868D02*
X142729648Y-79810869D01*
X142729648Y-79810869D02*
X142735762Y-79810381D01*
X142735762Y-79810381D02*
X142750325Y-79809930D01*
X142750325Y-79809930D02*
X142773318Y-79809517D01*
X142773318Y-79809517D02*
X142804724Y-79809143D01*
X142804724Y-79809143D02*
X142844525Y-79808805D01*
X142844525Y-79808805D02*
X142892702Y-79808506D01*
X142892702Y-79808506D02*
X142949238Y-79808245D01*
X142949238Y-79808245D02*
X143014114Y-79808022D01*
X143014114Y-79808022D02*
X143087313Y-79807837D01*
X143087313Y-79807837D02*
X143168816Y-79807691D01*
X143168816Y-79807691D02*
X143258607Y-79807582D01*
X143258607Y-79807582D02*
X143356665Y-79807512D01*
X143356665Y-79807512D02*
X143462975Y-79807480D01*
X143462975Y-79807480D02*
X143577517Y-79807486D01*
X143577517Y-79807486D02*
X143577517Y-79807486D01*
G36*
X143577517Y-79807486D02*
G01*
X143700274Y-79807531D01*
X143831227Y-79807614D01*
X143928462Y-79807696D01*
X145111448Y-79808783D01*
X145132136Y-79821574D01*
X145152346Y-79837294D01*
X145169501Y-79856735D01*
X145181534Y-79877356D01*
X145184674Y-79886149D01*
X145185053Y-79891719D01*
X145185417Y-79905398D01*
X145185764Y-79926829D01*
X145186094Y-79955652D01*
X145186408Y-79991512D01*
X145186706Y-80034049D01*
X145186987Y-80082907D01*
X145187252Y-80137727D01*
X145187501Y-80198152D01*
X145187733Y-80263824D01*
X145187949Y-80334385D01*
X145188148Y-80409477D01*
X145188331Y-80488744D01*
X145188498Y-80571826D01*
X145188648Y-80658367D01*
X145188782Y-80748008D01*
X145188899Y-80840392D01*
X145189000Y-80935161D01*
X145189085Y-81031957D01*
X145189153Y-81130423D01*
X145189205Y-81230201D01*
X145189241Y-81330933D01*
X145189260Y-81432261D01*
X145189263Y-81533827D01*
X145189249Y-81635275D01*
X145189219Y-81736246D01*
X145189173Y-81836382D01*
X145189110Y-81935326D01*
X145189031Y-82032719D01*
X145188935Y-82128205D01*
X145188823Y-82221426D01*
X145188695Y-82312023D01*
X145188550Y-82399639D01*
X145188389Y-82483916D01*
X145188211Y-82564496D01*
X145188017Y-82641023D01*
X145187807Y-82713137D01*
X145187580Y-82780481D01*
X145187337Y-82842698D01*
X145187078Y-82899430D01*
X145186802Y-82950319D01*
X145186510Y-82995007D01*
X145186201Y-83033136D01*
X145185876Y-83064350D01*
X145185534Y-83088289D01*
X145185177Y-83104597D01*
X145184802Y-83112915D01*
X145184674Y-83113852D01*
X145175551Y-83134182D01*
X145160400Y-83154453D01*
X145141286Y-83172125D01*
X145132147Y-83178426D01*
X145111471Y-83191217D01*
X144984127Y-83192207D01*
X144944908Y-83192419D01*
X144913310Y-83192363D01*
X144888490Y-83192011D01*
X144869605Y-83191335D01*
X144855813Y-83190309D01*
X144846272Y-83188904D01*
X144841228Y-83187524D01*
X144819136Y-83175898D01*
X144798226Y-83158536D01*
X144781471Y-83137979D01*
X144779469Y-83134725D01*
X144767883Y-83115017D01*
X144765767Y-81690500D01*
X144765563Y-81556613D01*
X144765361Y-81430952D01*
X144765160Y-81313276D01*
X144764958Y-81203343D01*
X144764754Y-81100912D01*
X144764546Y-81005744D01*
X144764334Y-80917595D01*
X144764116Y-80836227D01*
X144763891Y-80761396D01*
X144763658Y-80692863D01*
X144763415Y-80630387D01*
X144763160Y-80573726D01*
X144762894Y-80522640D01*
X144762614Y-80476886D01*
X144762319Y-80436225D01*
X144762007Y-80400416D01*
X144761678Y-80369217D01*
X144761331Y-80342387D01*
X144760963Y-80319685D01*
X144760574Y-80300870D01*
X144760163Y-80285702D01*
X144759727Y-80273939D01*
X144759266Y-80265340D01*
X144758779Y-80259664D01*
X144758264Y-80256671D01*
X144758088Y-80256232D01*
X144750630Y-80247340D01*
X144739979Y-80238845D01*
X144739038Y-80238256D01*
X144737439Y-80237360D01*
X144735478Y-80236532D01*
X144732831Y-80235768D01*
X144729174Y-80235066D01*
X144724185Y-80234424D01*
X144717540Y-80233838D01*
X144708915Y-80233306D01*
X144697987Y-80232825D01*
X144684432Y-80232393D01*
X144667927Y-80232006D01*
X144648148Y-80231663D01*
X144624772Y-80231359D01*
X144597475Y-80231094D01*
X144565934Y-80230863D01*
X144529825Y-80230664D01*
X144488824Y-80230495D01*
X144442609Y-80230353D01*
X144390856Y-80230235D01*
X144333240Y-80230138D01*
X144269439Y-80230060D01*
X144199130Y-80229998D01*
X144121988Y-80229949D01*
X144037690Y-80229911D01*
X143945912Y-80229880D01*
X143846332Y-80229854D01*
X143738625Y-80229831D01*
X143732834Y-80229830D01*
X143621421Y-80229800D01*
X143518186Y-80229756D01*
X143422837Y-80229697D01*
X143335085Y-80229620D01*
X143254639Y-80229524D01*
X143181209Y-80229407D01*
X143114506Y-80229268D01*
X143054240Y-80229106D01*
X143000119Y-80228917D01*
X142951855Y-80228702D01*
X142909158Y-80228457D01*
X142871736Y-80228182D01*
X142839301Y-80227875D01*
X142811562Y-80227533D01*
X142788229Y-80227156D01*
X142769012Y-80226742D01*
X142753621Y-80226290D01*
X142741766Y-80225796D01*
X142733157Y-80225261D01*
X142727503Y-80224681D01*
X142724561Y-80224073D01*
X142702739Y-80212727D01*
X142681975Y-80195621D01*
X142665199Y-80175256D01*
X142662802Y-80171392D01*
X142651217Y-80151684D01*
X142651217Y-79884983D01*
X142662976Y-79864980D01*
X142676900Y-79846554D01*
X142695092Y-79829781D01*
X142714833Y-79816868D01*
X142729648Y-79810869D01*
X142735762Y-79810381D01*
X142750325Y-79809930D01*
X142773318Y-79809517D01*
X142804724Y-79809143D01*
X142844525Y-79808805D01*
X142892702Y-79808506D01*
X142949238Y-79808245D01*
X143014114Y-79808022D01*
X143087313Y-79807837D01*
X143168816Y-79807691D01*
X143258607Y-79807582D01*
X143356665Y-79807512D01*
X143462975Y-79807480D01*
X143577517Y-79807486D01*
G37*
X143577517Y-79807486D02*
X143700274Y-79807531D01*
X143831227Y-79807614D01*
X143928462Y-79807696D01*
X145111448Y-79808783D01*
X145132136Y-79821574D01*
X145152346Y-79837294D01*
X145169501Y-79856735D01*
X145181534Y-79877356D01*
X145184674Y-79886149D01*
X145185053Y-79891719D01*
X145185417Y-79905398D01*
X145185764Y-79926829D01*
X145186094Y-79955652D01*
X145186408Y-79991512D01*
X145186706Y-80034049D01*
X145186987Y-80082907D01*
X145187252Y-80137727D01*
X145187501Y-80198152D01*
X145187733Y-80263824D01*
X145187949Y-80334385D01*
X145188148Y-80409477D01*
X145188331Y-80488744D01*
X145188498Y-80571826D01*
X145188648Y-80658367D01*
X145188782Y-80748008D01*
X145188899Y-80840392D01*
X145189000Y-80935161D01*
X145189085Y-81031957D01*
X145189153Y-81130423D01*
X145189205Y-81230201D01*
X145189241Y-81330933D01*
X145189260Y-81432261D01*
X145189263Y-81533827D01*
X145189249Y-81635275D01*
X145189219Y-81736246D01*
X145189173Y-81836382D01*
X145189110Y-81935326D01*
X145189031Y-82032719D01*
X145188935Y-82128205D01*
X145188823Y-82221426D01*
X145188695Y-82312023D01*
X145188550Y-82399639D01*
X145188389Y-82483916D01*
X145188211Y-82564496D01*
X145188017Y-82641023D01*
X145187807Y-82713137D01*
X145187580Y-82780481D01*
X145187337Y-82842698D01*
X145187078Y-82899430D01*
X145186802Y-82950319D01*
X145186510Y-82995007D01*
X145186201Y-83033136D01*
X145185876Y-83064350D01*
X145185534Y-83088289D01*
X145185177Y-83104597D01*
X145184802Y-83112915D01*
X145184674Y-83113852D01*
X145175551Y-83134182D01*
X145160400Y-83154453D01*
X145141286Y-83172125D01*
X145132147Y-83178426D01*
X145111471Y-83191217D01*
X144984127Y-83192207D01*
X144944908Y-83192419D01*
X144913310Y-83192363D01*
X144888490Y-83192011D01*
X144869605Y-83191335D01*
X144855813Y-83190309D01*
X144846272Y-83188904D01*
X144841228Y-83187524D01*
X144819136Y-83175898D01*
X144798226Y-83158536D01*
X144781471Y-83137979D01*
X144779469Y-83134725D01*
X144767883Y-83115017D01*
X144765767Y-81690500D01*
X144765563Y-81556613D01*
X144765361Y-81430952D01*
X144765160Y-81313276D01*
X144764958Y-81203343D01*
X144764754Y-81100912D01*
X144764546Y-81005744D01*
X144764334Y-80917595D01*
X144764116Y-80836227D01*
X144763891Y-80761396D01*
X144763658Y-80692863D01*
X144763415Y-80630387D01*
X144763160Y-80573726D01*
X144762894Y-80522640D01*
X144762614Y-80476886D01*
X144762319Y-80436225D01*
X144762007Y-80400416D01*
X144761678Y-80369217D01*
X144761331Y-80342387D01*
X144760963Y-80319685D01*
X144760574Y-80300870D01*
X144760163Y-80285702D01*
X144759727Y-80273939D01*
X144759266Y-80265340D01*
X144758779Y-80259664D01*
X144758264Y-80256671D01*
X144758088Y-80256232D01*
X144750630Y-80247340D01*
X144739979Y-80238845D01*
X144739038Y-80238256D01*
X144737439Y-80237360D01*
X144735478Y-80236532D01*
X144732831Y-80235768D01*
X144729174Y-80235066D01*
X144724185Y-80234424D01*
X144717540Y-80233838D01*
X144708915Y-80233306D01*
X144697987Y-80232825D01*
X144684432Y-80232393D01*
X144667927Y-80232006D01*
X144648148Y-80231663D01*
X144624772Y-80231359D01*
X144597475Y-80231094D01*
X144565934Y-80230863D01*
X144529825Y-80230664D01*
X144488824Y-80230495D01*
X144442609Y-80230353D01*
X144390856Y-80230235D01*
X144333240Y-80230138D01*
X144269439Y-80230060D01*
X144199130Y-80229998D01*
X144121988Y-80229949D01*
X144037690Y-80229911D01*
X143945912Y-80229880D01*
X143846332Y-80229854D01*
X143738625Y-80229831D01*
X143732834Y-80229830D01*
X143621421Y-80229800D01*
X143518186Y-80229756D01*
X143422837Y-80229697D01*
X143335085Y-80229620D01*
X143254639Y-80229524D01*
X143181209Y-80229407D01*
X143114506Y-80229268D01*
X143054240Y-80229106D01*
X143000119Y-80228917D01*
X142951855Y-80228702D01*
X142909158Y-80228457D01*
X142871736Y-80228182D01*
X142839301Y-80227875D01*
X142811562Y-80227533D01*
X142788229Y-80227156D01*
X142769012Y-80226742D01*
X142753621Y-80226290D01*
X142741766Y-80225796D01*
X142733157Y-80225261D01*
X142727503Y-80224681D01*
X142724561Y-80224073D01*
X142702739Y-80212727D01*
X142681975Y-80195621D01*
X142665199Y-80175256D01*
X142662802Y-80171392D01*
X142651217Y-80151684D01*
X142651217Y-79884983D01*
X142662976Y-79864980D01*
X142676900Y-79846554D01*
X142695092Y-79829781D01*
X142714833Y-79816868D01*
X142729648Y-79810869D01*
X142735762Y-79810381D01*
X142750325Y-79809930D01*
X142773318Y-79809517D01*
X142804724Y-79809143D01*
X142844525Y-79808805D01*
X142892702Y-79808506D01*
X142949238Y-79808245D01*
X143014114Y-79808022D01*
X143087313Y-79807837D01*
X143168816Y-79807691D01*
X143258607Y-79807582D01*
X143356665Y-79807512D01*
X143462975Y-79807480D01*
X143577517Y-79807486D01*
X142014057Y-80653334D02*
X142225767Y-80653334D01*
X142225767Y-80653334D02*
X142225743Y-81452375D01*
X142225743Y-81452375D02*
X142225717Y-81564574D01*
X142225717Y-81564574D02*
X142225647Y-81668338D01*
X142225647Y-81668338D02*
X142225531Y-81763701D01*
X142225531Y-81763701D02*
X142225371Y-81850695D01*
X142225371Y-81850695D02*
X142225165Y-81929351D01*
X142225165Y-81929351D02*
X142224913Y-81999703D01*
X142224913Y-81999703D02*
X142224616Y-82061783D01*
X142224616Y-82061783D02*
X142224273Y-82115623D01*
X142224273Y-82115623D02*
X142223884Y-82161256D01*
X142223884Y-82161256D02*
X142223449Y-82198713D01*
X142223449Y-82198713D02*
X142222967Y-82228028D01*
X142222967Y-82228028D02*
X142222439Y-82249234D01*
X142222439Y-82249234D02*
X142221864Y-82262361D01*
X142221864Y-82262361D02*
X142221340Y-82267185D01*
X142221340Y-82267185D02*
X142212218Y-82287516D01*
X142212218Y-82287516D02*
X142197067Y-82307787D01*
X142197067Y-82307787D02*
X142177953Y-82325458D01*
X142177953Y-82325458D02*
X142168814Y-82331759D01*
X142168814Y-82331759D02*
X142148137Y-82344550D01*
X142148137Y-82344550D02*
X142020794Y-82345540D01*
X142020794Y-82345540D02*
X141981575Y-82345752D01*
X141981575Y-82345752D02*
X141949977Y-82345696D01*
X141949977Y-82345696D02*
X141925157Y-82345344D01*
X141925157Y-82345344D02*
X141906272Y-82344669D01*
X141906272Y-82344669D02*
X141892480Y-82343642D01*
X141892480Y-82343642D02*
X141882938Y-82342237D01*
X141882938Y-82342237D02*
X141877894Y-82340857D01*
X141877894Y-82340857D02*
X141855802Y-82329231D01*
X141855802Y-82329231D02*
X141834893Y-82311870D01*
X141834893Y-82311870D02*
X141818138Y-82291312D01*
X141818138Y-82291312D02*
X141816136Y-82288058D01*
X141816136Y-82288058D02*
X141804550Y-82268350D01*
X141804550Y-82268350D02*
X141803449Y-81460842D01*
X141803449Y-81460842D02*
X141802348Y-80653333D01*
X141802348Y-80653333D02*
X142014057Y-80653334D01*
X142014057Y-80653334D02*
X142014057Y-80653334D01*
G36*
X142014057Y-80653334D02*
G01*
X142225767Y-80653334D01*
X142225743Y-81452375D01*
X142225717Y-81564574D01*
X142225647Y-81668338D01*
X142225531Y-81763701D01*
X142225371Y-81850695D01*
X142225165Y-81929351D01*
X142224913Y-81999703D01*
X142224616Y-82061783D01*
X142224273Y-82115623D01*
X142223884Y-82161256D01*
X142223449Y-82198713D01*
X142222967Y-82228028D01*
X142222439Y-82249234D01*
X142221864Y-82262361D01*
X142221340Y-82267185D01*
X142212218Y-82287516D01*
X142197067Y-82307787D01*
X142177953Y-82325458D01*
X142168814Y-82331759D01*
X142148137Y-82344550D01*
X142020794Y-82345540D01*
X141981575Y-82345752D01*
X141949977Y-82345696D01*
X141925157Y-82345344D01*
X141906272Y-82344669D01*
X141892480Y-82343642D01*
X141882938Y-82342237D01*
X141877894Y-82340857D01*
X141855802Y-82329231D01*
X141834893Y-82311870D01*
X141818138Y-82291312D01*
X141816136Y-82288058D01*
X141804550Y-82268350D01*
X141803449Y-81460842D01*
X141802348Y-80653333D01*
X142014057Y-80653334D01*
G37*
X142014057Y-80653334D02*
X142225767Y-80653334D01*
X142225743Y-81452375D01*
X142225717Y-81564574D01*
X142225647Y-81668338D01*
X142225531Y-81763701D01*
X142225371Y-81850695D01*
X142225165Y-81929351D01*
X142224913Y-81999703D01*
X142224616Y-82061783D01*
X142224273Y-82115623D01*
X142223884Y-82161256D01*
X142223449Y-82198713D01*
X142222967Y-82228028D01*
X142222439Y-82249234D01*
X142221864Y-82262361D01*
X142221340Y-82267185D01*
X142212218Y-82287516D01*
X142197067Y-82307787D01*
X142177953Y-82325458D01*
X142168814Y-82331759D01*
X142148137Y-82344550D01*
X142020794Y-82345540D01*
X141981575Y-82345752D01*
X141949977Y-82345696D01*
X141925157Y-82345344D01*
X141906272Y-82344669D01*
X141892480Y-82343642D01*
X141882938Y-82342237D01*
X141877894Y-82340857D01*
X141855802Y-82329231D01*
X141834893Y-82311870D01*
X141818138Y-82291312D01*
X141816136Y-82288058D01*
X141804550Y-82268350D01*
X141803449Y-81460842D01*
X141802348Y-80653333D01*
X142014057Y-80653334D01*
D10*
%TO.C,RV2*%
X148227500Y-98987258D02*
X148227500Y-98512742D01*
X149272500Y-98987258D02*
X149272500Y-98512742D01*
%TO.C,F1*%
X139363748Y-94710000D02*
X142136252Y-94710000D01*
X139363748Y-91290000D02*
X142136252Y-91290000D01*
%TO.C,RV1*%
X148227500Y-103087742D02*
X148227500Y-103562258D01*
X149272500Y-103087742D02*
X149272500Y-103562258D01*
%TO.C,R9*%
X165762742Y-108522500D02*
X166237258Y-108522500D01*
X165762742Y-107477500D02*
X166237258Y-107477500D01*
%TO.C,R7*%
X186762742Y-111977500D02*
X187237258Y-111977500D01*
X186762742Y-113022500D02*
X187237258Y-113022500D01*
%TO.C,R8*%
X139487258Y-111977500D02*
X139012742Y-111977500D01*
X139487258Y-113022500D02*
X139012742Y-113022500D01*
%TD*%
M02*
