M48
; DRILL file {KiCad 5.99.0-unknown-2a6c73b8df~142~ubuntu21.04.1} date Sun 24 Oct 2021 13:29:34 GMT
; FORMAT={-:-/ absolute / inch / decimal}
; #@! TF.CreationDate,2021-10-24T13:29:34+00:00
; #@! TF.GenerationSoftware,Kicad,Pcbnew,5.99.0-unknown-2a6c73b8df~142~ubuntu21.04.1
; #@! TF.FileFunction,Plated,1,2,PTH
FMAT,2
INCH
; #@! TA.AperFunction,Plated,PTH,ViaDrill
T1C0.0150
; #@! TA.AperFunction,Plated,PTH,ComponentDrill
T2C0.0197
; #@! TA.AperFunction,Plated,PTH,ComponentDrill
T3C0.0472
%
G90
G05
T1
X5.3642Y-4.2815
X5.5118Y-3.937
X5.5118Y-4.1339
X5.5748Y-3.937
X5.5827Y-4.0157
X5.5906Y-4.1339
X5.6102Y-4.626
X5.6102Y-4.8228
X5.622Y-3.9449
X5.7087Y-4.3307
X5.7087Y-4.5276
X5.7874Y-3.8661
X5.7874Y-3.9134
X5.7874Y-3.9597
X5.8071Y-4.2323
X5.8071Y-4.626
X5.8071Y-4.8228
X5.8563Y-3.7697
X5.9055Y-3.5433
X5.9055Y-3.9597
X5.9055Y-4.3307
X5.9055Y-4.5276
X5.9298Y-4.0093
X5.9685Y-3.3386
X6.0039Y-3.248
X6.0039Y-3.8189
X6.0039Y-4.1142
X6.0039Y-4.626
X6.0039Y-4.8228
X6.0079Y-4.4252
X6.1024Y-3.1496
X6.1024Y-4.1339
X6.1024Y-4.3307
X6.2008Y-3.248
X6.2008Y-4.0354
X6.2008Y-4.2323
X6.25Y-4.5276
X6.25Y-4.8031
X6.2992Y-3.1496
X6.2992Y-3.7402
X6.2992Y-4.1339
X6.2992Y-4.3307
X6.3189Y-4.7539
X6.3583Y-4.252
X6.3878Y-4.124
X6.3976Y-3.248
X6.3976Y-3.6417
X6.4843Y-4.0784
X6.4921Y-4.1811
X6.4961Y-3.1496
X6.4961Y-3.7402
X6.5709Y-3.8898
X6.5748Y-3.3386
X6.5945Y-3.248
X6.5945Y-3.6417
X6.6535Y-4.252
X6.6929Y-3.1496
X6.7323Y-4.5635
X6.7421Y-4.0256
X6.7441Y-4.063
X6.7441Y-4.1181
X6.7441Y-4.1575
X6.7441Y-4.1969
X6.7618Y-4.5276
X6.7913Y-4.8228
X6.8071Y-4.2126
X6.8898Y-3.5433
X6.8898Y-3.937
X6.8898Y-4.0354
X6.8898Y-4.7244
X6.9882Y-3.937
X6.9882Y-4.0354
X6.9882Y-4.626
X6.9882Y-4.8228
X6.998Y-3.75
X6.998Y-4.5276
X7.0669Y-3.8386
X7.0866Y-4.4291
X7.0866Y-4.7244
X7.1142Y-4.2441
X7.1614Y-4.063
X7.1614Y-4.2047
X7.185Y-4.5276
X7.185Y-4.626
X7.185Y-4.8228
X7.2244Y-4.0787
X7.2244Y-4.4291
X7.2559Y-4.1181
X7.2559Y-4.1575
X7.2835Y-3.5433
X7.2835Y-3.6417
X7.2835Y-3.7402
X7.2835Y-4.3307
X7.3819Y-3.5433
T3
X5.472Y-3.4276
X5.472Y-4.5276
X5.572Y-3.4276
X5.572Y-4.5276
X5.672Y-3.4276
X5.772Y-3.4276
X5.872Y-3.4276
X5.972Y-3.4276
X6.072Y-3.4276
X6.172Y-3.4276
X6.272Y-3.4276
X6.372Y-3.4276
X6.472Y-3.4276
X6.572Y-3.4276
X6.672Y-3.4276
X6.772Y-3.4276
X6.872Y-3.4276
X6.972Y-3.4276
X7.072Y-3.4276
X7.172Y-3.4276
X7.272Y-3.4276
X7.272Y-4.5276
X7.372Y-3.4276
X7.372Y-4.5276
T2
G00X5.4403Y-3.7991
M15
G01X5.4167Y-3.7991
M16
G05
G00X5.4403Y-4.1526
M15
G01X5.4167Y-4.1526
M16
G05
G00X5.6746Y-3.8133
M15
G01X5.6509Y-3.8133
M16
G05
G00X5.6746Y-4.1385
M15
G01X5.6509Y-4.1385
M16
G05
T0
M30
