%TF.GenerationSoftware,KiCad,Pcbnew,5.99.0-unknown-2a6c73b8df~142~ubuntu21.04.1*%
%TF.CreationDate,2021-10-24T13:29:38+00:00*%
%TF.ProjectId,wederian,77656465-7269-4616-9e2e-6b696361645f,rev?*%
%TF.SameCoordinates,Original*%
%TF.FileFunction,Copper,L2,Bot*%
%TF.FilePolarity,Positive*%
%FSLAX46Y46*%
G04 Gerber Fmt 4.6, Leading zero omitted, Abs format (unit mm)*
G04 Created by KiCad (PCBNEW 5.99.0-unknown-2a6c73b8df~142~ubuntu21.04.1) date 2021-10-24 13:29:38*
%MOMM*%
%LPD*%
G01*
G04 APERTURE LIST*
%TA.AperFunction,ComponentPad*%
%ADD10O,1.400000X0.800000*%
%TD*%
%TA.AperFunction,ComponentPad*%
%ADD11R,2.000000X2.000000*%
%TD*%
%TA.AperFunction,ComponentPad*%
%ADD12C,2.000000*%
%TD*%
%TA.AperFunction,ViaPad*%
%ADD13C,0.762000*%
%TD*%
%TA.AperFunction,Conductor*%
%ADD14C,0.762000*%
%TD*%
%TA.AperFunction,Conductor*%
%ADD15C,0.254000*%
%TD*%
G04 APERTURE END LIST*
D10*
%TO.P,J1,S1,SHIELD*%
%TO.N,GND*%
X137883674Y-96496680D03*
X137883674Y-105476680D03*
X143833674Y-96856680D03*
X143833674Y-105116680D03*
%TD*%
D11*
%TO.P,LCD1,1,A1*%
%TO.N,/LCD/A1*%
X187250000Y-115000000D03*
D12*
%TO.P,LCD1,2,C1*%
%TO.N,GND*%
X184710000Y-115000000D03*
%TO.P,LCD1,19,C2*%
X141530000Y-115000000D03*
%TO.P,LCD1,20,A2*%
%TO.N,/LCD/A2*%
X138990000Y-115000000D03*
%TO.P,LCD1,21,CAP1N*%
%TO.N,/LCD/CAP1N*%
X138990000Y-87060000D03*
%TO.P,LCD1,22,CAP1P*%
%TO.N,/LCD/CAP1P*%
X141530000Y-87060000D03*
%TO.P,LCD1,23,PSB*%
%TO.N,/Power Regulation/VOUT*%
X144070000Y-87060000D03*
%TO.P,LCD1,24,VOUT*%
%TO.N,/LCD/VOUT*%
X146610000Y-87060000D03*
%TO.P,LCD1,25,VIN*%
%TO.N,/Power Regulation/VOUT*%
X149150000Y-87060000D03*
%TO.P,LCD1,26,VDD*%
X151690000Y-87060000D03*
%TO.P,LCD1,27,VSS*%
%TO.N,GND*%
X154230000Y-87060000D03*
%TO.P,LCD1,28,D7/SI*%
%TO.N,/LCD/SCREEN_D7*%
X156770000Y-87060000D03*
%TO.P,LCD1,29,D6/CLK*%
%TO.N,/LCD/SCREEN_D6*%
X159310000Y-87060000D03*
%TO.P,LCD1,30,D5*%
%TO.N,/LCD/SCREEN_D5*%
X161850000Y-87060000D03*
%TO.P,LCD1,31,D4*%
%TO.N,/LCD/SCREEN_D4*%
X164390000Y-87060000D03*
%TO.P,LCD1,32,D3*%
%TO.N,/Power Regulation/VOUT*%
X166930000Y-87060000D03*
%TO.P,LCD1,33,D2*%
X169470000Y-87060000D03*
%TO.P,LCD1,34,D1*%
X172010000Y-87060000D03*
%TO.P,LCD1,35,D0*%
X174550000Y-87060000D03*
%TO.P,LCD1,36,E*%
%TO.N,/LCD/SCREEN_E*%
X177090000Y-87060000D03*
%TO.P,LCD1,37,R/W*%
%TO.N,/LCD/SCREEN_RW*%
X179630000Y-87060000D03*
%TO.P,LCD1,38,CSB*%
%TO.N,GND*%
X182170000Y-87060000D03*
%TO.P,LCD1,39,RS*%
%TO.N,/LCD/SCREEN_RS*%
X184710000Y-87060000D03*
%TO.P,LCD1,40,~{RESET}*%
%TO.N,/Power Regulation/VOUT*%
X187250000Y-87060000D03*
%TD*%
D13*
%TO.N,/Power Regulation/VOUT*%
X171750000Y-115000000D03*
X167000000Y-84800000D03*
X183500000Y-112500000D03*
X152500000Y-97000000D03*
X152600000Y-112400000D03*
X177750000Y-115000000D03*
X152500000Y-104500000D03*
X151600000Y-84800000D03*
X158750000Y-115000000D03*
X161500000Y-108000000D03*
%TO.N,GND*%
X165000000Y-80000000D03*
X167500000Y-92500000D03*
X177500000Y-117500000D03*
X183500000Y-103600000D03*
X140000000Y-105000000D03*
X167500000Y-82500000D03*
X155000000Y-80000000D03*
X182500000Y-115000000D03*
X175000000Y-90000000D03*
X140000000Y-100000000D03*
X172500000Y-122500000D03*
X177500000Y-100000000D03*
X142500000Y-122500000D03*
X150000000Y-110000000D03*
X160000000Y-80000000D03*
X147500000Y-122500000D03*
X145000000Y-115000000D03*
X170000000Y-80000000D03*
X155000000Y-110000000D03*
X171000000Y-115913900D03*
X182500000Y-122500000D03*
X166900000Y-98800000D03*
X162500000Y-92500000D03*
X180700000Y-107800000D03*
X152500000Y-117500000D03*
X158750000Y-122000000D03*
X179500000Y-97500000D03*
X169000000Y-108000000D03*
X160000000Y-105000000D03*
X145000000Y-110000000D03*
X175000000Y-100000000D03*
X150000000Y-115000000D03*
X185000000Y-110000000D03*
X162500000Y-82500000D03*
X185000000Y-95000000D03*
X160500000Y-120750000D03*
X152500000Y-82500000D03*
X147500000Y-117500000D03*
X182500000Y-117500000D03*
X187500000Y-90000000D03*
X150000000Y-90000000D03*
X172900000Y-107000000D03*
X164700000Y-103590100D03*
X157500000Y-82500000D03*
X147000000Y-98200000D03*
X155000000Y-105000000D03*
X175000000Y-102500000D03*
X177500000Y-122500000D03*
X165000000Y-95000000D03*
X180000000Y-112500000D03*
X171250000Y-102250000D03*
X177500000Y-102500000D03*
X180000000Y-120000000D03*
X142000000Y-105000000D03*
X157500000Y-102500000D03*
X147500000Y-107500000D03*
X185000000Y-90000000D03*
X160000000Y-110000000D03*
X157500000Y-107500000D03*
X142500000Y-117500000D03*
X185000000Y-92500000D03*
X177750000Y-95250000D03*
X160000000Y-95000000D03*
X164900000Y-106200000D03*
X175000000Y-120000000D03*
X152500000Y-122500000D03*
%TO.N,/Microcontroller/USB_VBUS*%
X148750000Y-95750000D03*
X162250000Y-104750000D03*
%TO.N,/USB/CC1*%
X147000000Y-99400000D03*
X136250000Y-108750000D03*
%TO.N,/USB/D+*%
X150000000Y-100576780D03*
X150616333Y-101835160D03*
X142800000Y-100200000D03*
X147000000Y-100576780D03*
%TO.N,/ICSP/RESET*%
X171300000Y-106600000D03*
X181900000Y-106800000D03*
%TO.N,/ICSP/SPI_SCK*%
X181900000Y-103200000D03*
X171300000Y-103200000D03*
%TO.N,/ICSP/SPI_MISO*%
X184300000Y-105600000D03*
X171300000Y-105600000D03*
%TO.N,/ICSP/SPI_MOSI*%
X184300000Y-104600000D03*
X171300000Y-104600000D03*
%TO.N,/USB/VBUS*%
X141800000Y-102000000D03*
X141600000Y-100000000D03*
%TD*%
D14*
%TO.N,/Power Regulation/VOUT*%
X162750000Y-109250000D02*
X161500000Y-108000000D01*
X152600000Y-114200000D02*
X153400000Y-115000000D01*
X153400000Y-115000000D02*
X158750000Y-115000000D01*
X162750000Y-115000000D02*
X162750000Y-109250000D01*
X152600000Y-112400000D02*
X152600000Y-114200000D01*
X151600000Y-84800000D02*
X167000000Y-84800000D01*
X181000000Y-115000000D02*
X183500000Y-112500000D01*
X162750000Y-115000000D02*
X181000000Y-115000000D01*
X152500000Y-97000000D02*
X152500000Y-104500000D01*
X158750000Y-115000000D02*
X162750000Y-115000000D01*
D15*
%TO.N,GND*%
X138243674Y-96856680D02*
X137883674Y-96496680D01*
D14*
%TO.N,/Microcontroller/USB_VBUS*%
X162250000Y-102250000D02*
X155750000Y-95750000D01*
X155750000Y-95750000D02*
X148750000Y-95750000D01*
X162250000Y-104750000D02*
X162250000Y-102250000D01*
D15*
%TO.N,/USB/CC1*%
X146440089Y-98840089D02*
X147000000Y-99400000D01*
X136250000Y-99017594D02*
X136427505Y-98840089D01*
X136427505Y-98840089D02*
X146440089Y-98840089D01*
X136250000Y-108750000D02*
X136250000Y-99017594D01*
%TO.N,/USB/D+*%
X150000000Y-100576780D02*
X150000000Y-101218827D01*
X150000000Y-101218827D02*
X150616333Y-101835160D01*
X142800000Y-100200000D02*
X146623220Y-100200000D01*
X146623220Y-100200000D02*
X147000000Y-100576780D01*
%TO.N,/ICSP/RESET*%
X171300000Y-106600000D02*
X171894080Y-106005920D01*
X181105920Y-106005920D02*
X181900000Y-106800000D01*
X171894080Y-106005920D02*
X181105920Y-106005920D01*
%TO.N,/ICSP/SPI_SCK*%
X171300000Y-103200000D02*
X181900000Y-103200000D01*
%TO.N,/ICSP/SPI_MISO*%
X171300000Y-105600000D02*
X184300000Y-105600000D01*
%TO.N,/ICSP/SPI_MOSI*%
X171300000Y-104600000D02*
X184300000Y-104600000D01*
D14*
%TO.N,/USB/VBUS*%
X141600000Y-100000000D02*
X141600000Y-101800000D01*
X141600000Y-101800000D02*
X141800000Y-102000000D01*
%TD*%
%TA.AperFunction,Conductor*%
%TO.N,GND*%
G36*
X190434121Y-78528002D02*
G01*
X190480614Y-78581658D01*
X190492000Y-78634000D01*
X190492000Y-123366000D01*
X190471998Y-123434121D01*
X190418342Y-123480614D01*
X190366000Y-123492000D01*
X135634000Y-123492000D01*
X135565879Y-123471998D01*
X135519386Y-123418342D01*
X135508000Y-123366000D01*
X135508000Y-120478924D01*
X136487418Y-120478924D01*
X136487835Y-120486150D01*
X136503179Y-120752257D01*
X136504004Y-120756462D01*
X136504005Y-120756470D01*
X136532848Y-120903483D01*
X136555889Y-121020923D01*
X136557276Y-121024974D01*
X136575275Y-121077544D01*
X136644573Y-121279950D01*
X136646499Y-121283779D01*
X136709495Y-121409032D01*
X136767591Y-121524544D01*
X136770017Y-121528073D01*
X136770020Y-121528079D01*
X136804642Y-121578454D01*
X136922666Y-121750179D01*
X137106929Y-121952681D01*
X137316969Y-122128302D01*
X137548901Y-122273792D01*
X137552803Y-122275554D01*
X137552807Y-122275556D01*
X137794520Y-122384694D01*
X137794524Y-122384696D01*
X137798432Y-122386460D01*
X137802551Y-122387680D01*
X138056832Y-122463002D01*
X138056837Y-122463003D01*
X138060945Y-122464220D01*
X138065179Y-122464868D01*
X138065184Y-122464869D01*
X138327340Y-122504984D01*
X138327342Y-122504984D01*
X138331582Y-122505633D01*
X138470913Y-122507822D01*
X138601045Y-122509867D01*
X138601051Y-122509867D01*
X138605336Y-122509934D01*
X138877141Y-122477042D01*
X139141967Y-122407566D01*
X139394914Y-122302792D01*
X139631301Y-122164658D01*
X139846754Y-121995722D01*
X139891539Y-121949508D01*
X140034303Y-121802186D01*
X140037286Y-121799108D01*
X140039819Y-121795660D01*
X140039823Y-121795655D01*
X140196834Y-121581909D01*
X140199372Y-121578454D01*
X140201418Y-121574686D01*
X140327962Y-121341621D01*
X140327963Y-121341619D01*
X140330012Y-121337845D01*
X140426789Y-121081732D01*
X140487912Y-120814854D01*
X140500031Y-120679075D01*
X140512031Y-120544616D01*
X140512251Y-120542151D01*
X140512692Y-120500000D01*
X140511255Y-120478924D01*
X185487418Y-120478924D01*
X185487835Y-120486150D01*
X185503179Y-120752257D01*
X185504004Y-120756462D01*
X185504005Y-120756470D01*
X185532848Y-120903483D01*
X185555889Y-121020923D01*
X185557276Y-121024974D01*
X185575275Y-121077544D01*
X185644573Y-121279950D01*
X185646499Y-121283779D01*
X185709495Y-121409032D01*
X185767591Y-121524544D01*
X185770017Y-121528073D01*
X185770020Y-121528079D01*
X185804642Y-121578454D01*
X185922666Y-121750179D01*
X186106929Y-121952681D01*
X186316969Y-122128302D01*
X186548901Y-122273792D01*
X186552803Y-122275554D01*
X186552807Y-122275556D01*
X186794520Y-122384694D01*
X186794524Y-122384696D01*
X186798432Y-122386460D01*
X186802551Y-122387680D01*
X187056832Y-122463002D01*
X187056837Y-122463003D01*
X187060945Y-122464220D01*
X187065179Y-122464868D01*
X187065184Y-122464869D01*
X187327340Y-122504984D01*
X187327342Y-122504984D01*
X187331582Y-122505633D01*
X187470913Y-122507822D01*
X187601045Y-122509867D01*
X187601051Y-122509867D01*
X187605336Y-122509934D01*
X187877141Y-122477042D01*
X188141967Y-122407566D01*
X188394914Y-122302792D01*
X188631301Y-122164658D01*
X188846754Y-121995722D01*
X188891539Y-121949508D01*
X189034303Y-121802186D01*
X189037286Y-121799108D01*
X189039819Y-121795660D01*
X189039823Y-121795655D01*
X189196834Y-121581909D01*
X189199372Y-121578454D01*
X189201418Y-121574686D01*
X189327962Y-121341621D01*
X189327963Y-121341619D01*
X189330012Y-121337845D01*
X189426789Y-121081732D01*
X189487912Y-120814854D01*
X189500031Y-120679075D01*
X189512031Y-120544616D01*
X189512251Y-120542151D01*
X189512692Y-120500000D01*
X189510964Y-120474653D01*
X189494362Y-120231123D01*
X189494361Y-120231117D01*
X189494070Y-120226846D01*
X189438550Y-119958747D01*
X189347157Y-119700664D01*
X189339277Y-119685395D01*
X189223550Y-119461178D01*
X189223549Y-119461177D01*
X189221585Y-119457371D01*
X189219122Y-119453866D01*
X189066619Y-119236877D01*
X189066614Y-119236871D01*
X189064155Y-119233372D01*
X188877782Y-119032811D01*
X188874466Y-119030097D01*
X188874463Y-119030094D01*
X188669233Y-118862114D01*
X188669226Y-118862109D01*
X188665915Y-118859399D01*
X188432472Y-118716345D01*
X188428555Y-118714626D01*
X188428552Y-118714624D01*
X188318232Y-118666197D01*
X188181775Y-118606297D01*
X188177647Y-118605121D01*
X188177644Y-118605120D01*
X188096557Y-118582022D01*
X187918462Y-118531290D01*
X187914220Y-118530686D01*
X187914214Y-118530685D01*
X187715596Y-118502418D01*
X187647406Y-118492713D01*
X187503671Y-118491961D01*
X187377908Y-118491302D01*
X187377902Y-118491302D01*
X187373622Y-118491280D01*
X187369378Y-118491839D01*
X187369374Y-118491839D01*
X187250397Y-118507503D01*
X187102177Y-118527016D01*
X187098037Y-118528149D01*
X187098035Y-118528149D01*
X187082251Y-118532467D01*
X186838093Y-118599261D01*
X186586257Y-118706678D01*
X186351329Y-118847280D01*
X186347978Y-118849964D01*
X186347976Y-118849966D01*
X186336202Y-118859399D01*
X186137657Y-119018463D01*
X185949194Y-119217062D01*
X185789428Y-119439400D01*
X185661314Y-119681364D01*
X185567225Y-119938477D01*
X185508899Y-120205980D01*
X185487418Y-120478924D01*
X140511255Y-120478924D01*
X140510964Y-120474653D01*
X140494362Y-120231123D01*
X140494361Y-120231117D01*
X140494070Y-120226846D01*
X140438550Y-119958747D01*
X140347157Y-119700664D01*
X140339277Y-119685395D01*
X140223550Y-119461178D01*
X140223549Y-119461177D01*
X140221585Y-119457371D01*
X140219122Y-119453866D01*
X140066619Y-119236877D01*
X140066614Y-119236871D01*
X140064155Y-119233372D01*
X139877782Y-119032811D01*
X139874466Y-119030097D01*
X139874463Y-119030094D01*
X139669233Y-118862114D01*
X139669226Y-118862109D01*
X139665915Y-118859399D01*
X139432472Y-118716345D01*
X139428555Y-118714626D01*
X139428552Y-118714624D01*
X139318232Y-118666197D01*
X139181775Y-118606297D01*
X139177647Y-118605121D01*
X139177644Y-118605120D01*
X139096557Y-118582022D01*
X138918462Y-118531290D01*
X138914220Y-118530686D01*
X138914214Y-118530685D01*
X138715596Y-118502418D01*
X138647406Y-118492713D01*
X138503671Y-118491961D01*
X138377908Y-118491302D01*
X138377902Y-118491302D01*
X138373622Y-118491280D01*
X138369378Y-118491839D01*
X138369374Y-118491839D01*
X138250397Y-118507503D01*
X138102177Y-118527016D01*
X138098037Y-118528149D01*
X138098035Y-118528149D01*
X138082251Y-118532467D01*
X137838093Y-118599261D01*
X137586257Y-118706678D01*
X137351329Y-118847280D01*
X137347978Y-118849964D01*
X137347976Y-118849966D01*
X137336202Y-118859399D01*
X137137657Y-119018463D01*
X136949194Y-119217062D01*
X136789428Y-119439400D01*
X136661314Y-119681364D01*
X136567225Y-119938477D01*
X136508899Y-120205980D01*
X136487418Y-120478924D01*
X135508000Y-120478924D01*
X135508000Y-115000000D01*
X137476835Y-115000000D01*
X137495465Y-115236711D01*
X137550895Y-115467594D01*
X137552788Y-115472165D01*
X137552789Y-115472167D01*
X137639772Y-115682163D01*
X137641760Y-115686963D01*
X137644346Y-115691183D01*
X137763241Y-115885202D01*
X137763245Y-115885208D01*
X137765824Y-115889416D01*
X137920031Y-116069969D01*
X138100584Y-116224176D01*
X138104792Y-116226755D01*
X138104798Y-116226759D01*
X138298084Y-116345205D01*
X138303037Y-116348240D01*
X138307607Y-116350133D01*
X138307611Y-116350135D01*
X138517833Y-116437211D01*
X138522406Y-116439105D01*
X138570349Y-116450615D01*
X138748476Y-116493380D01*
X138748482Y-116493381D01*
X138753289Y-116494535D01*
X138990000Y-116513165D01*
X139226711Y-116494535D01*
X139231518Y-116493381D01*
X139231524Y-116493380D01*
X139409651Y-116450615D01*
X139457594Y-116439105D01*
X139462167Y-116437211D01*
X139672389Y-116350135D01*
X139672393Y-116350133D01*
X139676963Y-116348240D01*
X139681916Y-116345205D01*
X139865556Y-116232670D01*
X140662160Y-116232670D01*
X140667887Y-116240320D01*
X140839042Y-116345205D01*
X140847837Y-116349687D01*
X141057988Y-116436734D01*
X141067373Y-116439783D01*
X141288554Y-116492885D01*
X141298301Y-116494428D01*
X141525070Y-116512275D01*
X141534930Y-116512275D01*
X141761699Y-116494428D01*
X141771446Y-116492885D01*
X141992627Y-116439783D01*
X142002012Y-116436734D01*
X142212163Y-116349687D01*
X142220958Y-116345205D01*
X142388445Y-116242568D01*
X142397907Y-116232110D01*
X142394124Y-116223334D01*
X141542812Y-115372022D01*
X141528868Y-115364408D01*
X141527035Y-115364539D01*
X141520420Y-115368790D01*
X140668920Y-116220290D01*
X140662160Y-116232670D01*
X139865556Y-116232670D01*
X139875202Y-116226759D01*
X139875208Y-116226755D01*
X139879416Y-116224176D01*
X140059969Y-116069969D01*
X140063177Y-116066213D01*
X140063182Y-116066208D01*
X140193706Y-115913384D01*
X140253156Y-115874574D01*
X140287558Y-115872360D01*
X140306667Y-115864123D01*
X141157978Y-115012812D01*
X141164356Y-115001132D01*
X141894408Y-115001132D01*
X141894539Y-115002965D01*
X141898790Y-115009580D01*
X142750290Y-115861080D01*
X142762670Y-115867840D01*
X142770320Y-115862113D01*
X142875205Y-115690958D01*
X142879687Y-115682163D01*
X142966734Y-115472012D01*
X142969783Y-115462627D01*
X143022885Y-115241446D01*
X143024428Y-115231699D01*
X143042275Y-115004930D01*
X143042275Y-114995070D01*
X143024428Y-114768301D01*
X143022885Y-114758554D01*
X142969783Y-114537373D01*
X142966734Y-114527988D01*
X142879687Y-114317837D01*
X142875205Y-114309042D01*
X142772568Y-114141555D01*
X142762110Y-114132093D01*
X142753334Y-114135876D01*
X141902022Y-114987188D01*
X141894408Y-115001132D01*
X141164356Y-115001132D01*
X141165592Y-114998868D01*
X141165461Y-114997035D01*
X141161210Y-114990420D01*
X140309710Y-114138920D01*
X140292898Y-114129740D01*
X140229650Y-114115980D01*
X140194225Y-114087224D01*
X140063177Y-113933787D01*
X140059969Y-113930031D01*
X139879416Y-113775824D01*
X139875208Y-113773245D01*
X139875202Y-113773241D01*
X139866470Y-113767890D01*
X140662093Y-113767890D01*
X140665876Y-113776666D01*
X141517188Y-114627978D01*
X141531132Y-114635592D01*
X141532965Y-114635461D01*
X141539580Y-114631210D01*
X142391080Y-113779710D01*
X142397840Y-113767330D01*
X142392113Y-113759680D01*
X142220958Y-113654795D01*
X142212163Y-113650313D01*
X142002012Y-113563266D01*
X141992627Y-113560217D01*
X141771446Y-113507115D01*
X141761699Y-113505572D01*
X141534930Y-113487725D01*
X141525070Y-113487725D01*
X141298301Y-113505572D01*
X141288554Y-113507115D01*
X141067373Y-113560217D01*
X141057988Y-113563266D01*
X140847837Y-113650313D01*
X140839042Y-113654795D01*
X140671555Y-113757432D01*
X140662093Y-113767890D01*
X139866470Y-113767890D01*
X139681183Y-113654346D01*
X139676963Y-113651760D01*
X139672393Y-113649867D01*
X139672389Y-113649865D01*
X139462167Y-113562789D01*
X139462165Y-113562788D01*
X139457594Y-113560895D01*
X139377391Y-113541640D01*
X139231524Y-113506620D01*
X139231518Y-113506619D01*
X139226711Y-113505465D01*
X138990000Y-113486835D01*
X138753289Y-113505465D01*
X138748482Y-113506619D01*
X138748476Y-113506620D01*
X138602609Y-113541640D01*
X138522406Y-113560895D01*
X138517835Y-113562788D01*
X138517833Y-113562789D01*
X138307611Y-113649865D01*
X138307607Y-113649867D01*
X138303037Y-113651760D01*
X138298817Y-113654346D01*
X138104798Y-113773241D01*
X138104792Y-113773245D01*
X138100584Y-113775824D01*
X137920031Y-113930031D01*
X137765824Y-114110584D01*
X137763245Y-114114792D01*
X137763241Y-114114798D01*
X137644346Y-114308817D01*
X137641760Y-114313037D01*
X137639867Y-114317607D01*
X137639865Y-114317611D01*
X137553380Y-114526406D01*
X137550895Y-114532406D01*
X137549740Y-114537218D01*
X137503485Y-114729885D01*
X137495465Y-114763289D01*
X137476835Y-115000000D01*
X135508000Y-115000000D01*
X135508000Y-112400000D01*
X151705600Y-112400000D01*
X151706290Y-112406565D01*
X151709810Y-112440055D01*
X151710500Y-112453226D01*
X151710500Y-114120075D01*
X151708949Y-114139785D01*
X151706826Y-114153190D01*
X151707171Y-114159778D01*
X151707171Y-114159782D01*
X151710327Y-114219999D01*
X151710500Y-114226593D01*
X151710500Y-114246620D01*
X151710844Y-114249891D01*
X151710844Y-114249895D01*
X151712593Y-114266539D01*
X151713110Y-114273113D01*
X151715202Y-114313037D01*
X151716611Y-114339915D01*
X151718320Y-114346292D01*
X151718320Y-114346293D01*
X151720124Y-114353023D01*
X151723728Y-114372470D01*
X151725145Y-114385956D01*
X151727187Y-114392240D01*
X151745818Y-114449582D01*
X151747691Y-114455906D01*
X151765006Y-114520524D01*
X151771167Y-114532616D01*
X151778730Y-114550875D01*
X151782925Y-114563785D01*
X151813057Y-114615975D01*
X151816376Y-114621724D01*
X151819523Y-114627520D01*
X151849893Y-114687125D01*
X151858432Y-114697670D01*
X151869625Y-114713955D01*
X151873116Y-114720002D01*
X151873119Y-114720005D01*
X151876415Y-114725715D01*
X151880827Y-114730615D01*
X151880830Y-114730619D01*
X151921175Y-114775425D01*
X151925463Y-114780446D01*
X151938063Y-114796006D01*
X151952210Y-114810153D01*
X151956751Y-114814937D01*
X152001530Y-114864669D01*
X152012518Y-114872652D01*
X152027546Y-114885489D01*
X152714511Y-115572454D01*
X152727348Y-115587482D01*
X152735331Y-115598470D01*
X152740233Y-115602883D01*
X152740234Y-115602885D01*
X152785063Y-115643249D01*
X152789847Y-115647790D01*
X152803994Y-115661937D01*
X152806559Y-115664014D01*
X152819554Y-115674537D01*
X152824575Y-115678825D01*
X152869381Y-115719170D01*
X152869385Y-115719173D01*
X152874285Y-115723585D01*
X152879995Y-115726881D01*
X152879998Y-115726884D01*
X152886045Y-115730375D01*
X152902330Y-115741568D01*
X152912875Y-115750107D01*
X152972480Y-115780477D01*
X152978276Y-115783624D01*
X153036215Y-115817075D01*
X153049125Y-115821270D01*
X153067384Y-115828833D01*
X153079476Y-115834994D01*
X153136641Y-115850312D01*
X153144094Y-115852309D01*
X153150419Y-115854182D01*
X153214044Y-115874855D01*
X153220611Y-115875545D01*
X153220615Y-115875546D01*
X153226288Y-115876142D01*
X153227530Y-115876272D01*
X153246972Y-115879875D01*
X153260085Y-115883389D01*
X153266682Y-115883735D01*
X153266684Y-115883735D01*
X153326887Y-115886890D01*
X153333461Y-115887407D01*
X153350105Y-115889156D01*
X153350109Y-115889156D01*
X153353380Y-115889500D01*
X153373407Y-115889500D01*
X153380001Y-115889673D01*
X153440218Y-115892829D01*
X153440222Y-115892829D01*
X153446810Y-115893174D01*
X153453325Y-115892142D01*
X153453327Y-115892142D01*
X153460214Y-115891051D01*
X153479925Y-115889500D01*
X180920075Y-115889500D01*
X180939786Y-115891051D01*
X180946673Y-115892142D01*
X180946675Y-115892142D01*
X180953190Y-115893174D01*
X180959778Y-115892829D01*
X180959782Y-115892829D01*
X181019999Y-115889673D01*
X181026593Y-115889500D01*
X181046620Y-115889500D01*
X181049891Y-115889156D01*
X181049895Y-115889156D01*
X181066539Y-115887407D01*
X181073113Y-115886890D01*
X181133316Y-115883735D01*
X181133318Y-115883735D01*
X181139915Y-115883389D01*
X181153028Y-115879875D01*
X181172470Y-115876272D01*
X181173712Y-115876142D01*
X181179385Y-115875546D01*
X181179389Y-115875545D01*
X181185956Y-115874855D01*
X181249581Y-115854182D01*
X181255906Y-115852309D01*
X181263359Y-115850312D01*
X181320524Y-115834994D01*
X181332616Y-115828833D01*
X181350875Y-115821270D01*
X181363785Y-115817075D01*
X181421724Y-115783624D01*
X181427520Y-115780477D01*
X181487125Y-115750107D01*
X181497670Y-115741568D01*
X181513955Y-115730375D01*
X181520002Y-115726884D01*
X181520005Y-115726881D01*
X181525715Y-115723585D01*
X181530615Y-115719173D01*
X181530619Y-115719170D01*
X181575425Y-115678825D01*
X181580446Y-115674537D01*
X181593441Y-115664014D01*
X181596006Y-115661937D01*
X181610153Y-115647790D01*
X181614937Y-115643249D01*
X181659766Y-115602885D01*
X181659767Y-115602883D01*
X181664669Y-115598470D01*
X181672652Y-115587482D01*
X181685489Y-115572454D01*
X183270250Y-113987693D01*
X183332562Y-113953667D01*
X183403377Y-113958732D01*
X183460213Y-114001279D01*
X183485024Y-114067799D01*
X183466778Y-114142623D01*
X183364790Y-114309052D01*
X183360313Y-114317837D01*
X183273266Y-114527988D01*
X183270217Y-114537373D01*
X183217115Y-114758554D01*
X183215572Y-114768301D01*
X183197725Y-114995070D01*
X183197725Y-115004930D01*
X183215572Y-115231699D01*
X183217115Y-115241446D01*
X183270217Y-115462627D01*
X183273266Y-115472012D01*
X183360313Y-115682163D01*
X183364795Y-115690958D01*
X183467432Y-115858445D01*
X183477890Y-115867907D01*
X183486666Y-115864124D01*
X184620905Y-114729885D01*
X184683217Y-114695859D01*
X184754032Y-114700924D01*
X184799095Y-114729885D01*
X184980115Y-114910905D01*
X185014141Y-114973217D01*
X185009076Y-115044032D01*
X184980115Y-115089095D01*
X183848920Y-116220290D01*
X183842160Y-116232670D01*
X183847887Y-116240320D01*
X184019042Y-116345205D01*
X184027837Y-116349687D01*
X184237988Y-116436734D01*
X184247373Y-116439783D01*
X184468554Y-116492885D01*
X184478301Y-116494428D01*
X184705070Y-116512275D01*
X184714930Y-116512275D01*
X184941699Y-116494428D01*
X184951446Y-116492885D01*
X185172627Y-116439783D01*
X185182012Y-116436734D01*
X185392163Y-116349687D01*
X185400958Y-116345205D01*
X185594899Y-116226357D01*
X185602883Y-116220557D01*
X185610114Y-116214381D01*
X185674904Y-116185349D01*
X185745104Y-116195953D01*
X185797688Y-116242177D01*
X185799385Y-116246705D01*
X185804770Y-116253890D01*
X185804771Y-116253891D01*
X185886739Y-116363261D01*
X186003295Y-116450615D01*
X186139684Y-116501745D01*
X186201866Y-116508500D01*
X188298134Y-116508500D01*
X188360316Y-116501745D01*
X188496705Y-116450615D01*
X188613261Y-116363261D01*
X188700615Y-116246705D01*
X188751745Y-116110316D01*
X188758500Y-116048134D01*
X188758500Y-113951866D01*
X188751745Y-113889684D01*
X188700615Y-113753295D01*
X188613261Y-113636739D01*
X188496705Y-113549385D01*
X188360316Y-113498255D01*
X188298134Y-113491500D01*
X186201866Y-113491500D01*
X186139684Y-113498255D01*
X186003295Y-113549385D01*
X185886739Y-113636739D01*
X185881358Y-113643919D01*
X185804771Y-113746108D01*
X185804770Y-113746110D01*
X185799385Y-113753295D01*
X185799327Y-113753450D01*
X185752209Y-113800463D01*
X185682818Y-113815478D01*
X185616325Y-113790594D01*
X185610114Y-113785619D01*
X185602883Y-113779443D01*
X185594899Y-113773643D01*
X185400958Y-113654795D01*
X185392163Y-113650313D01*
X185182012Y-113563266D01*
X185172627Y-113560217D01*
X184951446Y-113507115D01*
X184941699Y-113505572D01*
X184714930Y-113487725D01*
X184705070Y-113487725D01*
X184478301Y-113505572D01*
X184468554Y-113507115D01*
X184247373Y-113560217D01*
X184237988Y-113563266D01*
X184027837Y-113650313D01*
X184019052Y-113654790D01*
X183852623Y-113756778D01*
X183784090Y-113775316D01*
X183716413Y-113753860D01*
X183671080Y-113699221D01*
X183662483Y-113628746D01*
X183697693Y-113560250D01*
X184072454Y-113185489D01*
X184087482Y-113172652D01*
X184098470Y-113164669D01*
X184143249Y-113114937D01*
X184147790Y-113110153D01*
X184161937Y-113096006D01*
X184174537Y-113080446D01*
X184178825Y-113075425D01*
X184219170Y-113030619D01*
X184219173Y-113030615D01*
X184223585Y-113025715D01*
X184226881Y-113020005D01*
X184226884Y-113020002D01*
X184230375Y-113013955D01*
X184241568Y-112997670D01*
X184245950Y-112992258D01*
X184250107Y-112987125D01*
X184280477Y-112927520D01*
X184283624Y-112921724D01*
X184286943Y-112915975D01*
X184317075Y-112863785D01*
X184321270Y-112850875D01*
X184328833Y-112832616D01*
X184334994Y-112820524D01*
X184352309Y-112755906D01*
X184354182Y-112749582D01*
X184372813Y-112692240D01*
X184374855Y-112685956D01*
X184376272Y-112672470D01*
X184379876Y-112653023D01*
X184381680Y-112646293D01*
X184381680Y-112646292D01*
X184383389Y-112639915D01*
X184386890Y-112573113D01*
X184387407Y-112566538D01*
X184393710Y-112506566D01*
X184393710Y-112506565D01*
X184394400Y-112500000D01*
X184392981Y-112486499D01*
X184392464Y-112466735D01*
X184393174Y-112453190D01*
X184382706Y-112387094D01*
X184381848Y-112380578D01*
X184375545Y-112320605D01*
X184375544Y-112320602D01*
X184374855Y-112314044D01*
X184372817Y-112307773D01*
X184372815Y-112307762D01*
X184370663Y-112301140D01*
X184366048Y-112281917D01*
X184364959Y-112275040D01*
X184364956Y-112275030D01*
X184363924Y-112268512D01*
X184339952Y-112206062D01*
X184337750Y-112199845D01*
X184319116Y-112142496D01*
X184319115Y-112142495D01*
X184317075Y-112136215D01*
X184310291Y-112124465D01*
X184301779Y-112106618D01*
X184299285Y-112100121D01*
X184299282Y-112100116D01*
X184296916Y-112093951D01*
X184260480Y-112037844D01*
X184257034Y-112032220D01*
X184226886Y-111980002D01*
X184226885Y-111980000D01*
X184223585Y-111974285D01*
X184214502Y-111964197D01*
X184202469Y-111948515D01*
X184198674Y-111942671D01*
X184198672Y-111942669D01*
X184195079Y-111937136D01*
X184147790Y-111889847D01*
X184143249Y-111885063D01*
X184102885Y-111840234D01*
X184102883Y-111840233D01*
X184098470Y-111835331D01*
X184087482Y-111827348D01*
X184072454Y-111814511D01*
X184062864Y-111804921D01*
X184057324Y-111801323D01*
X184006763Y-111768488D01*
X184001328Y-111764753D01*
X183967580Y-111740234D01*
X183947200Y-111725427D01*
X183934803Y-111719908D01*
X183917429Y-111710474D01*
X183911590Y-111706682D01*
X183911588Y-111706681D01*
X183906049Y-111703084D01*
X183899884Y-111700717D01*
X183899881Y-111700716D01*
X183843599Y-111679112D01*
X183837503Y-111676587D01*
X183782421Y-111652062D01*
X183782417Y-111652061D01*
X183776385Y-111649375D01*
X183769921Y-111648001D01*
X183769918Y-111648000D01*
X183763112Y-111646553D01*
X183744165Y-111640941D01*
X183737657Y-111638443D01*
X183737648Y-111638441D01*
X183731488Y-111636076D01*
X183665403Y-111625609D01*
X183658927Y-111624409D01*
X183593490Y-111610500D01*
X183579925Y-111610500D01*
X183560214Y-111608949D01*
X183553327Y-111607858D01*
X183553325Y-111607858D01*
X183546810Y-111606826D01*
X183540222Y-111607171D01*
X183540218Y-111607171D01*
X183480001Y-111610327D01*
X183473407Y-111610500D01*
X183406510Y-111610500D01*
X183393241Y-111613321D01*
X183373639Y-111615901D01*
X183360085Y-111616611D01*
X183353713Y-111618318D01*
X183353709Y-111618319D01*
X183295462Y-111633926D01*
X183289050Y-111635465D01*
X183230083Y-111647999D01*
X183230073Y-111648002D01*
X183223615Y-111649375D01*
X183217582Y-111652061D01*
X183217579Y-111652062D01*
X183211214Y-111654896D01*
X183192584Y-111661493D01*
X183185859Y-111663295D01*
X183185854Y-111663297D01*
X183179476Y-111665006D01*
X183119864Y-111695379D01*
X183113928Y-111698211D01*
X183058831Y-111722742D01*
X183052800Y-111725427D01*
X183047463Y-111729305D01*
X183047457Y-111729308D01*
X183041818Y-111733405D01*
X183024968Y-111743731D01*
X183012875Y-111749893D01*
X182960876Y-111792000D01*
X182955655Y-111796006D01*
X182906873Y-111831448D01*
X182906867Y-111831453D01*
X182901530Y-111835331D01*
X182897113Y-111840237D01*
X182856751Y-111885063D01*
X182852210Y-111889847D01*
X180668462Y-114073595D01*
X180606150Y-114107621D01*
X180579367Y-114110500D01*
X163765500Y-114110500D01*
X163697379Y-114090498D01*
X163650886Y-114036842D01*
X163639500Y-113984500D01*
X163639500Y-109329925D01*
X163641051Y-109310214D01*
X163642142Y-109303327D01*
X163642142Y-109303325D01*
X163643174Y-109296810D01*
X163639673Y-109230001D01*
X163639500Y-109223407D01*
X163639500Y-109203380D01*
X163637407Y-109183461D01*
X163636890Y-109176887D01*
X163633735Y-109116684D01*
X163633735Y-109116682D01*
X163633389Y-109110085D01*
X163629875Y-109096972D01*
X163626272Y-109077529D01*
X163625546Y-109070615D01*
X163625545Y-109070611D01*
X163624855Y-109064044D01*
X163604182Y-109000418D01*
X163602309Y-108994094D01*
X163586704Y-108935859D01*
X163584994Y-108929476D01*
X163578833Y-108917384D01*
X163571269Y-108899123D01*
X163569116Y-108892497D01*
X163567075Y-108886215D01*
X163533624Y-108828276D01*
X163530477Y-108822480D01*
X163500107Y-108762875D01*
X163491568Y-108752330D01*
X163480375Y-108736045D01*
X163476884Y-108729998D01*
X163476881Y-108729995D01*
X163473585Y-108724285D01*
X163469173Y-108719385D01*
X163469170Y-108719381D01*
X163428825Y-108674575D01*
X163424537Y-108669554D01*
X163414014Y-108656559D01*
X163411937Y-108653994D01*
X163397790Y-108639847D01*
X163393249Y-108635063D01*
X163352885Y-108590234D01*
X163352883Y-108590233D01*
X163348470Y-108585331D01*
X163337482Y-108577348D01*
X163322454Y-108564511D01*
X162147790Y-107389847D01*
X162143249Y-107385063D01*
X162102887Y-107340237D01*
X162098470Y-107335331D01*
X162093133Y-107331453D01*
X162093127Y-107331448D01*
X162044345Y-107296006D01*
X162039124Y-107292000D01*
X161987125Y-107249893D01*
X161975032Y-107243731D01*
X161958182Y-107233405D01*
X161952543Y-107229308D01*
X161952537Y-107229305D01*
X161947200Y-107225427D01*
X161941170Y-107222742D01*
X161886072Y-107198211D01*
X161880136Y-107195379D01*
X161820524Y-107165006D01*
X161814146Y-107163297D01*
X161814141Y-107163295D01*
X161807416Y-107161493D01*
X161788786Y-107154896D01*
X161782421Y-107152062D01*
X161782418Y-107152061D01*
X161776385Y-107149375D01*
X161769927Y-107148002D01*
X161769917Y-107147999D01*
X161710950Y-107135465D01*
X161704538Y-107133926D01*
X161646291Y-107118319D01*
X161646287Y-107118318D01*
X161639915Y-107116611D01*
X161626361Y-107115901D01*
X161606759Y-107113321D01*
X161593490Y-107110500D01*
X161526593Y-107110500D01*
X161519999Y-107110327D01*
X161459782Y-107107171D01*
X161459778Y-107107171D01*
X161453190Y-107106826D01*
X161446675Y-107107858D01*
X161446673Y-107107858D01*
X161439786Y-107108949D01*
X161420075Y-107110500D01*
X161406510Y-107110500D01*
X161341073Y-107124409D01*
X161334597Y-107125609D01*
X161268512Y-107136076D01*
X161262352Y-107138441D01*
X161262343Y-107138443D01*
X161255835Y-107140941D01*
X161236888Y-107146553D01*
X161230082Y-107148000D01*
X161230079Y-107148001D01*
X161223615Y-107149375D01*
X161217583Y-107152061D01*
X161217579Y-107152062D01*
X161162497Y-107176587D01*
X161156401Y-107179112D01*
X161100119Y-107200716D01*
X161100116Y-107200717D01*
X161093951Y-107203084D01*
X161088412Y-107206681D01*
X161088410Y-107206682D01*
X161082571Y-107210474D01*
X161065197Y-107219908D01*
X161052800Y-107225427D01*
X161027604Y-107243733D01*
X160998672Y-107264753D01*
X160993237Y-107268488D01*
X160942676Y-107301323D01*
X160937136Y-107304921D01*
X160927546Y-107314511D01*
X160912518Y-107327348D01*
X160901530Y-107335331D01*
X160897117Y-107340233D01*
X160897115Y-107340234D01*
X160856751Y-107385063D01*
X160852210Y-107389847D01*
X160804921Y-107437136D01*
X160801328Y-107442669D01*
X160801326Y-107442671D01*
X160797531Y-107448515D01*
X160785498Y-107464197D01*
X160776415Y-107474285D01*
X160773115Y-107480000D01*
X160773114Y-107480002D01*
X160742966Y-107532220D01*
X160739520Y-107537844D01*
X160703084Y-107593951D01*
X160700718Y-107600116D01*
X160700715Y-107600121D01*
X160698221Y-107606618D01*
X160689709Y-107624465D01*
X160682925Y-107636215D01*
X160680885Y-107642495D01*
X160680884Y-107642496D01*
X160662250Y-107699845D01*
X160660048Y-107706062D01*
X160636076Y-107768512D01*
X160635044Y-107775030D01*
X160635041Y-107775040D01*
X160633952Y-107781917D01*
X160629337Y-107801140D01*
X160627185Y-107807762D01*
X160627183Y-107807773D01*
X160625145Y-107814044D01*
X160624456Y-107820602D01*
X160624455Y-107820605D01*
X160618152Y-107880578D01*
X160617294Y-107887094D01*
X160606826Y-107953190D01*
X160607536Y-107966735D01*
X160607019Y-107986499D01*
X160605600Y-108000000D01*
X160606290Y-108006565D01*
X160606290Y-108006566D01*
X160612593Y-108066538D01*
X160613110Y-108073113D01*
X160616611Y-108139915D01*
X160618320Y-108146292D01*
X160618320Y-108146293D01*
X160620124Y-108153023D01*
X160623728Y-108172470D01*
X160625145Y-108185956D01*
X160627187Y-108192240D01*
X160645818Y-108249582D01*
X160647691Y-108255906D01*
X160665006Y-108320524D01*
X160671167Y-108332616D01*
X160678730Y-108350875D01*
X160682925Y-108363785D01*
X160692571Y-108380492D01*
X160716376Y-108421724D01*
X160719523Y-108427520D01*
X160749893Y-108487125D01*
X160754050Y-108492258D01*
X160758432Y-108497670D01*
X160769625Y-108513955D01*
X160773116Y-108520002D01*
X160773119Y-108520005D01*
X160776415Y-108525715D01*
X160780827Y-108530615D01*
X160780830Y-108530619D01*
X160805273Y-108557765D01*
X160816838Y-108570608D01*
X160821175Y-108575425D01*
X160825463Y-108580446D01*
X160838063Y-108596006D01*
X160852210Y-108610153D01*
X160856751Y-108614937D01*
X160894228Y-108656559D01*
X160901530Y-108664669D01*
X160912518Y-108672652D01*
X160927546Y-108685489D01*
X161823595Y-109581538D01*
X161857621Y-109643850D01*
X161860500Y-109670633D01*
X161860500Y-113984500D01*
X161840498Y-114052621D01*
X161786842Y-114099114D01*
X161734500Y-114110500D01*
X153820633Y-114110500D01*
X153752512Y-114090498D01*
X153731538Y-114073595D01*
X153526405Y-113868462D01*
X153492379Y-113806150D01*
X153489500Y-113779367D01*
X153489500Y-112453226D01*
X153490190Y-112440055D01*
X153493710Y-112406565D01*
X153494400Y-112400000D01*
X153474855Y-112214044D01*
X153472262Y-112206062D01*
X153437839Y-112100121D01*
X153417075Y-112036215D01*
X153323585Y-111874285D01*
X153285022Y-111831456D01*
X153202885Y-111740234D01*
X153202883Y-111740233D01*
X153198470Y-111735331D01*
X153078268Y-111647999D01*
X153052542Y-111629308D01*
X153052541Y-111629307D01*
X153047200Y-111625427D01*
X153041172Y-111622743D01*
X153041170Y-111622742D01*
X152882416Y-111552060D01*
X152882414Y-111552060D01*
X152876385Y-111549375D01*
X152784938Y-111529938D01*
X152699947Y-111511872D01*
X152699943Y-111511872D01*
X152693490Y-111510500D01*
X152506510Y-111510500D01*
X152500057Y-111511872D01*
X152500053Y-111511872D01*
X152415062Y-111529938D01*
X152323615Y-111549375D01*
X152317586Y-111552060D01*
X152317584Y-111552060D01*
X152158830Y-111622742D01*
X152158828Y-111622743D01*
X152152800Y-111625427D01*
X152147459Y-111629307D01*
X152147458Y-111629308D01*
X152121732Y-111647999D01*
X152001530Y-111735331D01*
X151997117Y-111740233D01*
X151997115Y-111740234D01*
X151914978Y-111831456D01*
X151876415Y-111874285D01*
X151782925Y-112036215D01*
X151762161Y-112100121D01*
X151727739Y-112206062D01*
X151725145Y-112214044D01*
X151705600Y-112400000D01*
X135508000Y-112400000D01*
X135508000Y-109557677D01*
X135528002Y-109489556D01*
X135581658Y-109443063D01*
X135651932Y-109432959D01*
X135708061Y-109455741D01*
X135802800Y-109524573D01*
X135808828Y-109527257D01*
X135808830Y-109527258D01*
X135930745Y-109581538D01*
X135973615Y-109600625D01*
X136057443Y-109618443D01*
X136150053Y-109638128D01*
X136150057Y-109638128D01*
X136156510Y-109639500D01*
X136343490Y-109639500D01*
X136349943Y-109638128D01*
X136349947Y-109638128D01*
X136442557Y-109618443D01*
X136526385Y-109600625D01*
X136569255Y-109581538D01*
X136691170Y-109527258D01*
X136691172Y-109527257D01*
X136697200Y-109524573D01*
X136848470Y-109414669D01*
X136960527Y-109290218D01*
X136969166Y-109280623D01*
X136969167Y-109280622D01*
X136973585Y-109275715D01*
X137013448Y-109206670D01*
X137063771Y-109119508D01*
X137063772Y-109119507D01*
X137067075Y-109113785D01*
X137124855Y-108935956D01*
X137144400Y-108750000D01*
X137132576Y-108637503D01*
X137125545Y-108570608D01*
X137125545Y-108570607D01*
X137124855Y-108564044D01*
X137067075Y-108386215D01*
X137057427Y-108369503D01*
X136976888Y-108230006D01*
X136973585Y-108224285D01*
X136917864Y-108162400D01*
X136887147Y-108098393D01*
X136885500Y-108078090D01*
X136885500Y-106600000D01*
X170405600Y-106600000D01*
X170425145Y-106785956D01*
X170482925Y-106963785D01*
X170486228Y-106969507D01*
X170486229Y-106969508D01*
X170565509Y-107106826D01*
X170576415Y-107125715D01*
X170580833Y-107130622D01*
X170580834Y-107130623D01*
X170688226Y-107249893D01*
X170701530Y-107264669D01*
X170706869Y-107268548D01*
X170805541Y-107340237D01*
X170852800Y-107374573D01*
X170858828Y-107377257D01*
X170858830Y-107377258D01*
X170993318Y-107437136D01*
X171023615Y-107450625D01*
X171089688Y-107464669D01*
X171200053Y-107488128D01*
X171200057Y-107488128D01*
X171206510Y-107489500D01*
X171393490Y-107489500D01*
X171399943Y-107488128D01*
X171399947Y-107488128D01*
X171510312Y-107464669D01*
X171576385Y-107450625D01*
X171606682Y-107437136D01*
X171741170Y-107377258D01*
X171741172Y-107377257D01*
X171747200Y-107374573D01*
X171794460Y-107340237D01*
X171893131Y-107268548D01*
X171898470Y-107264669D01*
X171911775Y-107249893D01*
X172019166Y-107130623D01*
X172019167Y-107130622D01*
X172023585Y-107125715D01*
X172034491Y-107106826D01*
X172113771Y-106969508D01*
X172113772Y-106969507D01*
X172117075Y-106963785D01*
X172174855Y-106785956D01*
X172178188Y-106754248D01*
X172205202Y-106688591D01*
X172263425Y-106647962D01*
X172303498Y-106641420D01*
X180790498Y-106641420D01*
X180858619Y-106661422D01*
X180879593Y-106678325D01*
X180974558Y-106773290D01*
X181008584Y-106835602D01*
X181010773Y-106849213D01*
X181025145Y-106985956D01*
X181082925Y-107163785D01*
X181086228Y-107169507D01*
X181086229Y-107169508D01*
X181158145Y-107294070D01*
X181176415Y-107325715D01*
X181180833Y-107330622D01*
X181180834Y-107330623D01*
X181294472Y-107456830D01*
X181301530Y-107464669D01*
X181306869Y-107468548D01*
X181398447Y-107535083D01*
X181452800Y-107574573D01*
X181458828Y-107577257D01*
X181458830Y-107577258D01*
X181605357Y-107642496D01*
X181623615Y-107650625D01*
X181715062Y-107670062D01*
X181800053Y-107688128D01*
X181800057Y-107688128D01*
X181806510Y-107689500D01*
X181993490Y-107689500D01*
X181999943Y-107688128D01*
X181999947Y-107688128D01*
X182084937Y-107670063D01*
X182176385Y-107650625D01*
X182194643Y-107642496D01*
X182341170Y-107577258D01*
X182341172Y-107577257D01*
X182347200Y-107574573D01*
X182401554Y-107535083D01*
X182493131Y-107468548D01*
X182498470Y-107464669D01*
X182505529Y-107456830D01*
X182619166Y-107330623D01*
X182619167Y-107330622D01*
X182623585Y-107325715D01*
X182641855Y-107294070D01*
X182713771Y-107169508D01*
X182713772Y-107169507D01*
X182717075Y-107163785D01*
X182774855Y-106985956D01*
X182794400Y-106800000D01*
X182774855Y-106614044D01*
X182717075Y-106436215D01*
X182710312Y-106424500D01*
X182693573Y-106355507D01*
X182716792Y-106288415D01*
X182772598Y-106244527D01*
X182819430Y-106235500D01*
X183621799Y-106235500D01*
X183689920Y-106255502D01*
X183700658Y-106263701D01*
X183701530Y-106264669D01*
X183706872Y-106268550D01*
X183706874Y-106268552D01*
X183847085Y-106370421D01*
X183852800Y-106374573D01*
X183858828Y-106377257D01*
X183858830Y-106377258D01*
X184005366Y-106442500D01*
X184023615Y-106450625D01*
X184115063Y-106470063D01*
X184200053Y-106488128D01*
X184200057Y-106488128D01*
X184206510Y-106489500D01*
X184393490Y-106489500D01*
X184399943Y-106488128D01*
X184399947Y-106488128D01*
X184484938Y-106470062D01*
X184576385Y-106450625D01*
X184594634Y-106442500D01*
X184741170Y-106377258D01*
X184741172Y-106377257D01*
X184747200Y-106374573D01*
X184756673Y-106367691D01*
X184888139Y-106272175D01*
X184898470Y-106264669D01*
X184928627Y-106231177D01*
X185019166Y-106130623D01*
X185019167Y-106130622D01*
X185023585Y-106125715D01*
X185038432Y-106100000D01*
X185113771Y-105969508D01*
X185113772Y-105969507D01*
X185117075Y-105963785D01*
X185174855Y-105785956D01*
X185180195Y-105735155D01*
X185193710Y-105606565D01*
X185194400Y-105600000D01*
X185185594Y-105516219D01*
X185175545Y-105420608D01*
X185175545Y-105420607D01*
X185174855Y-105414044D01*
X185166435Y-105388128D01*
X185119117Y-105242500D01*
X185117075Y-105236215D01*
X185074804Y-105162999D01*
X185058067Y-105094004D01*
X185074804Y-105037001D01*
X185087600Y-105014837D01*
X185117075Y-104963785D01*
X185160500Y-104830137D01*
X185172815Y-104792235D01*
X185172815Y-104792234D01*
X185174855Y-104785956D01*
X185186056Y-104679392D01*
X185193710Y-104606565D01*
X185194400Y-104600000D01*
X185185057Y-104511106D01*
X185175545Y-104420608D01*
X185175545Y-104420607D01*
X185174855Y-104414044D01*
X185168620Y-104394853D01*
X185119117Y-104242500D01*
X185117075Y-104236215D01*
X185111637Y-104226795D01*
X185026888Y-104080006D01*
X185023585Y-104074285D01*
X184958822Y-104002358D01*
X184902885Y-103940234D01*
X184902883Y-103940233D01*
X184898470Y-103935331D01*
X184801212Y-103864669D01*
X184752542Y-103829308D01*
X184752541Y-103829307D01*
X184747200Y-103825427D01*
X184741172Y-103822743D01*
X184741170Y-103822742D01*
X184582416Y-103752060D01*
X184582414Y-103752060D01*
X184576385Y-103749375D01*
X184465072Y-103725715D01*
X184399947Y-103711872D01*
X184399943Y-103711872D01*
X184393490Y-103710500D01*
X184206510Y-103710500D01*
X184200057Y-103711872D01*
X184200053Y-103711872D01*
X184134928Y-103725715D01*
X184023615Y-103749375D01*
X184017586Y-103752060D01*
X184017584Y-103752060D01*
X183858830Y-103822742D01*
X183858828Y-103822743D01*
X183852800Y-103825427D01*
X183847459Y-103829307D01*
X183847458Y-103829308D01*
X183778104Y-103879697D01*
X183705569Y-103932397D01*
X183705566Y-103932398D01*
X183701530Y-103935331D01*
X183700994Y-103934593D01*
X183642098Y-103962854D01*
X183621799Y-103964500D01*
X182691583Y-103964500D01*
X182623462Y-103944498D01*
X182576969Y-103890842D01*
X182566865Y-103820568D01*
X182597947Y-103754190D01*
X182619162Y-103730628D01*
X182619165Y-103730624D01*
X182623585Y-103725715D01*
X182690941Y-103609050D01*
X182713771Y-103569508D01*
X182713772Y-103569507D01*
X182717075Y-103563785D01*
X182774855Y-103385956D01*
X182794400Y-103200000D01*
X182774855Y-103014044D01*
X182717075Y-102836215D01*
X182709685Y-102823414D01*
X182626888Y-102680006D01*
X182623585Y-102674285D01*
X182610512Y-102659766D01*
X182502885Y-102540234D01*
X182502883Y-102540233D01*
X182498470Y-102535331D01*
X182347200Y-102425427D01*
X182341172Y-102422743D01*
X182341170Y-102422742D01*
X182182416Y-102352060D01*
X182182414Y-102352060D01*
X182176385Y-102349375D01*
X182065072Y-102325715D01*
X181999947Y-102311872D01*
X181999943Y-102311872D01*
X181993490Y-102310500D01*
X181806510Y-102310500D01*
X181800057Y-102311872D01*
X181800053Y-102311872D01*
X181734928Y-102325715D01*
X181623615Y-102349375D01*
X181617586Y-102352060D01*
X181617584Y-102352060D01*
X181458830Y-102422742D01*
X181458828Y-102422743D01*
X181452800Y-102425427D01*
X181447459Y-102429307D01*
X181447458Y-102429308D01*
X181308017Y-102530618D01*
X181305569Y-102532397D01*
X181305566Y-102532398D01*
X181301530Y-102535331D01*
X181300994Y-102534593D01*
X181242098Y-102562854D01*
X181221799Y-102564500D01*
X171978201Y-102564500D01*
X171910080Y-102544498D01*
X171899342Y-102536299D01*
X171898470Y-102535331D01*
X171891984Y-102530618D01*
X171752542Y-102429308D01*
X171752541Y-102429307D01*
X171747200Y-102425427D01*
X171741172Y-102422743D01*
X171741170Y-102422742D01*
X171582416Y-102352060D01*
X171582414Y-102352060D01*
X171576385Y-102349375D01*
X171465072Y-102325715D01*
X171399947Y-102311872D01*
X171399943Y-102311872D01*
X171393490Y-102310500D01*
X171206510Y-102310500D01*
X171200057Y-102311872D01*
X171200053Y-102311872D01*
X171134928Y-102325715D01*
X171023615Y-102349375D01*
X171017586Y-102352060D01*
X171017584Y-102352060D01*
X170858830Y-102422742D01*
X170858828Y-102422743D01*
X170852800Y-102425427D01*
X170701530Y-102535331D01*
X170697117Y-102540233D01*
X170697115Y-102540234D01*
X170589488Y-102659766D01*
X170576415Y-102674285D01*
X170573112Y-102680006D01*
X170490316Y-102823414D01*
X170482925Y-102836215D01*
X170425145Y-103014044D01*
X170405600Y-103200000D01*
X170425145Y-103385956D01*
X170482925Y-103563785D01*
X170486228Y-103569507D01*
X170486229Y-103569508D01*
X170509059Y-103609050D01*
X170576415Y-103725715D01*
X170580835Y-103730624D01*
X170580838Y-103730628D01*
X170657428Y-103815690D01*
X170688145Y-103879697D01*
X170679381Y-103950151D01*
X170657428Y-103984310D01*
X170580838Y-104069372D01*
X170580835Y-104069376D01*
X170576415Y-104074285D01*
X170573112Y-104080006D01*
X170488364Y-104226795D01*
X170482925Y-104236215D01*
X170480883Y-104242500D01*
X170431381Y-104394853D01*
X170425145Y-104414044D01*
X170424455Y-104420607D01*
X170424455Y-104420608D01*
X170414943Y-104511106D01*
X170405600Y-104600000D01*
X170406290Y-104606565D01*
X170413945Y-104679392D01*
X170425145Y-104785956D01*
X170427185Y-104792234D01*
X170427185Y-104792235D01*
X170439500Y-104830137D01*
X170482925Y-104963785D01*
X170512400Y-105014837D01*
X170525196Y-105037001D01*
X170541933Y-105105996D01*
X170525196Y-105162999D01*
X170482925Y-105236215D01*
X170480883Y-105242500D01*
X170433566Y-105388128D01*
X170425145Y-105414044D01*
X170424455Y-105420607D01*
X170424455Y-105420608D01*
X170414406Y-105516219D01*
X170405600Y-105600000D01*
X170406290Y-105606565D01*
X170419806Y-105735155D01*
X170425145Y-105785956D01*
X170482925Y-105963785D01*
X170525196Y-106037001D01*
X170541933Y-106105996D01*
X170525196Y-106162999D01*
X170482925Y-106236215D01*
X170480883Y-106242500D01*
X170436592Y-106378815D01*
X170425145Y-106414044D01*
X170405600Y-106600000D01*
X136885500Y-106600000D01*
X136885500Y-106340296D01*
X136905502Y-106272175D01*
X136959158Y-106225682D01*
X137029432Y-106215578D01*
X137074500Y-106231177D01*
X137206600Y-106307445D01*
X137218608Y-106312791D01*
X137387572Y-106367691D01*
X137400413Y-106370421D01*
X137532812Y-106384336D01*
X137539372Y-106384680D01*
X137611559Y-106384680D01*
X137626798Y-106380205D01*
X137628003Y-106378815D01*
X137629674Y-106371132D01*
X137629674Y-106366565D01*
X138137674Y-106366565D01*
X138142149Y-106381804D01*
X138143539Y-106383009D01*
X138151222Y-106384680D01*
X138227976Y-106384680D01*
X138234536Y-106384336D01*
X138366935Y-106370421D01*
X138379776Y-106367691D01*
X138548740Y-106312791D01*
X138560748Y-106307445D01*
X138714601Y-106218618D01*
X138725232Y-106210894D01*
X138857259Y-106092017D01*
X138866050Y-106082254D01*
X138970476Y-105938523D01*
X138977042Y-105927151D01*
X139049307Y-105764841D01*
X139053364Y-105752355D01*
X139054204Y-105748402D01*
X139053131Y-105734339D01*
X139043177Y-105730680D01*
X138155789Y-105730680D01*
X138140550Y-105735155D01*
X138139345Y-105736545D01*
X138137674Y-105744228D01*
X138137674Y-106366565D01*
X137629674Y-106366565D01*
X137629674Y-105385148D01*
X142662452Y-105385148D01*
X142663984Y-105392355D01*
X142668041Y-105404841D01*
X142740306Y-105567151D01*
X142746872Y-105578523D01*
X142851298Y-105722254D01*
X142860089Y-105732017D01*
X142992116Y-105850894D01*
X143002747Y-105858618D01*
X143156600Y-105947445D01*
X143168608Y-105952791D01*
X143337572Y-106007691D01*
X143350413Y-106010421D01*
X143482812Y-106024336D01*
X143489372Y-106024680D01*
X143561559Y-106024680D01*
X143576798Y-106020205D01*
X143578003Y-106018815D01*
X143579674Y-106011132D01*
X143579674Y-106006565D01*
X144087674Y-106006565D01*
X144092149Y-106021804D01*
X144093539Y-106023009D01*
X144101222Y-106024680D01*
X144177976Y-106024680D01*
X144184536Y-106024336D01*
X144316935Y-106010421D01*
X144329776Y-106007691D01*
X144498740Y-105952791D01*
X144510748Y-105947445D01*
X144664601Y-105858618D01*
X144675232Y-105850894D01*
X144807259Y-105732017D01*
X144816050Y-105722254D01*
X144890303Y-105620053D01*
X144946525Y-105576699D01*
X145012817Y-105569806D01*
X145021180Y-105571190D01*
X145036872Y-105573788D01*
X145043689Y-105573431D01*
X145043693Y-105573431D01*
X145192746Y-105565619D01*
X145217721Y-105564310D01*
X145224294Y-105562499D01*
X145224297Y-105562499D01*
X145385733Y-105518032D01*
X145392315Y-105516219D01*
X145552510Y-105431758D01*
X145557723Y-105427353D01*
X145557727Y-105427350D01*
X145685617Y-105319274D01*
X145685621Y-105319270D01*
X145690831Y-105314867D01*
X145694979Y-105309442D01*
X145796680Y-105176423D01*
X145796683Y-105176419D01*
X145800824Y-105171002D01*
X145868342Y-105026209D01*
X145874479Y-105013049D01*
X145874480Y-105013046D01*
X145877359Y-105006872D01*
X145916864Y-104830137D01*
X145917174Y-104824592D01*
X145917174Y-104391436D01*
X145902531Y-104256643D01*
X145844768Y-104085005D01*
X145751497Y-103929775D01*
X145704141Y-103879697D01*
X145631756Y-103803153D01*
X145631754Y-103803151D01*
X145627067Y-103798195D01*
X145621429Y-103794363D01*
X145621425Y-103794360D01*
X145482929Y-103700238D01*
X145477286Y-103696403D01*
X145309140Y-103629150D01*
X145302412Y-103628036D01*
X145302408Y-103628035D01*
X145137213Y-103600687D01*
X145137210Y-103600687D01*
X145130476Y-103599572D01*
X145123659Y-103599929D01*
X145123655Y-103599929D01*
X144974602Y-103607741D01*
X144949627Y-103609050D01*
X144943054Y-103610861D01*
X144943051Y-103610861D01*
X144781615Y-103655328D01*
X144775033Y-103657141D01*
X144614838Y-103741602D01*
X144609625Y-103746007D01*
X144609621Y-103746010D01*
X144481731Y-103854086D01*
X144481727Y-103854090D01*
X144476517Y-103858493D01*
X144472370Y-103863917D01*
X144472369Y-103863918D01*
X144370668Y-103996937D01*
X144370665Y-103996941D01*
X144366524Y-104002358D01*
X144363642Y-104008538D01*
X144363641Y-104008540D01*
X144304029Y-104136379D01*
X144257112Y-104189664D01*
X144183240Y-104208956D01*
X144177973Y-104208680D01*
X144105789Y-104208680D01*
X144090550Y-104213155D01*
X144089345Y-104214545D01*
X144087674Y-104222228D01*
X144087674Y-106006565D01*
X143579674Y-106006565D01*
X143579674Y-105388795D01*
X143575199Y-105373556D01*
X143573809Y-105372351D01*
X143566126Y-105370680D01*
X142677492Y-105370680D01*
X142663961Y-105374653D01*
X142662452Y-105385148D01*
X137629674Y-105385148D01*
X137629674Y-105204565D01*
X138137674Y-105204565D01*
X138142149Y-105219804D01*
X138143539Y-105221009D01*
X138151222Y-105222680D01*
X139039856Y-105222680D01*
X139053387Y-105218707D01*
X139054896Y-105208212D01*
X139053364Y-105201005D01*
X139049307Y-105188519D01*
X138977042Y-105026209D01*
X138970476Y-105014837D01*
X138866050Y-104871106D01*
X138857259Y-104861343D01*
X138839062Y-104844958D01*
X142663144Y-104844958D01*
X142664217Y-104859021D01*
X142674171Y-104862680D01*
X143561559Y-104862680D01*
X143576798Y-104858205D01*
X143578003Y-104856815D01*
X143579674Y-104849132D01*
X143579674Y-104226795D01*
X143575199Y-104211556D01*
X143573809Y-104210351D01*
X143566126Y-104208680D01*
X143489372Y-104208680D01*
X143482812Y-104209024D01*
X143350413Y-104222939D01*
X143337572Y-104225669D01*
X143168608Y-104280569D01*
X143156600Y-104285915D01*
X143002747Y-104374742D01*
X142992116Y-104382466D01*
X142860089Y-104501343D01*
X142851298Y-104511106D01*
X142746872Y-104654837D01*
X142740306Y-104666209D01*
X142668041Y-104828519D01*
X142663984Y-104841005D01*
X142663144Y-104844958D01*
X138839062Y-104844958D01*
X138725232Y-104742466D01*
X138714601Y-104734742D01*
X138560748Y-104645915D01*
X138548740Y-104640569D01*
X138379776Y-104585669D01*
X138366935Y-104582939D01*
X138234536Y-104569024D01*
X138227976Y-104568680D01*
X138155789Y-104568680D01*
X138140550Y-104573155D01*
X138139345Y-104574545D01*
X138137674Y-104582228D01*
X138137674Y-105204565D01*
X137629674Y-105204565D01*
X137629674Y-104586795D01*
X137625199Y-104571556D01*
X137623809Y-104570351D01*
X137616126Y-104568680D01*
X137539372Y-104568680D01*
X137532812Y-104569024D01*
X137400413Y-104582939D01*
X137387572Y-104585669D01*
X137218608Y-104640569D01*
X137206600Y-104645915D01*
X137074500Y-104722183D01*
X137005505Y-104738921D01*
X136938413Y-104715701D01*
X136894526Y-104659893D01*
X136885500Y-104613064D01*
X136885500Y-99601589D01*
X136905502Y-99533468D01*
X136959158Y-99486975D01*
X137011500Y-99475589D01*
X140661692Y-99475589D01*
X140729813Y-99495591D01*
X140776306Y-99549247D01*
X140786410Y-99619521D01*
X140781526Y-99640521D01*
X140725145Y-99814044D01*
X140705600Y-100000000D01*
X140706290Y-100006565D01*
X140709810Y-100040055D01*
X140710500Y-100053226D01*
X140710500Y-101720075D01*
X140708949Y-101739785D01*
X140706826Y-101753190D01*
X140707171Y-101759778D01*
X140707171Y-101759782D01*
X140710327Y-101819999D01*
X140710500Y-101826593D01*
X140710500Y-101846620D01*
X140710844Y-101849891D01*
X140710844Y-101849895D01*
X140712593Y-101866539D01*
X140713110Y-101873113D01*
X140716265Y-101933316D01*
X140716611Y-101939915D01*
X140718320Y-101946292D01*
X140718320Y-101946293D01*
X140720124Y-101953023D01*
X140723728Y-101972470D01*
X140725145Y-101985956D01*
X140727187Y-101992240D01*
X140745818Y-102049582D01*
X140747691Y-102055906D01*
X140765006Y-102120524D01*
X140771167Y-102132616D01*
X140778730Y-102150875D01*
X140782925Y-102163785D01*
X140799596Y-102192660D01*
X140816376Y-102221724D01*
X140819523Y-102227520D01*
X140849893Y-102287125D01*
X140854050Y-102292258D01*
X140858432Y-102297670D01*
X140869625Y-102313955D01*
X140873116Y-102320002D01*
X140873119Y-102320005D01*
X140876415Y-102325715D01*
X140880827Y-102330615D01*
X140880830Y-102330619D01*
X140921175Y-102375425D01*
X140925463Y-102380446D01*
X140938063Y-102396006D01*
X140952210Y-102410153D01*
X140956751Y-102414937D01*
X141001530Y-102464669D01*
X141012518Y-102472652D01*
X141027546Y-102485489D01*
X141152210Y-102610153D01*
X141156751Y-102614937D01*
X141201530Y-102664669D01*
X141206867Y-102668547D01*
X141206873Y-102668552D01*
X141255655Y-102703994D01*
X141260876Y-102708000D01*
X141312875Y-102750107D01*
X141324968Y-102756269D01*
X141341818Y-102766595D01*
X141347457Y-102770692D01*
X141347463Y-102770695D01*
X141352800Y-102774573D01*
X141358827Y-102777256D01*
X141358828Y-102777257D01*
X141413928Y-102801789D01*
X141419864Y-102804621D01*
X141479476Y-102834994D01*
X141485854Y-102836703D01*
X141485859Y-102836705D01*
X141492584Y-102838507D01*
X141511214Y-102845104D01*
X141517579Y-102847938D01*
X141517582Y-102847939D01*
X141523615Y-102850625D01*
X141530073Y-102851998D01*
X141530083Y-102852001D01*
X141589050Y-102864535D01*
X141595462Y-102866074D01*
X141653709Y-102881681D01*
X141653713Y-102881682D01*
X141660085Y-102883389D01*
X141673639Y-102884099D01*
X141693241Y-102886679D01*
X141706510Y-102889500D01*
X141773407Y-102889500D01*
X141780001Y-102889673D01*
X141840218Y-102892829D01*
X141840222Y-102892829D01*
X141846810Y-102893174D01*
X141853325Y-102892142D01*
X141853327Y-102892142D01*
X141860214Y-102891051D01*
X141879925Y-102889500D01*
X141893490Y-102889500D01*
X141958927Y-102875591D01*
X141965403Y-102874391D01*
X142031488Y-102863924D01*
X142037648Y-102861559D01*
X142037657Y-102861557D01*
X142044165Y-102859059D01*
X142063112Y-102853447D01*
X142069920Y-102852000D01*
X142069927Y-102851998D01*
X142076385Y-102850625D01*
X142082415Y-102847940D01*
X142082422Y-102847938D01*
X142137504Y-102823414D01*
X142143597Y-102820890D01*
X142155162Y-102816451D01*
X142206049Y-102796917D01*
X142217429Y-102789526D01*
X142234806Y-102780091D01*
X142247200Y-102774573D01*
X142252536Y-102770696D01*
X142252543Y-102770692D01*
X142301327Y-102735248D01*
X142306763Y-102731512D01*
X142357324Y-102698677D01*
X142357326Y-102698675D01*
X142362864Y-102695079D01*
X142372454Y-102685489D01*
X142387482Y-102672652D01*
X142398470Y-102664669D01*
X142402888Y-102659763D01*
X142443249Y-102614937D01*
X142447790Y-102610153D01*
X142495079Y-102562864D01*
X142502471Y-102551482D01*
X142514502Y-102535802D01*
X142523585Y-102525715D01*
X142526885Y-102519998D01*
X142526888Y-102519995D01*
X142557034Y-102467781D01*
X142560481Y-102462156D01*
X142593320Y-102411589D01*
X142593323Y-102411584D01*
X142596917Y-102406049D01*
X142599282Y-102399887D01*
X142599286Y-102399880D01*
X142601785Y-102393370D01*
X142610294Y-102375530D01*
X142610355Y-102375425D01*
X142617075Y-102363785D01*
X142619880Y-102355154D01*
X142637750Y-102300155D01*
X142639944Y-102293959D01*
X142663924Y-102231488D01*
X142664957Y-102224963D01*
X142664959Y-102224957D01*
X142666048Y-102218083D01*
X142670663Y-102198860D01*
X142672815Y-102192238D01*
X142672817Y-102192227D01*
X142674855Y-102185956D01*
X142676585Y-102169503D01*
X142681114Y-102126406D01*
X142681850Y-102119405D01*
X142682706Y-102112906D01*
X142693174Y-102046810D01*
X142692464Y-102033262D01*
X142692981Y-102013498D01*
X142693710Y-102006563D01*
X142694400Y-102000000D01*
X142693710Y-101993434D01*
X142687407Y-101933462D01*
X142686890Y-101926887D01*
X142683735Y-101866684D01*
X142683735Y-101866682D01*
X142683389Y-101860085D01*
X142679875Y-101846972D01*
X142676272Y-101827529D01*
X142675546Y-101820615D01*
X142675545Y-101820611D01*
X142674855Y-101814044D01*
X142654182Y-101750418D01*
X142652309Y-101744094D01*
X142636704Y-101685859D01*
X142634994Y-101679476D01*
X142628833Y-101667384D01*
X142621269Y-101649123D01*
X142619116Y-101642497D01*
X142617075Y-101636215D01*
X142583624Y-101578276D01*
X142580477Y-101572480D01*
X142578257Y-101568123D01*
X142550107Y-101512875D01*
X142541568Y-101502330D01*
X142530375Y-101486045D01*
X142526884Y-101479998D01*
X142526881Y-101479995D01*
X142523585Y-101474285D01*
X142519171Y-101469383D01*
X142515286Y-101464036D01*
X142517199Y-101462646D01*
X142491148Y-101408378D01*
X142489500Y-101388063D01*
X142489500Y-101198971D01*
X142509502Y-101130850D01*
X142563158Y-101084357D01*
X142633432Y-101074253D01*
X142641696Y-101075724D01*
X142688143Y-101085596D01*
X142706510Y-101089500D01*
X142893490Y-101089500D01*
X142899943Y-101088128D01*
X142899947Y-101088128D01*
X142984937Y-101070063D01*
X143076385Y-101050625D01*
X143110500Y-101035436D01*
X143241170Y-100977258D01*
X143241172Y-100977257D01*
X143247200Y-100974573D01*
X143294008Y-100940565D01*
X143393126Y-100868552D01*
X143393128Y-100868550D01*
X143394431Y-100867603D01*
X143394434Y-100867602D01*
X143398470Y-100864669D01*
X143399006Y-100865407D01*
X143457902Y-100837146D01*
X143478201Y-100835500D01*
X146057243Y-100835500D01*
X146125364Y-100855502D01*
X146171857Y-100909158D01*
X146177074Y-100922559D01*
X146182925Y-100940565D01*
X146276415Y-101102495D01*
X146280833Y-101107402D01*
X146280834Y-101107403D01*
X146390152Y-101228812D01*
X146401530Y-101241449D01*
X146406869Y-101245328D01*
X146535213Y-101338575D01*
X146552800Y-101351353D01*
X146558828Y-101354037D01*
X146558830Y-101354038D01*
X146705597Y-101419383D01*
X146723615Y-101427405D01*
X146815062Y-101446842D01*
X146900053Y-101464908D01*
X146900057Y-101464908D01*
X146906510Y-101466280D01*
X147093490Y-101466280D01*
X147099943Y-101464908D01*
X147099947Y-101464908D01*
X147184938Y-101446842D01*
X147276385Y-101427405D01*
X147294403Y-101419383D01*
X147441170Y-101354038D01*
X147441172Y-101354037D01*
X147447200Y-101351353D01*
X147464788Y-101338575D01*
X147593131Y-101245328D01*
X147598470Y-101241449D01*
X147609849Y-101228812D01*
X147719166Y-101107403D01*
X147719167Y-101107402D01*
X147723585Y-101102495D01*
X147817075Y-100940565D01*
X147874855Y-100762736D01*
X147894400Y-100576780D01*
X147874855Y-100390824D01*
X147817075Y-100212995D01*
X147723773Y-100051390D01*
X147707035Y-99982394D01*
X147723773Y-99925390D01*
X147813771Y-99769508D01*
X147813772Y-99769507D01*
X147817075Y-99763785D01*
X147874855Y-99585956D01*
X147894400Y-99400000D01*
X147874855Y-99214044D01*
X147817075Y-99036215D01*
X147794708Y-98997473D01*
X147726888Y-98880006D01*
X147723585Y-98874285D01*
X147598470Y-98735331D01*
X147538179Y-98691527D01*
X147452542Y-98629308D01*
X147452541Y-98629307D01*
X147447200Y-98625427D01*
X147441172Y-98622743D01*
X147441170Y-98622742D01*
X147282416Y-98552060D01*
X147282414Y-98552060D01*
X147276385Y-98549375D01*
X147184385Y-98529820D01*
X147099947Y-98511872D01*
X147099943Y-98511872D01*
X147093490Y-98510500D01*
X147061423Y-98510500D01*
X146993302Y-98490498D01*
X146972328Y-98473595D01*
X146945334Y-98446601D01*
X146937765Y-98438284D01*
X146933642Y-98431786D01*
X146883822Y-98385002D01*
X146880981Y-98382248D01*
X146861183Y-98362450D01*
X146858058Y-98360026D01*
X146858049Y-98360018D01*
X146857963Y-98359952D01*
X146848938Y-98352244D01*
X146822374Y-98327299D01*
X146816595Y-98321872D01*
X146798758Y-98312066D01*
X146782242Y-98301216D01*
X146766156Y-98288739D01*
X146725423Y-98271113D01*
X146714775Y-98265896D01*
X146689898Y-98252220D01*
X146675892Y-98244520D01*
X146668217Y-98242549D01*
X146668211Y-98242547D01*
X146656178Y-98239458D01*
X146637476Y-98233055D01*
X146618797Y-98224972D01*
X146579002Y-98218669D01*
X146574962Y-98218029D01*
X146563349Y-98215624D01*
X146520371Y-98204589D01*
X146500024Y-98204589D01*
X146480313Y-98203038D01*
X146468039Y-98201094D01*
X146460210Y-98199854D01*
X146452318Y-98200600D01*
X146416033Y-98204030D01*
X146404175Y-98204589D01*
X145751811Y-98204589D01*
X145683690Y-98184587D01*
X145637197Y-98130931D01*
X145627093Y-98060657D01*
X145658175Y-97994278D01*
X145757285Y-97884206D01*
X145757286Y-97884205D01*
X145761704Y-97879298D01*
X145765005Y-97873581D01*
X145765007Y-97873578D01*
X145846005Y-97733283D01*
X145849308Y-97727562D01*
X145903451Y-97560929D01*
X145920344Y-97400205D01*
X145921075Y-97393245D01*
X145921765Y-97386680D01*
X145914602Y-97318523D01*
X145904142Y-97219001D01*
X145904141Y-97218997D01*
X145903451Y-97212431D01*
X145849308Y-97045798D01*
X145822867Y-97000000D01*
X145765007Y-96899782D01*
X145765004Y-96899778D01*
X145761704Y-96894062D01*
X145689655Y-96814044D01*
X145648881Y-96768760D01*
X145648879Y-96768759D01*
X145644466Y-96763857D01*
X145502720Y-96660872D01*
X145496692Y-96658188D01*
X145496690Y-96658187D01*
X145348689Y-96592293D01*
X145348688Y-96592293D01*
X145342658Y-96589608D01*
X145246251Y-96569116D01*
X145177735Y-96554552D01*
X145177731Y-96554552D01*
X145171278Y-96553180D01*
X145074303Y-96553180D01*
X145006182Y-96533178D01*
X144959196Y-96478429D01*
X144927042Y-96406209D01*
X144920476Y-96394837D01*
X144816050Y-96251106D01*
X144807259Y-96241343D01*
X144675232Y-96122466D01*
X144664601Y-96114742D01*
X144510748Y-96025915D01*
X144498740Y-96020569D01*
X144329776Y-95965669D01*
X144316935Y-95962939D01*
X144184536Y-95949024D01*
X144177976Y-95948680D01*
X144105789Y-95948680D01*
X144090550Y-95953155D01*
X144089345Y-95954545D01*
X144087674Y-95962228D01*
X144087674Y-97746565D01*
X144092149Y-97761804D01*
X144093539Y-97763009D01*
X144101222Y-97764680D01*
X144177976Y-97764680D01*
X144184534Y-97764336D01*
X144249041Y-97757556D01*
X144318879Y-97770328D01*
X144371332Y-97819867D01*
X144402342Y-97873578D01*
X144405644Y-97879298D01*
X144410059Y-97884202D01*
X144410061Y-97884204D01*
X144509173Y-97994278D01*
X144539890Y-98058286D01*
X144531127Y-98128739D01*
X144485664Y-98183271D01*
X144415537Y-98204589D01*
X136506537Y-98204589D01*
X136495298Y-98204059D01*
X136487786Y-98202380D01*
X136479861Y-98202629D01*
X136479860Y-98202629D01*
X136419475Y-98204527D01*
X136415517Y-98204589D01*
X136387522Y-98204589D01*
X136383588Y-98205086D01*
X136383586Y-98205086D01*
X136383499Y-98205097D01*
X136371665Y-98206029D01*
X136327300Y-98207424D01*
X136319687Y-98209636D01*
X136319686Y-98209636D01*
X136307757Y-98213102D01*
X136288393Y-98217112D01*
X136276065Y-98218669D01*
X136276063Y-98218669D01*
X136268206Y-98219662D01*
X136260842Y-98222578D01*
X136260837Y-98222579D01*
X136226949Y-98235996D01*
X136215720Y-98239841D01*
X136199616Y-98244520D01*
X136173112Y-98252220D01*
X136166285Y-98256258D01*
X136166282Y-98256259D01*
X136155599Y-98262577D01*
X136137841Y-98271277D01*
X136126290Y-98275850D01*
X136126284Y-98275854D01*
X136118917Y-98278770D01*
X136112506Y-98283428D01*
X136112504Y-98283429D01*
X136083017Y-98304853D01*
X136073095Y-98311370D01*
X136041737Y-98329915D01*
X136041733Y-98329918D01*
X136034907Y-98333955D01*
X136020523Y-98348339D01*
X136005489Y-98361180D01*
X135989018Y-98373147D01*
X135983965Y-98379256D01*
X135983964Y-98379256D01*
X135960729Y-98407342D01*
X135952740Y-98416121D01*
X135856523Y-98512338D01*
X135848196Y-98519916D01*
X135841697Y-98524041D01*
X135836271Y-98529819D01*
X135836270Y-98529820D01*
X135794914Y-98573860D01*
X135792159Y-98576702D01*
X135772361Y-98596500D01*
X135769937Y-98599625D01*
X135769929Y-98599634D01*
X135769863Y-98599720D01*
X135762155Y-98608745D01*
X135731783Y-98641088D01*
X135731301Y-98640636D01*
X135679713Y-98680416D01*
X135608977Y-98686491D01*
X135546185Y-98653359D01*
X135511274Y-98591539D01*
X135508000Y-98563001D01*
X135508000Y-96765148D01*
X136712452Y-96765148D01*
X136713984Y-96772355D01*
X136718041Y-96784841D01*
X136790306Y-96947151D01*
X136796872Y-96958523D01*
X136901298Y-97102254D01*
X136910089Y-97112017D01*
X137042116Y-97230894D01*
X137052747Y-97238618D01*
X137206600Y-97327445D01*
X137218608Y-97332791D01*
X137387572Y-97387691D01*
X137400413Y-97390421D01*
X137532812Y-97404336D01*
X137539372Y-97404680D01*
X137611559Y-97404680D01*
X137626798Y-97400205D01*
X137628003Y-97398815D01*
X137629674Y-97391132D01*
X137629674Y-97386565D01*
X138137674Y-97386565D01*
X138142149Y-97401804D01*
X138143539Y-97403009D01*
X138151222Y-97404680D01*
X138227976Y-97404680D01*
X138234536Y-97404336D01*
X138366935Y-97390421D01*
X138379776Y-97387691D01*
X138548740Y-97332791D01*
X138560748Y-97327445D01*
X138714601Y-97238618D01*
X138725232Y-97230894D01*
X138842675Y-97125148D01*
X142662452Y-97125148D01*
X142663984Y-97132355D01*
X142668041Y-97144841D01*
X142740306Y-97307151D01*
X142746872Y-97318523D01*
X142851298Y-97462254D01*
X142860089Y-97472017D01*
X142992116Y-97590894D01*
X143002747Y-97598618D01*
X143156600Y-97687445D01*
X143168608Y-97692791D01*
X143337572Y-97747691D01*
X143350413Y-97750421D01*
X143482812Y-97764336D01*
X143489372Y-97764680D01*
X143561559Y-97764680D01*
X143576798Y-97760205D01*
X143578003Y-97758815D01*
X143579674Y-97751132D01*
X143579674Y-97128795D01*
X143575199Y-97113556D01*
X143573809Y-97112351D01*
X143566126Y-97110680D01*
X142677492Y-97110680D01*
X142663961Y-97114653D01*
X142662452Y-97125148D01*
X138842675Y-97125148D01*
X138857259Y-97112017D01*
X138866050Y-97102254D01*
X138970476Y-96958523D01*
X138977042Y-96947151D01*
X139049307Y-96784841D01*
X139053364Y-96772355D01*
X139054204Y-96768402D01*
X139053131Y-96754339D01*
X139043177Y-96750680D01*
X138155789Y-96750680D01*
X138140550Y-96755155D01*
X138139345Y-96756545D01*
X138137674Y-96764228D01*
X138137674Y-97386565D01*
X137629674Y-97386565D01*
X137629674Y-96768795D01*
X137625199Y-96753556D01*
X137623809Y-96752351D01*
X137616126Y-96750680D01*
X136727492Y-96750680D01*
X136713961Y-96754653D01*
X136712452Y-96765148D01*
X135508000Y-96765148D01*
X135508000Y-96584958D01*
X142663144Y-96584958D01*
X142664217Y-96599021D01*
X142674171Y-96602680D01*
X143561559Y-96602680D01*
X143576798Y-96598205D01*
X143578003Y-96596815D01*
X143579674Y-96589132D01*
X143579674Y-95966795D01*
X143575199Y-95951556D01*
X143573809Y-95950351D01*
X143566126Y-95948680D01*
X143489372Y-95948680D01*
X143482812Y-95949024D01*
X143350413Y-95962939D01*
X143337572Y-95965669D01*
X143168608Y-96020569D01*
X143156600Y-96025915D01*
X143002747Y-96114742D01*
X142992116Y-96122466D01*
X142860089Y-96241343D01*
X142851298Y-96251106D01*
X142746872Y-96394837D01*
X142740306Y-96406209D01*
X142668041Y-96568519D01*
X142663984Y-96581005D01*
X142663144Y-96584958D01*
X135508000Y-96584958D01*
X135508000Y-96224958D01*
X136713144Y-96224958D01*
X136714217Y-96239021D01*
X136724171Y-96242680D01*
X137611559Y-96242680D01*
X137626798Y-96238205D01*
X137628003Y-96236815D01*
X137629674Y-96229132D01*
X137629674Y-96224565D01*
X138137674Y-96224565D01*
X138142149Y-96239804D01*
X138143539Y-96241009D01*
X138151222Y-96242680D01*
X139039856Y-96242680D01*
X139053387Y-96238707D01*
X139054896Y-96228212D01*
X139053364Y-96221005D01*
X139049307Y-96208519D01*
X138977042Y-96046209D01*
X138970476Y-96034837D01*
X138866050Y-95891106D01*
X138857259Y-95881343D01*
X138725232Y-95762466D01*
X138714601Y-95754742D01*
X138706388Y-95750000D01*
X147855600Y-95750000D01*
X147856290Y-95756565D01*
X147859810Y-95790055D01*
X147860500Y-95803226D01*
X147860500Y-95843490D01*
X147861873Y-95849948D01*
X147868872Y-95882879D01*
X147870935Y-95895903D01*
X147875145Y-95935956D01*
X147887590Y-95974260D01*
X147890999Y-95986984D01*
X147898000Y-96019921D01*
X147898003Y-96019930D01*
X147899375Y-96026385D01*
X147902058Y-96032412D01*
X147902061Y-96032420D01*
X147915757Y-96063181D01*
X147920482Y-96075489D01*
X147932925Y-96113785D01*
X147953064Y-96148666D01*
X147959046Y-96160407D01*
X147975427Y-96197200D01*
X147979307Y-96202541D01*
X147979308Y-96202542D01*
X147999097Y-96229779D01*
X148006279Y-96240838D01*
X148026415Y-96275715D01*
X148030833Y-96280622D01*
X148030834Y-96280623D01*
X148053362Y-96305642D01*
X148061658Y-96315886D01*
X148085331Y-96348470D01*
X148090233Y-96352884D01*
X148090235Y-96352886D01*
X148115259Y-96375418D01*
X148124582Y-96384741D01*
X148147114Y-96409765D01*
X148151530Y-96414669D01*
X148184114Y-96438342D01*
X148194354Y-96446635D01*
X148224285Y-96473585D01*
X148230006Y-96476888D01*
X148259160Y-96493720D01*
X148270219Y-96500902D01*
X148302800Y-96524573D01*
X148308828Y-96527257D01*
X148308832Y-96527259D01*
X148339593Y-96540954D01*
X148351334Y-96546936D01*
X148386215Y-96567075D01*
X148424511Y-96579518D01*
X148436819Y-96584243D01*
X148467580Y-96597939D01*
X148467588Y-96597942D01*
X148473615Y-96600625D01*
X148480070Y-96601997D01*
X148480079Y-96602000D01*
X148513016Y-96609001D01*
X148525740Y-96612410D01*
X148564044Y-96624855D01*
X148596409Y-96628257D01*
X148604097Y-96629065D01*
X148617121Y-96631128D01*
X148626437Y-96633108D01*
X148656510Y-96639500D01*
X151508434Y-96639500D01*
X151576555Y-96659502D01*
X151623048Y-96713158D01*
X151633152Y-96783432D01*
X151628266Y-96804438D01*
X151625145Y-96814044D01*
X151624455Y-96820607D01*
X151624455Y-96820608D01*
X151616735Y-96894062D01*
X151605600Y-97000000D01*
X151606290Y-97006565D01*
X151609810Y-97040055D01*
X151610500Y-97053226D01*
X151610500Y-101307869D01*
X151590498Y-101375990D01*
X151536842Y-101422483D01*
X151466568Y-101432587D01*
X151401988Y-101403093D01*
X151375381Y-101370869D01*
X151364114Y-101351353D01*
X151339918Y-101309445D01*
X151303269Y-101268742D01*
X151219218Y-101175394D01*
X151219216Y-101175393D01*
X151214803Y-101170491D01*
X151127970Y-101107403D01*
X151068875Y-101064468D01*
X151068874Y-101064467D01*
X151063533Y-101060587D01*
X151057505Y-101057903D01*
X151057503Y-101057902D01*
X150917796Y-100995700D01*
X150863700Y-100949719D01*
X150843051Y-100881792D01*
X150849212Y-100841657D01*
X150872815Y-100769015D01*
X150872815Y-100769014D01*
X150874855Y-100762736D01*
X150894400Y-100576780D01*
X150874855Y-100390824D01*
X150817075Y-100212995D01*
X150723585Y-100051065D01*
X150610719Y-99925715D01*
X150602885Y-99917014D01*
X150602883Y-99917013D01*
X150598470Y-99912111D01*
X150447200Y-99802207D01*
X150441172Y-99799523D01*
X150441170Y-99799522D01*
X150282416Y-99728840D01*
X150282414Y-99728840D01*
X150276385Y-99726155D01*
X150184937Y-99706717D01*
X150099947Y-99688652D01*
X150099943Y-99688652D01*
X150093490Y-99687280D01*
X149906510Y-99687280D01*
X149900057Y-99688652D01*
X149900053Y-99688652D01*
X149815063Y-99706717D01*
X149723615Y-99726155D01*
X149717586Y-99728840D01*
X149717584Y-99728840D01*
X149558830Y-99799522D01*
X149558828Y-99799523D01*
X149552800Y-99802207D01*
X149401530Y-99912111D01*
X149397117Y-99917013D01*
X149397115Y-99917014D01*
X149389281Y-99925715D01*
X149276415Y-100051065D01*
X149182925Y-100212995D01*
X149125145Y-100390824D01*
X149105600Y-100576780D01*
X149125145Y-100762736D01*
X149182925Y-100940565D01*
X149276415Y-101102495D01*
X149332138Y-101164382D01*
X149362854Y-101228388D01*
X149364500Y-101248690D01*
X149364500Y-101258810D01*
X149364996Y-101262735D01*
X149364996Y-101262736D01*
X149365008Y-101262831D01*
X149365941Y-101274676D01*
X149367335Y-101319032D01*
X149369547Y-101326644D01*
X149373013Y-101338575D01*
X149377023Y-101357939D01*
X149379573Y-101378126D01*
X149382489Y-101385490D01*
X149382490Y-101385495D01*
X149395907Y-101419383D01*
X149399752Y-101430612D01*
X149404598Y-101447292D01*
X149412131Y-101473220D01*
X149416169Y-101480047D01*
X149416170Y-101480050D01*
X149422488Y-101490733D01*
X149431188Y-101508491D01*
X149435761Y-101520042D01*
X149435765Y-101520048D01*
X149438681Y-101527415D01*
X149443339Y-101533826D01*
X149443340Y-101533828D01*
X149464764Y-101563315D01*
X149471281Y-101573237D01*
X149489826Y-101604595D01*
X149489829Y-101604599D01*
X149493866Y-101611425D01*
X149508250Y-101625809D01*
X149521091Y-101640843D01*
X149533058Y-101657314D01*
X149539166Y-101662367D01*
X149567255Y-101685604D01*
X149576035Y-101693594D01*
X149690891Y-101808450D01*
X149724917Y-101870762D01*
X149727106Y-101884373D01*
X149741478Y-102021116D01*
X149743518Y-102027394D01*
X149743518Y-102027395D01*
X149771704Y-102114141D01*
X149799258Y-102198945D01*
X149802561Y-102204667D01*
X149802562Y-102204668D01*
X149851954Y-102290218D01*
X149892748Y-102360875D01*
X149897166Y-102365782D01*
X149897167Y-102365783D01*
X149986205Y-102464669D01*
X150017863Y-102499829D01*
X150023202Y-102503708D01*
X150104610Y-102562854D01*
X150169133Y-102609733D01*
X150175161Y-102612417D01*
X150175163Y-102612418D01*
X150323527Y-102678474D01*
X150339948Y-102685785D01*
X150425616Y-102703994D01*
X150516386Y-102723288D01*
X150516390Y-102723288D01*
X150522843Y-102724660D01*
X150709823Y-102724660D01*
X150716276Y-102723288D01*
X150716280Y-102723288D01*
X150807050Y-102703994D01*
X150892718Y-102685785D01*
X150909139Y-102678474D01*
X151057503Y-102612418D01*
X151057505Y-102612417D01*
X151063533Y-102609733D01*
X151128057Y-102562854D01*
X151209464Y-102503708D01*
X151214803Y-102499829D01*
X151246462Y-102464669D01*
X151335499Y-102365783D01*
X151335500Y-102365782D01*
X151339918Y-102360875D01*
X151375381Y-102299451D01*
X151426763Y-102250458D01*
X151496477Y-102237022D01*
X151562388Y-102263408D01*
X151603570Y-102321240D01*
X151610500Y-102362451D01*
X151610500Y-104446774D01*
X151609810Y-104459945D01*
X151605600Y-104500000D01*
X151606290Y-104506565D01*
X151616111Y-104600000D01*
X151625145Y-104685956D01*
X151682925Y-104863785D01*
X151776415Y-105025715D01*
X151780833Y-105030622D01*
X151780834Y-105030623D01*
X151860867Y-105119508D01*
X151901530Y-105164669D01*
X151906869Y-105168548D01*
X152046498Y-105269994D01*
X152052800Y-105274573D01*
X152058828Y-105277257D01*
X152058830Y-105277258D01*
X152217584Y-105347940D01*
X152223615Y-105350625D01*
X152315062Y-105370062D01*
X152400053Y-105388128D01*
X152400057Y-105388128D01*
X152406510Y-105389500D01*
X152593490Y-105389500D01*
X152599943Y-105388128D01*
X152599947Y-105388128D01*
X152684938Y-105370062D01*
X152776385Y-105350625D01*
X152782416Y-105347940D01*
X152941170Y-105277258D01*
X152941172Y-105277257D01*
X152947200Y-105274573D01*
X152953503Y-105269994D01*
X153093131Y-105168548D01*
X153098470Y-105164669D01*
X153139134Y-105119508D01*
X153219166Y-105030623D01*
X153219167Y-105030622D01*
X153223585Y-105025715D01*
X153317075Y-104863785D01*
X153374855Y-104685956D01*
X153383890Y-104600000D01*
X153393710Y-104506565D01*
X153394400Y-104500000D01*
X153390190Y-104459945D01*
X153389500Y-104446774D01*
X153389500Y-97053226D01*
X153390190Y-97040055D01*
X153393710Y-97006565D01*
X153394400Y-97000000D01*
X153383265Y-96894062D01*
X153375545Y-96820608D01*
X153375545Y-96820607D01*
X153374855Y-96814044D01*
X153371734Y-96804438D01*
X153371676Y-96802408D01*
X153371442Y-96801307D01*
X153371643Y-96801264D01*
X153369705Y-96733470D01*
X153406366Y-96672672D01*
X153470078Y-96641346D01*
X153491566Y-96639500D01*
X155329367Y-96639500D01*
X155397488Y-96659502D01*
X155418462Y-96676405D01*
X161323595Y-102581538D01*
X161357621Y-102643850D01*
X161360500Y-102670633D01*
X161360500Y-104696774D01*
X161359810Y-104709945D01*
X161355600Y-104750000D01*
X161375145Y-104935956D01*
X161377185Y-104942234D01*
X161377185Y-104942235D01*
X161404309Y-105025715D01*
X161432925Y-105113785D01*
X161436228Y-105119507D01*
X161436229Y-105119508D01*
X161494135Y-105219804D01*
X161526415Y-105275715D01*
X161530833Y-105280622D01*
X161530834Y-105280623D01*
X161645314Y-105407765D01*
X161651530Y-105414669D01*
X161656869Y-105418548D01*
X161791302Y-105516219D01*
X161802800Y-105524573D01*
X161808828Y-105527257D01*
X161808830Y-105527258D01*
X161923973Y-105578523D01*
X161973615Y-105600625D01*
X162065018Y-105620053D01*
X162150053Y-105638128D01*
X162150057Y-105638128D01*
X162156510Y-105639500D01*
X162343490Y-105639500D01*
X162349943Y-105638128D01*
X162349947Y-105638128D01*
X162434982Y-105620053D01*
X162526385Y-105600625D01*
X162576027Y-105578523D01*
X162691170Y-105527258D01*
X162691172Y-105527257D01*
X162697200Y-105524573D01*
X162708699Y-105516219D01*
X162843131Y-105418548D01*
X162848470Y-105414669D01*
X162854687Y-105407765D01*
X162969166Y-105280623D01*
X162969167Y-105280622D01*
X162973585Y-105275715D01*
X163005865Y-105219804D01*
X163063771Y-105119508D01*
X163063772Y-105119507D01*
X163067075Y-105113785D01*
X163095691Y-105025715D01*
X163122815Y-104942235D01*
X163122815Y-104942234D01*
X163124855Y-104935956D01*
X163144400Y-104750000D01*
X163140190Y-104709945D01*
X163139500Y-104696774D01*
X163139500Y-102329925D01*
X163141051Y-102310214D01*
X163142142Y-102303327D01*
X163142142Y-102303325D01*
X163143174Y-102296810D01*
X163142667Y-102287125D01*
X163139673Y-102230008D01*
X163139500Y-102223414D01*
X163139500Y-102203380D01*
X163137406Y-102183454D01*
X163136889Y-102176880D01*
X163133734Y-102116681D01*
X163133734Y-102116678D01*
X163133388Y-102110085D01*
X163129876Y-102096977D01*
X163126275Y-102077544D01*
X163125546Y-102070614D01*
X163125545Y-102070610D01*
X163124855Y-102064044D01*
X163104178Y-102000408D01*
X163102307Y-101994091D01*
X163100128Y-101985956D01*
X163093871Y-101962604D01*
X163086703Y-101935852D01*
X163086702Y-101935849D01*
X163084994Y-101929475D01*
X163081998Y-101923595D01*
X163081995Y-101923587D01*
X163078832Y-101917379D01*
X163071269Y-101899122D01*
X163069116Y-101892496D01*
X163069116Y-101892495D01*
X163067075Y-101886215D01*
X163033629Y-101828285D01*
X163030483Y-101822491D01*
X163022977Y-101807760D01*
X163000107Y-101762875D01*
X162991568Y-101752330D01*
X162980375Y-101736045D01*
X162976884Y-101729998D01*
X162976881Y-101729995D01*
X162973585Y-101724285D01*
X162969173Y-101719385D01*
X162969170Y-101719381D01*
X162928825Y-101674575D01*
X162924537Y-101669554D01*
X162914014Y-101656559D01*
X162911937Y-101653994D01*
X162897790Y-101639847D01*
X162893249Y-101635063D01*
X162852885Y-101590234D01*
X162852883Y-101590233D01*
X162848470Y-101585331D01*
X162837482Y-101577348D01*
X162822454Y-101564511D01*
X156435489Y-95177546D01*
X156422652Y-95162518D01*
X156414669Y-95151530D01*
X156364937Y-95106751D01*
X156360153Y-95102210D01*
X156346006Y-95088063D01*
X156330446Y-95075463D01*
X156325425Y-95071175D01*
X156280619Y-95030830D01*
X156280615Y-95030827D01*
X156275715Y-95026415D01*
X156270005Y-95023119D01*
X156270002Y-95023116D01*
X156263955Y-95019625D01*
X156247670Y-95008432D01*
X156245012Y-95006280D01*
X156237125Y-94999893D01*
X156177520Y-94969523D01*
X156171724Y-94966376D01*
X156148656Y-94953058D01*
X156113785Y-94932925D01*
X156100875Y-94928730D01*
X156082616Y-94921167D01*
X156070524Y-94915006D01*
X156005906Y-94897691D01*
X155999582Y-94895818D01*
X155974249Y-94887587D01*
X155935956Y-94875145D01*
X155929389Y-94874455D01*
X155929385Y-94874454D01*
X155923712Y-94873858D01*
X155922470Y-94873728D01*
X155903028Y-94870125D01*
X155889915Y-94866611D01*
X155883318Y-94866265D01*
X155883316Y-94866265D01*
X155823113Y-94863110D01*
X155816539Y-94862593D01*
X155799895Y-94860844D01*
X155799891Y-94860844D01*
X155796620Y-94860500D01*
X155776593Y-94860500D01*
X155769999Y-94860327D01*
X155709782Y-94857171D01*
X155709778Y-94857171D01*
X155703190Y-94856826D01*
X155696675Y-94857858D01*
X155696673Y-94857858D01*
X155689786Y-94858949D01*
X155670075Y-94860500D01*
X148656510Y-94860500D01*
X148629387Y-94866265D01*
X148617121Y-94868872D01*
X148604096Y-94870935D01*
X148564044Y-94875145D01*
X148525740Y-94887590D01*
X148513016Y-94890999D01*
X148480079Y-94898000D01*
X148480070Y-94898003D01*
X148473615Y-94899375D01*
X148467588Y-94902058D01*
X148467580Y-94902061D01*
X148436819Y-94915757D01*
X148424511Y-94920482D01*
X148386215Y-94932925D01*
X148351334Y-94953064D01*
X148339593Y-94959046D01*
X148308832Y-94972741D01*
X148308828Y-94972743D01*
X148302800Y-94975427D01*
X148297459Y-94979307D01*
X148297458Y-94979308D01*
X148270221Y-94999097D01*
X148259162Y-95006279D01*
X148224285Y-95026415D01*
X148219378Y-95030833D01*
X148219377Y-95030834D01*
X148194358Y-95053362D01*
X148184114Y-95061658D01*
X148151530Y-95085331D01*
X148147116Y-95090233D01*
X148147114Y-95090235D01*
X148124582Y-95115259D01*
X148115259Y-95124582D01*
X148085331Y-95151530D01*
X148061658Y-95184114D01*
X148053365Y-95194354D01*
X148026415Y-95224285D01*
X148023112Y-95230006D01*
X148006280Y-95259160D01*
X147999098Y-95270219D01*
X147975427Y-95302800D01*
X147972743Y-95308828D01*
X147972741Y-95308832D01*
X147959046Y-95339593D01*
X147953064Y-95351334D01*
X147932925Y-95386215D01*
X147930884Y-95392497D01*
X147920483Y-95424508D01*
X147915757Y-95436819D01*
X147902061Y-95467580D01*
X147902058Y-95467588D01*
X147899375Y-95473615D01*
X147898003Y-95480070D01*
X147898000Y-95480079D01*
X147890999Y-95513016D01*
X147887590Y-95525740D01*
X147875145Y-95564044D01*
X147874455Y-95570610D01*
X147870935Y-95604097D01*
X147868872Y-95617121D01*
X147860500Y-95656510D01*
X147860500Y-95696774D01*
X147859810Y-95709945D01*
X147855600Y-95750000D01*
X138706388Y-95750000D01*
X138560748Y-95665915D01*
X138548740Y-95660569D01*
X138379776Y-95605669D01*
X138366935Y-95602939D01*
X138234536Y-95589024D01*
X138227976Y-95588680D01*
X138155789Y-95588680D01*
X138140550Y-95593155D01*
X138139345Y-95594545D01*
X138137674Y-95602228D01*
X138137674Y-96224565D01*
X137629674Y-96224565D01*
X137629674Y-95606795D01*
X137625199Y-95591556D01*
X137623809Y-95590351D01*
X137616126Y-95588680D01*
X137539372Y-95588680D01*
X137532812Y-95589024D01*
X137400413Y-95602939D01*
X137387572Y-95605669D01*
X137218608Y-95660569D01*
X137206600Y-95665915D01*
X137052747Y-95754742D01*
X137042116Y-95762466D01*
X136910089Y-95881343D01*
X136901298Y-95891106D01*
X136796872Y-96034837D01*
X136790306Y-96046209D01*
X136718041Y-96208519D01*
X136713984Y-96221005D01*
X136713144Y-96224958D01*
X135508000Y-96224958D01*
X135508000Y-87060000D01*
X137476835Y-87060000D01*
X137495465Y-87296711D01*
X137550895Y-87527594D01*
X137641760Y-87746963D01*
X137644346Y-87751183D01*
X137763241Y-87945202D01*
X137763245Y-87945208D01*
X137765824Y-87949416D01*
X137920031Y-88129969D01*
X138100584Y-88284176D01*
X138104792Y-88286755D01*
X138104798Y-88286759D01*
X138298084Y-88405205D01*
X138303037Y-88408240D01*
X138307607Y-88410133D01*
X138307611Y-88410135D01*
X138517833Y-88497211D01*
X138522406Y-88499105D01*
X138602609Y-88518360D01*
X138748476Y-88553380D01*
X138748482Y-88553381D01*
X138753289Y-88554535D01*
X138990000Y-88573165D01*
X139226711Y-88554535D01*
X139231518Y-88553381D01*
X139231524Y-88553380D01*
X139377391Y-88518360D01*
X139457594Y-88499105D01*
X139462167Y-88497211D01*
X139672389Y-88410135D01*
X139672393Y-88410133D01*
X139676963Y-88408240D01*
X139681916Y-88405205D01*
X139875202Y-88286759D01*
X139875208Y-88286755D01*
X139879416Y-88284176D01*
X140059969Y-88129969D01*
X140063177Y-88126213D01*
X140063182Y-88126208D01*
X140164189Y-88007944D01*
X140223639Y-87969134D01*
X140294634Y-87968628D01*
X140355811Y-88007944D01*
X140456818Y-88126208D01*
X140456823Y-88126213D01*
X140460031Y-88129969D01*
X140640584Y-88284176D01*
X140644792Y-88286755D01*
X140644798Y-88286759D01*
X140838084Y-88405205D01*
X140843037Y-88408240D01*
X140847607Y-88410133D01*
X140847611Y-88410135D01*
X141057833Y-88497211D01*
X141062406Y-88499105D01*
X141142609Y-88518360D01*
X141288476Y-88553380D01*
X141288482Y-88553381D01*
X141293289Y-88554535D01*
X141530000Y-88573165D01*
X141766711Y-88554535D01*
X141771518Y-88553381D01*
X141771524Y-88553380D01*
X141917391Y-88518360D01*
X141997594Y-88499105D01*
X142002167Y-88497211D01*
X142212389Y-88410135D01*
X142212393Y-88410133D01*
X142216963Y-88408240D01*
X142221916Y-88405205D01*
X142415202Y-88286759D01*
X142415208Y-88286755D01*
X142419416Y-88284176D01*
X142599969Y-88129969D01*
X142603177Y-88126213D01*
X142603182Y-88126208D01*
X142704189Y-88007944D01*
X142763639Y-87969134D01*
X142834634Y-87968628D01*
X142895811Y-88007944D01*
X142996818Y-88126208D01*
X142996823Y-88126213D01*
X143000031Y-88129969D01*
X143180584Y-88284176D01*
X143184792Y-88286755D01*
X143184798Y-88286759D01*
X143378084Y-88405205D01*
X143383037Y-88408240D01*
X143387607Y-88410133D01*
X143387611Y-88410135D01*
X143597833Y-88497211D01*
X143602406Y-88499105D01*
X143682609Y-88518360D01*
X143828476Y-88553380D01*
X143828482Y-88553381D01*
X143833289Y-88554535D01*
X144070000Y-88573165D01*
X144306711Y-88554535D01*
X144311518Y-88553381D01*
X144311524Y-88553380D01*
X144457391Y-88518360D01*
X144537594Y-88499105D01*
X144542167Y-88497211D01*
X144752389Y-88410135D01*
X144752393Y-88410133D01*
X144756963Y-88408240D01*
X144761916Y-88405205D01*
X144955202Y-88286759D01*
X144955208Y-88286755D01*
X144959416Y-88284176D01*
X145139969Y-88129969D01*
X145143177Y-88126213D01*
X145143182Y-88126208D01*
X145244189Y-88007944D01*
X145303639Y-87969134D01*
X145374634Y-87968628D01*
X145435811Y-88007944D01*
X145536818Y-88126208D01*
X145536823Y-88126213D01*
X145540031Y-88129969D01*
X145720584Y-88284176D01*
X145724792Y-88286755D01*
X145724798Y-88286759D01*
X145918084Y-88405205D01*
X145923037Y-88408240D01*
X145927607Y-88410133D01*
X145927611Y-88410135D01*
X146137833Y-88497211D01*
X146142406Y-88499105D01*
X146222609Y-88518360D01*
X146368476Y-88553380D01*
X146368482Y-88553381D01*
X146373289Y-88554535D01*
X146610000Y-88573165D01*
X146846711Y-88554535D01*
X146851518Y-88553381D01*
X146851524Y-88553380D01*
X146997391Y-88518360D01*
X147077594Y-88499105D01*
X147082167Y-88497211D01*
X147292389Y-88410135D01*
X147292393Y-88410133D01*
X147296963Y-88408240D01*
X147301916Y-88405205D01*
X147495202Y-88286759D01*
X147495208Y-88286755D01*
X147499416Y-88284176D01*
X147679969Y-88129969D01*
X147683177Y-88126213D01*
X147683182Y-88126208D01*
X147784189Y-88007944D01*
X147843639Y-87969134D01*
X147914634Y-87968628D01*
X147975811Y-88007944D01*
X148076818Y-88126208D01*
X148076823Y-88126213D01*
X148080031Y-88129969D01*
X148260584Y-88284176D01*
X148264792Y-88286755D01*
X148264798Y-88286759D01*
X148458084Y-88405205D01*
X148463037Y-88408240D01*
X148467607Y-88410133D01*
X148467611Y-88410135D01*
X148677833Y-88497211D01*
X148682406Y-88499105D01*
X148762609Y-88518360D01*
X148908476Y-88553380D01*
X148908482Y-88553381D01*
X148913289Y-88554535D01*
X149150000Y-88573165D01*
X149386711Y-88554535D01*
X149391518Y-88553381D01*
X149391524Y-88553380D01*
X149537391Y-88518360D01*
X149617594Y-88499105D01*
X149622167Y-88497211D01*
X149832389Y-88410135D01*
X149832393Y-88410133D01*
X149836963Y-88408240D01*
X149841916Y-88405205D01*
X150035202Y-88286759D01*
X150035208Y-88286755D01*
X150039416Y-88284176D01*
X150219969Y-88129969D01*
X150223177Y-88126213D01*
X150223182Y-88126208D01*
X150324189Y-88007944D01*
X150383639Y-87969134D01*
X150454634Y-87968628D01*
X150515811Y-88007944D01*
X150616818Y-88126208D01*
X150616823Y-88126213D01*
X150620031Y-88129969D01*
X150800584Y-88284176D01*
X150804792Y-88286755D01*
X150804798Y-88286759D01*
X150998084Y-88405205D01*
X151003037Y-88408240D01*
X151007607Y-88410133D01*
X151007611Y-88410135D01*
X151217833Y-88497211D01*
X151222406Y-88499105D01*
X151302609Y-88518360D01*
X151448476Y-88553380D01*
X151448482Y-88553381D01*
X151453289Y-88554535D01*
X151690000Y-88573165D01*
X151926711Y-88554535D01*
X151931518Y-88553381D01*
X151931524Y-88553380D01*
X152077391Y-88518360D01*
X152157594Y-88499105D01*
X152162167Y-88497211D01*
X152372389Y-88410135D01*
X152372393Y-88410133D01*
X152376963Y-88408240D01*
X152381916Y-88405205D01*
X152565556Y-88292670D01*
X153362160Y-88292670D01*
X153367887Y-88300320D01*
X153539042Y-88405205D01*
X153547837Y-88409687D01*
X153757988Y-88496734D01*
X153767373Y-88499783D01*
X153988554Y-88552885D01*
X153998301Y-88554428D01*
X154225070Y-88572275D01*
X154234930Y-88572275D01*
X154461699Y-88554428D01*
X154471446Y-88552885D01*
X154692627Y-88499783D01*
X154702012Y-88496734D01*
X154912163Y-88409687D01*
X154920958Y-88405205D01*
X155088445Y-88302568D01*
X155097907Y-88292110D01*
X155094124Y-88283334D01*
X154242812Y-87432022D01*
X154228868Y-87424408D01*
X154227035Y-87424539D01*
X154220420Y-87428790D01*
X153368920Y-88280290D01*
X153362160Y-88292670D01*
X152565556Y-88292670D01*
X152575202Y-88286759D01*
X152575208Y-88286755D01*
X152579416Y-88284176D01*
X152759969Y-88129969D01*
X152763177Y-88126213D01*
X152763182Y-88126208D01*
X152893706Y-87973384D01*
X152953156Y-87934574D01*
X152987558Y-87932360D01*
X153006667Y-87924123D01*
X153857978Y-87072812D01*
X153865592Y-87058868D01*
X153865461Y-87057035D01*
X153861210Y-87050420D01*
X153009710Y-86198920D01*
X152992898Y-86189740D01*
X152929650Y-86175980D01*
X152894225Y-86147224D01*
X152763177Y-85993787D01*
X152759969Y-85990031D01*
X152667800Y-85911311D01*
X152628991Y-85851860D01*
X152628485Y-85780866D01*
X152666441Y-85720867D01*
X152730809Y-85690914D01*
X152749631Y-85689500D01*
X153235452Y-85689500D01*
X153303573Y-85709502D01*
X153350066Y-85763158D01*
X153357140Y-85816398D01*
X153365876Y-85836666D01*
X154217188Y-86687978D01*
X154231132Y-86695592D01*
X154232965Y-86695461D01*
X154239580Y-86691210D01*
X155091080Y-85839710D01*
X155098694Y-85825766D01*
X155098603Y-85824490D01*
X155113694Y-85755115D01*
X155163896Y-85704913D01*
X155224282Y-85689500D01*
X155710369Y-85689500D01*
X155778490Y-85709502D01*
X155824983Y-85763158D01*
X155835087Y-85833432D01*
X155805593Y-85898012D01*
X155792200Y-85911311D01*
X155700031Y-85990031D01*
X155696823Y-85993787D01*
X155696818Y-85993792D01*
X155566294Y-86146616D01*
X155506844Y-86185426D01*
X155472442Y-86187640D01*
X155453333Y-86195877D01*
X154602022Y-87047188D01*
X154594408Y-87061132D01*
X154594539Y-87062965D01*
X154598790Y-87069580D01*
X155450290Y-87921080D01*
X155467102Y-87930260D01*
X155530350Y-87944020D01*
X155565775Y-87972776D01*
X155696819Y-88126208D01*
X155700031Y-88129969D01*
X155880584Y-88284176D01*
X155884792Y-88286755D01*
X155884798Y-88286759D01*
X156078084Y-88405205D01*
X156083037Y-88408240D01*
X156087607Y-88410133D01*
X156087611Y-88410135D01*
X156297833Y-88497211D01*
X156302406Y-88499105D01*
X156382609Y-88518360D01*
X156528476Y-88553380D01*
X156528482Y-88553381D01*
X156533289Y-88554535D01*
X156770000Y-88573165D01*
X157006711Y-88554535D01*
X157011518Y-88553381D01*
X157011524Y-88553380D01*
X157157391Y-88518360D01*
X157237594Y-88499105D01*
X157242167Y-88497211D01*
X157452389Y-88410135D01*
X157452393Y-88410133D01*
X157456963Y-88408240D01*
X157461916Y-88405205D01*
X157655202Y-88286759D01*
X157655208Y-88286755D01*
X157659416Y-88284176D01*
X157839969Y-88129969D01*
X157843177Y-88126213D01*
X157843182Y-88126208D01*
X157944189Y-88007944D01*
X158003639Y-87969134D01*
X158074634Y-87968628D01*
X158135811Y-88007944D01*
X158236818Y-88126208D01*
X158236823Y-88126213D01*
X158240031Y-88129969D01*
X158420584Y-88284176D01*
X158424792Y-88286755D01*
X158424798Y-88286759D01*
X158618084Y-88405205D01*
X158623037Y-88408240D01*
X158627607Y-88410133D01*
X158627611Y-88410135D01*
X158837833Y-88497211D01*
X158842406Y-88499105D01*
X158922609Y-88518360D01*
X159068476Y-88553380D01*
X159068482Y-88553381D01*
X159073289Y-88554535D01*
X159310000Y-88573165D01*
X159546711Y-88554535D01*
X159551518Y-88553381D01*
X159551524Y-88553380D01*
X159697391Y-88518360D01*
X159777594Y-88499105D01*
X159782167Y-88497211D01*
X159992389Y-88410135D01*
X159992393Y-88410133D01*
X159996963Y-88408240D01*
X160001916Y-88405205D01*
X160195202Y-88286759D01*
X160195208Y-88286755D01*
X160199416Y-88284176D01*
X160379969Y-88129969D01*
X160383177Y-88126213D01*
X160383182Y-88126208D01*
X160484189Y-88007944D01*
X160543639Y-87969134D01*
X160614634Y-87968628D01*
X160675811Y-88007944D01*
X160776818Y-88126208D01*
X160776823Y-88126213D01*
X160780031Y-88129969D01*
X160960584Y-88284176D01*
X160964792Y-88286755D01*
X160964798Y-88286759D01*
X161158084Y-88405205D01*
X161163037Y-88408240D01*
X161167607Y-88410133D01*
X161167611Y-88410135D01*
X161377833Y-88497211D01*
X161382406Y-88499105D01*
X161462609Y-88518360D01*
X161608476Y-88553380D01*
X161608482Y-88553381D01*
X161613289Y-88554535D01*
X161850000Y-88573165D01*
X162086711Y-88554535D01*
X162091518Y-88553381D01*
X162091524Y-88553380D01*
X162237391Y-88518360D01*
X162317594Y-88499105D01*
X162322167Y-88497211D01*
X162532389Y-88410135D01*
X162532393Y-88410133D01*
X162536963Y-88408240D01*
X162541916Y-88405205D01*
X162735202Y-88286759D01*
X162735208Y-88286755D01*
X162739416Y-88284176D01*
X162919969Y-88129969D01*
X162923177Y-88126213D01*
X162923182Y-88126208D01*
X163024189Y-88007944D01*
X163083639Y-87969134D01*
X163154634Y-87968628D01*
X163215811Y-88007944D01*
X163316818Y-88126208D01*
X163316823Y-88126213D01*
X163320031Y-88129969D01*
X163500584Y-88284176D01*
X163504792Y-88286755D01*
X163504798Y-88286759D01*
X163698084Y-88405205D01*
X163703037Y-88408240D01*
X163707607Y-88410133D01*
X163707611Y-88410135D01*
X163917833Y-88497211D01*
X163922406Y-88499105D01*
X164002609Y-88518360D01*
X164148476Y-88553380D01*
X164148482Y-88553381D01*
X164153289Y-88554535D01*
X164390000Y-88573165D01*
X164626711Y-88554535D01*
X164631518Y-88553381D01*
X164631524Y-88553380D01*
X164777391Y-88518360D01*
X164857594Y-88499105D01*
X164862167Y-88497211D01*
X165072389Y-88410135D01*
X165072393Y-88410133D01*
X165076963Y-88408240D01*
X165081916Y-88405205D01*
X165275202Y-88286759D01*
X165275208Y-88286755D01*
X165279416Y-88284176D01*
X165459969Y-88129969D01*
X165463177Y-88126213D01*
X165463182Y-88126208D01*
X165564189Y-88007944D01*
X165623639Y-87969134D01*
X165694634Y-87968628D01*
X165755811Y-88007944D01*
X165856818Y-88126208D01*
X165856823Y-88126213D01*
X165860031Y-88129969D01*
X166040584Y-88284176D01*
X166044792Y-88286755D01*
X166044798Y-88286759D01*
X166238084Y-88405205D01*
X166243037Y-88408240D01*
X166247607Y-88410133D01*
X166247611Y-88410135D01*
X166457833Y-88497211D01*
X166462406Y-88499105D01*
X166542609Y-88518360D01*
X166688476Y-88553380D01*
X166688482Y-88553381D01*
X166693289Y-88554535D01*
X166930000Y-88573165D01*
X167166711Y-88554535D01*
X167171518Y-88553381D01*
X167171524Y-88553380D01*
X167317391Y-88518360D01*
X167397594Y-88499105D01*
X167402167Y-88497211D01*
X167612389Y-88410135D01*
X167612393Y-88410133D01*
X167616963Y-88408240D01*
X167621916Y-88405205D01*
X167815202Y-88286759D01*
X167815208Y-88286755D01*
X167819416Y-88284176D01*
X167999969Y-88129969D01*
X168003177Y-88126213D01*
X168003182Y-88126208D01*
X168104189Y-88007944D01*
X168163639Y-87969134D01*
X168234634Y-87968628D01*
X168295811Y-88007944D01*
X168396818Y-88126208D01*
X168396823Y-88126213D01*
X168400031Y-88129969D01*
X168580584Y-88284176D01*
X168584792Y-88286755D01*
X168584798Y-88286759D01*
X168778084Y-88405205D01*
X168783037Y-88408240D01*
X168787607Y-88410133D01*
X168787611Y-88410135D01*
X168997833Y-88497211D01*
X169002406Y-88499105D01*
X169082609Y-88518360D01*
X169228476Y-88553380D01*
X169228482Y-88553381D01*
X169233289Y-88554535D01*
X169470000Y-88573165D01*
X169706711Y-88554535D01*
X169711518Y-88553381D01*
X169711524Y-88553380D01*
X169857391Y-88518360D01*
X169937594Y-88499105D01*
X169942167Y-88497211D01*
X170152389Y-88410135D01*
X170152393Y-88410133D01*
X170156963Y-88408240D01*
X170161916Y-88405205D01*
X170355202Y-88286759D01*
X170355208Y-88286755D01*
X170359416Y-88284176D01*
X170539969Y-88129969D01*
X170543177Y-88126213D01*
X170543182Y-88126208D01*
X170644189Y-88007944D01*
X170703639Y-87969134D01*
X170774634Y-87968628D01*
X170835811Y-88007944D01*
X170936818Y-88126208D01*
X170936823Y-88126213D01*
X170940031Y-88129969D01*
X171120584Y-88284176D01*
X171124792Y-88286755D01*
X171124798Y-88286759D01*
X171318084Y-88405205D01*
X171323037Y-88408240D01*
X171327607Y-88410133D01*
X171327611Y-88410135D01*
X171537833Y-88497211D01*
X171542406Y-88499105D01*
X171622609Y-88518360D01*
X171768476Y-88553380D01*
X171768482Y-88553381D01*
X171773289Y-88554535D01*
X172010000Y-88573165D01*
X172246711Y-88554535D01*
X172251518Y-88553381D01*
X172251524Y-88553380D01*
X172397391Y-88518360D01*
X172477594Y-88499105D01*
X172482167Y-88497211D01*
X172692389Y-88410135D01*
X172692393Y-88410133D01*
X172696963Y-88408240D01*
X172701916Y-88405205D01*
X172895202Y-88286759D01*
X172895208Y-88286755D01*
X172899416Y-88284176D01*
X173079969Y-88129969D01*
X173083177Y-88126213D01*
X173083182Y-88126208D01*
X173184189Y-88007944D01*
X173243639Y-87969134D01*
X173314634Y-87968628D01*
X173375811Y-88007944D01*
X173476818Y-88126208D01*
X173476823Y-88126213D01*
X173480031Y-88129969D01*
X173660584Y-88284176D01*
X173664792Y-88286755D01*
X173664798Y-88286759D01*
X173858084Y-88405205D01*
X173863037Y-88408240D01*
X173867607Y-88410133D01*
X173867611Y-88410135D01*
X174077833Y-88497211D01*
X174082406Y-88499105D01*
X174162609Y-88518360D01*
X174308476Y-88553380D01*
X174308482Y-88553381D01*
X174313289Y-88554535D01*
X174550000Y-88573165D01*
X174786711Y-88554535D01*
X174791518Y-88553381D01*
X174791524Y-88553380D01*
X174937391Y-88518360D01*
X175017594Y-88499105D01*
X175022167Y-88497211D01*
X175232389Y-88410135D01*
X175232393Y-88410133D01*
X175236963Y-88408240D01*
X175241916Y-88405205D01*
X175435202Y-88286759D01*
X175435208Y-88286755D01*
X175439416Y-88284176D01*
X175619969Y-88129969D01*
X175623177Y-88126213D01*
X175623182Y-88126208D01*
X175724189Y-88007944D01*
X175783639Y-87969134D01*
X175854634Y-87968628D01*
X175915811Y-88007944D01*
X176016818Y-88126208D01*
X176016823Y-88126213D01*
X176020031Y-88129969D01*
X176200584Y-88284176D01*
X176204792Y-88286755D01*
X176204798Y-88286759D01*
X176398084Y-88405205D01*
X176403037Y-88408240D01*
X176407607Y-88410133D01*
X176407611Y-88410135D01*
X176617833Y-88497211D01*
X176622406Y-88499105D01*
X176702609Y-88518360D01*
X176848476Y-88553380D01*
X176848482Y-88553381D01*
X176853289Y-88554535D01*
X177090000Y-88573165D01*
X177326711Y-88554535D01*
X177331518Y-88553381D01*
X177331524Y-88553380D01*
X177477391Y-88518360D01*
X177557594Y-88499105D01*
X177562167Y-88497211D01*
X177772389Y-88410135D01*
X177772393Y-88410133D01*
X177776963Y-88408240D01*
X177781916Y-88405205D01*
X177975202Y-88286759D01*
X177975208Y-88286755D01*
X177979416Y-88284176D01*
X178159969Y-88129969D01*
X178163177Y-88126213D01*
X178163182Y-88126208D01*
X178264189Y-88007944D01*
X178323639Y-87969134D01*
X178394634Y-87968628D01*
X178455811Y-88007944D01*
X178556818Y-88126208D01*
X178556823Y-88126213D01*
X178560031Y-88129969D01*
X178740584Y-88284176D01*
X178744792Y-88286755D01*
X178744798Y-88286759D01*
X178938084Y-88405205D01*
X178943037Y-88408240D01*
X178947607Y-88410133D01*
X178947611Y-88410135D01*
X179157833Y-88497211D01*
X179162406Y-88499105D01*
X179242609Y-88518360D01*
X179388476Y-88553380D01*
X179388482Y-88553381D01*
X179393289Y-88554535D01*
X179630000Y-88573165D01*
X179866711Y-88554535D01*
X179871518Y-88553381D01*
X179871524Y-88553380D01*
X180017391Y-88518360D01*
X180097594Y-88499105D01*
X180102167Y-88497211D01*
X180312389Y-88410135D01*
X180312393Y-88410133D01*
X180316963Y-88408240D01*
X180321916Y-88405205D01*
X180505556Y-88292670D01*
X181302160Y-88292670D01*
X181307887Y-88300320D01*
X181479042Y-88405205D01*
X181487837Y-88409687D01*
X181697988Y-88496734D01*
X181707373Y-88499783D01*
X181928554Y-88552885D01*
X181938301Y-88554428D01*
X182165070Y-88572275D01*
X182174930Y-88572275D01*
X182401699Y-88554428D01*
X182411446Y-88552885D01*
X182632627Y-88499783D01*
X182642012Y-88496734D01*
X182852163Y-88409687D01*
X182860958Y-88405205D01*
X183028445Y-88302568D01*
X183037907Y-88292110D01*
X183034124Y-88283334D01*
X182182812Y-87432022D01*
X182168868Y-87424408D01*
X182167035Y-87424539D01*
X182160420Y-87428790D01*
X181308920Y-88280290D01*
X181302160Y-88292670D01*
X180505556Y-88292670D01*
X180515202Y-88286759D01*
X180515208Y-88286755D01*
X180519416Y-88284176D01*
X180699969Y-88129969D01*
X180703177Y-88126213D01*
X180703182Y-88126208D01*
X180833706Y-87973384D01*
X180893156Y-87934574D01*
X180927558Y-87932360D01*
X180946667Y-87924123D01*
X181797978Y-87072812D01*
X181804356Y-87061132D01*
X182534408Y-87061132D01*
X182534539Y-87062965D01*
X182538790Y-87069580D01*
X183390290Y-87921080D01*
X183407102Y-87930260D01*
X183470350Y-87944020D01*
X183505775Y-87972776D01*
X183636819Y-88126208D01*
X183640031Y-88129969D01*
X183820584Y-88284176D01*
X183824792Y-88286755D01*
X183824798Y-88286759D01*
X184018084Y-88405205D01*
X184023037Y-88408240D01*
X184027607Y-88410133D01*
X184027611Y-88410135D01*
X184237833Y-88497211D01*
X184242406Y-88499105D01*
X184322609Y-88518360D01*
X184468476Y-88553380D01*
X184468482Y-88553381D01*
X184473289Y-88554535D01*
X184710000Y-88573165D01*
X184946711Y-88554535D01*
X184951518Y-88553381D01*
X184951524Y-88553380D01*
X185097391Y-88518360D01*
X185177594Y-88499105D01*
X185182167Y-88497211D01*
X185392389Y-88410135D01*
X185392393Y-88410133D01*
X185396963Y-88408240D01*
X185401916Y-88405205D01*
X185595202Y-88286759D01*
X185595208Y-88286755D01*
X185599416Y-88284176D01*
X185779969Y-88129969D01*
X185783177Y-88126213D01*
X185783182Y-88126208D01*
X185884189Y-88007944D01*
X185943639Y-87969134D01*
X186014634Y-87968628D01*
X186075811Y-88007944D01*
X186176818Y-88126208D01*
X186176823Y-88126213D01*
X186180031Y-88129969D01*
X186360584Y-88284176D01*
X186364792Y-88286755D01*
X186364798Y-88286759D01*
X186558084Y-88405205D01*
X186563037Y-88408240D01*
X186567607Y-88410133D01*
X186567611Y-88410135D01*
X186777833Y-88497211D01*
X186782406Y-88499105D01*
X186862609Y-88518360D01*
X187008476Y-88553380D01*
X187008482Y-88553381D01*
X187013289Y-88554535D01*
X187250000Y-88573165D01*
X187486711Y-88554535D01*
X187491518Y-88553381D01*
X187491524Y-88553380D01*
X187637391Y-88518360D01*
X187717594Y-88499105D01*
X187722167Y-88497211D01*
X187932389Y-88410135D01*
X187932393Y-88410133D01*
X187936963Y-88408240D01*
X187941916Y-88405205D01*
X188135202Y-88286759D01*
X188135208Y-88286755D01*
X188139416Y-88284176D01*
X188319969Y-88129969D01*
X188474176Y-87949416D01*
X188476755Y-87945208D01*
X188476759Y-87945202D01*
X188595654Y-87751183D01*
X188598240Y-87746963D01*
X188689105Y-87527594D01*
X188744535Y-87296711D01*
X188763165Y-87060000D01*
X188744535Y-86823289D01*
X188689105Y-86592406D01*
X188598240Y-86373037D01*
X188595654Y-86368817D01*
X188476759Y-86174798D01*
X188476755Y-86174792D01*
X188474176Y-86170584D01*
X188319969Y-85990031D01*
X188139416Y-85835824D01*
X188135208Y-85833245D01*
X188135202Y-85833241D01*
X187941183Y-85714346D01*
X187936963Y-85711760D01*
X187932393Y-85709867D01*
X187932389Y-85709865D01*
X187722167Y-85622789D01*
X187722165Y-85622788D01*
X187717594Y-85620895D01*
X187637391Y-85601640D01*
X187491524Y-85566620D01*
X187491518Y-85566619D01*
X187486711Y-85565465D01*
X187250000Y-85546835D01*
X187013289Y-85565465D01*
X187008482Y-85566619D01*
X187008476Y-85566620D01*
X186862609Y-85601640D01*
X186782406Y-85620895D01*
X186777835Y-85622788D01*
X186777833Y-85622789D01*
X186567611Y-85709865D01*
X186567607Y-85709867D01*
X186563037Y-85711760D01*
X186558817Y-85714346D01*
X186364798Y-85833241D01*
X186364792Y-85833245D01*
X186360584Y-85835824D01*
X186180031Y-85990031D01*
X186176823Y-85993787D01*
X186176818Y-85993792D01*
X186075811Y-86112056D01*
X186016361Y-86150866D01*
X185945366Y-86151372D01*
X185884189Y-86112056D01*
X185783182Y-85993792D01*
X185783177Y-85993787D01*
X185779969Y-85990031D01*
X185599416Y-85835824D01*
X185595208Y-85833245D01*
X185595202Y-85833241D01*
X185401183Y-85714346D01*
X185396963Y-85711760D01*
X185392393Y-85709867D01*
X185392389Y-85709865D01*
X185182167Y-85622789D01*
X185182165Y-85622788D01*
X185177594Y-85620895D01*
X185097391Y-85601640D01*
X184951524Y-85566620D01*
X184951518Y-85566619D01*
X184946711Y-85565465D01*
X184710000Y-85546835D01*
X184473289Y-85565465D01*
X184468482Y-85566619D01*
X184468476Y-85566620D01*
X184322609Y-85601640D01*
X184242406Y-85620895D01*
X184237835Y-85622788D01*
X184237833Y-85622789D01*
X184027611Y-85709865D01*
X184027607Y-85709867D01*
X184023037Y-85711760D01*
X184018817Y-85714346D01*
X183824798Y-85833241D01*
X183824792Y-85833245D01*
X183820584Y-85835824D01*
X183640031Y-85990031D01*
X183636823Y-85993787D01*
X183636818Y-85993792D01*
X183506294Y-86146616D01*
X183446844Y-86185426D01*
X183412442Y-86187640D01*
X183393333Y-86195877D01*
X182542022Y-87047188D01*
X182534408Y-87061132D01*
X181804356Y-87061132D01*
X181805592Y-87058868D01*
X181805461Y-87057035D01*
X181801210Y-87050420D01*
X180949710Y-86198920D01*
X180932898Y-86189740D01*
X180869650Y-86175980D01*
X180834225Y-86147224D01*
X180703177Y-85993787D01*
X180699969Y-85990031D01*
X180519416Y-85835824D01*
X180515208Y-85833245D01*
X180515202Y-85833241D01*
X180506470Y-85827890D01*
X181302093Y-85827890D01*
X181305876Y-85836666D01*
X182157188Y-86687978D01*
X182171132Y-86695592D01*
X182172965Y-86695461D01*
X182179580Y-86691210D01*
X183031080Y-85839710D01*
X183037840Y-85827330D01*
X183032113Y-85819680D01*
X182860958Y-85714795D01*
X182852163Y-85710313D01*
X182642012Y-85623266D01*
X182632627Y-85620217D01*
X182411446Y-85567115D01*
X182401699Y-85565572D01*
X182174930Y-85547725D01*
X182165070Y-85547725D01*
X181938301Y-85565572D01*
X181928554Y-85567115D01*
X181707373Y-85620217D01*
X181697988Y-85623266D01*
X181487837Y-85710313D01*
X181479042Y-85714795D01*
X181311555Y-85817432D01*
X181302093Y-85827890D01*
X180506470Y-85827890D01*
X180321183Y-85714346D01*
X180316963Y-85711760D01*
X180312393Y-85709867D01*
X180312389Y-85709865D01*
X180102167Y-85622789D01*
X180102165Y-85622788D01*
X180097594Y-85620895D01*
X180017391Y-85601640D01*
X179871524Y-85566620D01*
X179871518Y-85566619D01*
X179866711Y-85565465D01*
X179630000Y-85546835D01*
X179393289Y-85565465D01*
X179388482Y-85566619D01*
X179388476Y-85566620D01*
X179242609Y-85601640D01*
X179162406Y-85620895D01*
X179157835Y-85622788D01*
X179157833Y-85622789D01*
X178947611Y-85709865D01*
X178947607Y-85709867D01*
X178943037Y-85711760D01*
X178938817Y-85714346D01*
X178744798Y-85833241D01*
X178744792Y-85833245D01*
X178740584Y-85835824D01*
X178560031Y-85990031D01*
X178556823Y-85993787D01*
X178556818Y-85993792D01*
X178455811Y-86112056D01*
X178396361Y-86150866D01*
X178325366Y-86151372D01*
X178264189Y-86112056D01*
X178163182Y-85993792D01*
X178163177Y-85993787D01*
X178159969Y-85990031D01*
X177979416Y-85835824D01*
X177975208Y-85833245D01*
X177975202Y-85833241D01*
X177781183Y-85714346D01*
X177776963Y-85711760D01*
X177772393Y-85709867D01*
X177772389Y-85709865D01*
X177562167Y-85622789D01*
X177562165Y-85622788D01*
X177557594Y-85620895D01*
X177477391Y-85601640D01*
X177331524Y-85566620D01*
X177331518Y-85566619D01*
X177326711Y-85565465D01*
X177090000Y-85546835D01*
X176853289Y-85565465D01*
X176848482Y-85566619D01*
X176848476Y-85566620D01*
X176702609Y-85601640D01*
X176622406Y-85620895D01*
X176617835Y-85622788D01*
X176617833Y-85622789D01*
X176407611Y-85709865D01*
X176407607Y-85709867D01*
X176403037Y-85711760D01*
X176398817Y-85714346D01*
X176204798Y-85833241D01*
X176204792Y-85833245D01*
X176200584Y-85835824D01*
X176020031Y-85990031D01*
X176016823Y-85993787D01*
X176016818Y-85993792D01*
X175915811Y-86112056D01*
X175856361Y-86150866D01*
X175785366Y-86151372D01*
X175724189Y-86112056D01*
X175623182Y-85993792D01*
X175623177Y-85993787D01*
X175619969Y-85990031D01*
X175439416Y-85835824D01*
X175435208Y-85833245D01*
X175435202Y-85833241D01*
X175241183Y-85714346D01*
X175236963Y-85711760D01*
X175232393Y-85709867D01*
X175232389Y-85709865D01*
X175022167Y-85622789D01*
X175022165Y-85622788D01*
X175017594Y-85620895D01*
X174937391Y-85601640D01*
X174791524Y-85566620D01*
X174791518Y-85566619D01*
X174786711Y-85565465D01*
X174550000Y-85546835D01*
X174313289Y-85565465D01*
X174308482Y-85566619D01*
X174308476Y-85566620D01*
X174162609Y-85601640D01*
X174082406Y-85620895D01*
X174077835Y-85622788D01*
X174077833Y-85622789D01*
X173867611Y-85709865D01*
X173867607Y-85709867D01*
X173863037Y-85711760D01*
X173858817Y-85714346D01*
X173664798Y-85833241D01*
X173664792Y-85833245D01*
X173660584Y-85835824D01*
X173480031Y-85990031D01*
X173476823Y-85993787D01*
X173476818Y-85993792D01*
X173375811Y-86112056D01*
X173316361Y-86150866D01*
X173245366Y-86151372D01*
X173184189Y-86112056D01*
X173083182Y-85993792D01*
X173083177Y-85993787D01*
X173079969Y-85990031D01*
X172899416Y-85835824D01*
X172895208Y-85833245D01*
X172895202Y-85833241D01*
X172701183Y-85714346D01*
X172696963Y-85711760D01*
X172692393Y-85709867D01*
X172692389Y-85709865D01*
X172482167Y-85622789D01*
X172482165Y-85622788D01*
X172477594Y-85620895D01*
X172397391Y-85601640D01*
X172251524Y-85566620D01*
X172251518Y-85566619D01*
X172246711Y-85565465D01*
X172010000Y-85546835D01*
X171773289Y-85565465D01*
X171768482Y-85566619D01*
X171768476Y-85566620D01*
X171622609Y-85601640D01*
X171542406Y-85620895D01*
X171537835Y-85622788D01*
X171537833Y-85622789D01*
X171327611Y-85709865D01*
X171327607Y-85709867D01*
X171323037Y-85711760D01*
X171318817Y-85714346D01*
X171124798Y-85833241D01*
X171124792Y-85833245D01*
X171120584Y-85835824D01*
X170940031Y-85990031D01*
X170936823Y-85993787D01*
X170936818Y-85993792D01*
X170835811Y-86112056D01*
X170776361Y-86150866D01*
X170705366Y-86151372D01*
X170644189Y-86112056D01*
X170543182Y-85993792D01*
X170543177Y-85993787D01*
X170539969Y-85990031D01*
X170359416Y-85835824D01*
X170355208Y-85833245D01*
X170355202Y-85833241D01*
X170161183Y-85714346D01*
X170156963Y-85711760D01*
X170152393Y-85709867D01*
X170152389Y-85709865D01*
X169942167Y-85622789D01*
X169942165Y-85622788D01*
X169937594Y-85620895D01*
X169857391Y-85601640D01*
X169711524Y-85566620D01*
X169711518Y-85566619D01*
X169706711Y-85565465D01*
X169470000Y-85546835D01*
X169233289Y-85565465D01*
X169228482Y-85566619D01*
X169228476Y-85566620D01*
X169082609Y-85601640D01*
X169002406Y-85620895D01*
X168997835Y-85622788D01*
X168997833Y-85622789D01*
X168787611Y-85709865D01*
X168787607Y-85709867D01*
X168783037Y-85711760D01*
X168778817Y-85714346D01*
X168584798Y-85833241D01*
X168584792Y-85833245D01*
X168580584Y-85835824D01*
X168400031Y-85990031D01*
X168396823Y-85993787D01*
X168396818Y-85993792D01*
X168295811Y-86112056D01*
X168236361Y-86150866D01*
X168165366Y-86151372D01*
X168104189Y-86112056D01*
X168003182Y-85993792D01*
X168003177Y-85993787D01*
X167999969Y-85990031D01*
X167819416Y-85835824D01*
X167815208Y-85833245D01*
X167815202Y-85833241D01*
X167621183Y-85714346D01*
X167616963Y-85711760D01*
X167612387Y-85709865D01*
X167612382Y-85709862D01*
X167596444Y-85703260D01*
X167541163Y-85658712D01*
X167518743Y-85591348D01*
X167536302Y-85522557D01*
X167570602Y-85484916D01*
X167598470Y-85464669D01*
X167625418Y-85434741D01*
X167634741Y-85425418D01*
X167659765Y-85402886D01*
X167659767Y-85402884D01*
X167664669Y-85398470D01*
X167688342Y-85365886D01*
X167696638Y-85355642D01*
X167719166Y-85330623D01*
X167719167Y-85330622D01*
X167723585Y-85325715D01*
X167743721Y-85290838D01*
X167750903Y-85279779D01*
X167770692Y-85252542D01*
X167770693Y-85252541D01*
X167774573Y-85247200D01*
X167790954Y-85210407D01*
X167796936Y-85198666D01*
X167817075Y-85163785D01*
X167829518Y-85125489D01*
X167834243Y-85113181D01*
X167847939Y-85082420D01*
X167847942Y-85082412D01*
X167850625Y-85076385D01*
X167851997Y-85069930D01*
X167852000Y-85069921D01*
X167859001Y-85036984D01*
X167862410Y-85024260D01*
X167874855Y-84985956D01*
X167879065Y-84945903D01*
X167881128Y-84932879D01*
X167888127Y-84899948D01*
X167889500Y-84893490D01*
X167889500Y-84853226D01*
X167890190Y-84840055D01*
X167893710Y-84806565D01*
X167894400Y-84800000D01*
X167890190Y-84759945D01*
X167889500Y-84746774D01*
X167889500Y-84706510D01*
X167881128Y-84667121D01*
X167879065Y-84654097D01*
X167875545Y-84620610D01*
X167874855Y-84614044D01*
X167862410Y-84575740D01*
X167859001Y-84563016D01*
X167852000Y-84530079D01*
X167851997Y-84530070D01*
X167850625Y-84523615D01*
X167847942Y-84517588D01*
X167847939Y-84517580D01*
X167834243Y-84486819D01*
X167829517Y-84474508D01*
X167819116Y-84442497D01*
X167817075Y-84436215D01*
X167796936Y-84401334D01*
X167790954Y-84389593D01*
X167777259Y-84358832D01*
X167777257Y-84358828D01*
X167774573Y-84352800D01*
X167750902Y-84320219D01*
X167743720Y-84309160D01*
X167726888Y-84280006D01*
X167723585Y-84274285D01*
X167696635Y-84244354D01*
X167688342Y-84234114D01*
X167664669Y-84201530D01*
X167634741Y-84174582D01*
X167625418Y-84165259D01*
X167602886Y-84140235D01*
X167602884Y-84140233D01*
X167598470Y-84135331D01*
X167565886Y-84111658D01*
X167555642Y-84103362D01*
X167530623Y-84080834D01*
X167530622Y-84080833D01*
X167525715Y-84076415D01*
X167490838Y-84056279D01*
X167479779Y-84049097D01*
X167452542Y-84029308D01*
X167452541Y-84029307D01*
X167447200Y-84025427D01*
X167441172Y-84022743D01*
X167441168Y-84022741D01*
X167410407Y-84009046D01*
X167398666Y-84003064D01*
X167363785Y-83982925D01*
X167325489Y-83970482D01*
X167313181Y-83965757D01*
X167282420Y-83952061D01*
X167282412Y-83952058D01*
X167276385Y-83949375D01*
X167269930Y-83948003D01*
X167269921Y-83948000D01*
X167236984Y-83940999D01*
X167224260Y-83937590D01*
X167185956Y-83925145D01*
X167145904Y-83920935D01*
X167132879Y-83918872D01*
X167123563Y-83916892D01*
X167093490Y-83910500D01*
X151506510Y-83910500D01*
X151476437Y-83916892D01*
X151467121Y-83918872D01*
X151454096Y-83920935D01*
X151414044Y-83925145D01*
X151375740Y-83937590D01*
X151363016Y-83940999D01*
X151330079Y-83948000D01*
X151330070Y-83948003D01*
X151323615Y-83949375D01*
X151317588Y-83952058D01*
X151317580Y-83952061D01*
X151286819Y-83965757D01*
X151274511Y-83970482D01*
X151236215Y-83982925D01*
X151201334Y-84003064D01*
X151189593Y-84009046D01*
X151158832Y-84022741D01*
X151158828Y-84022743D01*
X151152800Y-84025427D01*
X151147459Y-84029307D01*
X151147458Y-84029308D01*
X151120221Y-84049097D01*
X151109162Y-84056279D01*
X151074285Y-84076415D01*
X151069378Y-84080833D01*
X151069377Y-84080834D01*
X151044358Y-84103362D01*
X151034114Y-84111658D01*
X151001530Y-84135331D01*
X150997116Y-84140233D01*
X150997114Y-84140235D01*
X150974582Y-84165259D01*
X150965259Y-84174582D01*
X150935331Y-84201530D01*
X150911658Y-84234114D01*
X150903365Y-84244354D01*
X150876415Y-84274285D01*
X150873112Y-84280006D01*
X150856280Y-84309160D01*
X150849098Y-84320219D01*
X150825427Y-84352800D01*
X150822743Y-84358828D01*
X150822741Y-84358832D01*
X150809046Y-84389593D01*
X150803064Y-84401334D01*
X150782925Y-84436215D01*
X150780884Y-84442497D01*
X150770483Y-84474508D01*
X150765757Y-84486819D01*
X150752061Y-84517580D01*
X150752058Y-84517588D01*
X150749375Y-84523615D01*
X150748003Y-84530070D01*
X150748000Y-84530079D01*
X150740999Y-84563016D01*
X150737590Y-84575740D01*
X150725145Y-84614044D01*
X150724455Y-84620610D01*
X150720935Y-84654097D01*
X150718872Y-84667121D01*
X150710500Y-84706510D01*
X150710500Y-84746774D01*
X150709810Y-84759945D01*
X150705600Y-84800000D01*
X150706290Y-84806565D01*
X150709810Y-84840055D01*
X150710500Y-84853226D01*
X150710500Y-84893490D01*
X150711873Y-84899948D01*
X150718872Y-84932879D01*
X150720935Y-84945903D01*
X150725145Y-84985956D01*
X150737590Y-85024260D01*
X150740999Y-85036984D01*
X150748000Y-85069921D01*
X150748003Y-85069930D01*
X150749375Y-85076385D01*
X150752058Y-85082412D01*
X150752061Y-85082420D01*
X150765757Y-85113181D01*
X150770482Y-85125489D01*
X150782925Y-85163785D01*
X150803064Y-85198666D01*
X150809046Y-85210407D01*
X150825427Y-85247200D01*
X150829307Y-85252541D01*
X150829308Y-85252542D01*
X150849097Y-85279779D01*
X150856279Y-85290838D01*
X150876415Y-85325715D01*
X150880833Y-85330622D01*
X150880834Y-85330623D01*
X150903362Y-85355642D01*
X150911658Y-85365886D01*
X150935331Y-85398470D01*
X150940233Y-85402884D01*
X150940235Y-85402886D01*
X150965259Y-85425418D01*
X150974582Y-85434741D01*
X151001530Y-85464669D01*
X151034114Y-85488342D01*
X151044360Y-85496640D01*
X151046586Y-85498644D01*
X151083816Y-85559096D01*
X151082454Y-85630080D01*
X151042931Y-85689058D01*
X151010485Y-85708674D01*
X151007619Y-85709861D01*
X151007608Y-85709867D01*
X151003037Y-85711760D01*
X150998817Y-85714346D01*
X150804798Y-85833241D01*
X150804792Y-85833245D01*
X150800584Y-85835824D01*
X150620031Y-85990031D01*
X150616823Y-85993787D01*
X150616818Y-85993792D01*
X150515811Y-86112056D01*
X150456361Y-86150866D01*
X150385366Y-86151372D01*
X150324189Y-86112056D01*
X150223182Y-85993792D01*
X150223177Y-85993787D01*
X150219969Y-85990031D01*
X150039416Y-85835824D01*
X150035208Y-85833245D01*
X150035202Y-85833241D01*
X149841183Y-85714346D01*
X149836963Y-85711760D01*
X149832393Y-85709867D01*
X149832389Y-85709865D01*
X149622167Y-85622789D01*
X149622165Y-85622788D01*
X149617594Y-85620895D01*
X149537391Y-85601640D01*
X149391524Y-85566620D01*
X149391518Y-85566619D01*
X149386711Y-85565465D01*
X149150000Y-85546835D01*
X148913289Y-85565465D01*
X148908482Y-85566619D01*
X148908476Y-85566620D01*
X148762609Y-85601640D01*
X148682406Y-85620895D01*
X148677835Y-85622788D01*
X148677833Y-85622789D01*
X148467611Y-85709865D01*
X148467607Y-85709867D01*
X148463037Y-85711760D01*
X148458817Y-85714346D01*
X148264798Y-85833241D01*
X148264792Y-85833245D01*
X148260584Y-85835824D01*
X148080031Y-85990031D01*
X148076823Y-85993787D01*
X148076818Y-85993792D01*
X147975811Y-86112056D01*
X147916361Y-86150866D01*
X147845366Y-86151372D01*
X147784189Y-86112056D01*
X147683182Y-85993792D01*
X147683177Y-85993787D01*
X147679969Y-85990031D01*
X147499416Y-85835824D01*
X147495208Y-85833245D01*
X147495202Y-85833241D01*
X147301183Y-85714346D01*
X147296963Y-85711760D01*
X147292393Y-85709867D01*
X147292389Y-85709865D01*
X147082167Y-85622789D01*
X147082165Y-85622788D01*
X147077594Y-85620895D01*
X146997391Y-85601640D01*
X146851524Y-85566620D01*
X146851518Y-85566619D01*
X146846711Y-85565465D01*
X146610000Y-85546835D01*
X146373289Y-85565465D01*
X146368482Y-85566619D01*
X146368476Y-85566620D01*
X146222609Y-85601640D01*
X146142406Y-85620895D01*
X146137835Y-85622788D01*
X146137833Y-85622789D01*
X145927611Y-85709865D01*
X145927607Y-85709867D01*
X145923037Y-85711760D01*
X145918817Y-85714346D01*
X145724798Y-85833241D01*
X145724792Y-85833245D01*
X145720584Y-85835824D01*
X145540031Y-85990031D01*
X145536823Y-85993787D01*
X145536818Y-85993792D01*
X145435811Y-86112056D01*
X145376361Y-86150866D01*
X145305366Y-86151372D01*
X145244189Y-86112056D01*
X145143182Y-85993792D01*
X145143177Y-85993787D01*
X145139969Y-85990031D01*
X144959416Y-85835824D01*
X144955208Y-85833245D01*
X144955202Y-85833241D01*
X144761183Y-85714346D01*
X144756963Y-85711760D01*
X144752393Y-85709867D01*
X144752389Y-85709865D01*
X144542167Y-85622789D01*
X144542165Y-85622788D01*
X144537594Y-85620895D01*
X144457391Y-85601640D01*
X144311524Y-85566620D01*
X144311518Y-85566619D01*
X144306711Y-85565465D01*
X144070000Y-85546835D01*
X143833289Y-85565465D01*
X143828482Y-85566619D01*
X143828476Y-85566620D01*
X143682609Y-85601640D01*
X143602406Y-85620895D01*
X143597835Y-85622788D01*
X143597833Y-85622789D01*
X143387611Y-85709865D01*
X143387607Y-85709867D01*
X143383037Y-85711760D01*
X143378817Y-85714346D01*
X143184798Y-85833241D01*
X143184792Y-85833245D01*
X143180584Y-85835824D01*
X143000031Y-85990031D01*
X142996823Y-85993787D01*
X142996818Y-85993792D01*
X142895811Y-86112056D01*
X142836361Y-86150866D01*
X142765366Y-86151372D01*
X142704189Y-86112056D01*
X142603182Y-85993792D01*
X142603177Y-85993787D01*
X142599969Y-85990031D01*
X142419416Y-85835824D01*
X142415208Y-85833245D01*
X142415202Y-85833241D01*
X142221183Y-85714346D01*
X142216963Y-85711760D01*
X142212393Y-85709867D01*
X142212389Y-85709865D01*
X142002167Y-85622789D01*
X142002165Y-85622788D01*
X141997594Y-85620895D01*
X141917391Y-85601640D01*
X141771524Y-85566620D01*
X141771518Y-85566619D01*
X141766711Y-85565465D01*
X141530000Y-85546835D01*
X141293289Y-85565465D01*
X141288482Y-85566619D01*
X141288476Y-85566620D01*
X141142609Y-85601640D01*
X141062406Y-85620895D01*
X141057835Y-85622788D01*
X141057833Y-85622789D01*
X140847611Y-85709865D01*
X140847607Y-85709867D01*
X140843037Y-85711760D01*
X140838817Y-85714346D01*
X140644798Y-85833241D01*
X140644792Y-85833245D01*
X140640584Y-85835824D01*
X140460031Y-85990031D01*
X140456823Y-85993787D01*
X140456818Y-85993792D01*
X140355811Y-86112056D01*
X140296361Y-86150866D01*
X140225366Y-86151372D01*
X140164189Y-86112056D01*
X140063182Y-85993792D01*
X140063177Y-85993787D01*
X140059969Y-85990031D01*
X139879416Y-85835824D01*
X139875208Y-85833245D01*
X139875202Y-85833241D01*
X139681183Y-85714346D01*
X139676963Y-85711760D01*
X139672393Y-85709867D01*
X139672389Y-85709865D01*
X139462167Y-85622789D01*
X139462165Y-85622788D01*
X139457594Y-85620895D01*
X139377391Y-85601640D01*
X139231524Y-85566620D01*
X139231518Y-85566619D01*
X139226711Y-85565465D01*
X138990000Y-85546835D01*
X138753289Y-85565465D01*
X138748482Y-85566619D01*
X138748476Y-85566620D01*
X138602609Y-85601640D01*
X138522406Y-85620895D01*
X138517835Y-85622788D01*
X138517833Y-85622789D01*
X138307611Y-85709865D01*
X138307607Y-85709867D01*
X138303037Y-85711760D01*
X138298817Y-85714346D01*
X138104798Y-85833241D01*
X138104792Y-85833245D01*
X138100584Y-85835824D01*
X137920031Y-85990031D01*
X137765824Y-86170584D01*
X137763245Y-86174792D01*
X137763241Y-86174798D01*
X137644346Y-86368817D01*
X137641760Y-86373037D01*
X137550895Y-86592406D01*
X137495465Y-86823289D01*
X137476835Y-87060000D01*
X135508000Y-87060000D01*
X135508000Y-81478924D01*
X136487418Y-81478924D01*
X136487835Y-81486150D01*
X136503179Y-81752257D01*
X136504004Y-81756462D01*
X136504005Y-81756470D01*
X136532848Y-81903483D01*
X136555889Y-82020923D01*
X136557276Y-82024974D01*
X136575275Y-82077544D01*
X136644573Y-82279950D01*
X136646499Y-82283779D01*
X136709495Y-82409032D01*
X136767591Y-82524544D01*
X136770017Y-82528073D01*
X136770020Y-82528079D01*
X136804642Y-82578454D01*
X136922666Y-82750179D01*
X137106929Y-82952681D01*
X137316969Y-83128302D01*
X137548901Y-83273792D01*
X137552803Y-83275554D01*
X137552807Y-83275556D01*
X137794520Y-83384694D01*
X137794524Y-83384696D01*
X137798432Y-83386460D01*
X137802551Y-83387680D01*
X138056832Y-83463002D01*
X138056837Y-83463003D01*
X138060945Y-83464220D01*
X138065179Y-83464868D01*
X138065184Y-83464869D01*
X138327340Y-83504984D01*
X138327342Y-83504984D01*
X138331582Y-83505633D01*
X138470913Y-83507822D01*
X138601045Y-83509867D01*
X138601051Y-83509867D01*
X138605336Y-83509934D01*
X138877141Y-83477042D01*
X139141967Y-83407566D01*
X139394914Y-83302792D01*
X139631301Y-83164658D01*
X139846754Y-82995722D01*
X139891539Y-82949508D01*
X140034303Y-82802186D01*
X140037286Y-82799108D01*
X140039819Y-82795660D01*
X140039823Y-82795655D01*
X140196834Y-82581909D01*
X140199372Y-82578454D01*
X140201418Y-82574686D01*
X140327962Y-82341621D01*
X140327963Y-82341619D01*
X140330012Y-82337845D01*
X140426789Y-82081732D01*
X140487912Y-81814854D01*
X140500031Y-81679075D01*
X140512031Y-81544616D01*
X140512251Y-81542151D01*
X140512692Y-81500000D01*
X140511255Y-81478924D01*
X185487418Y-81478924D01*
X185487835Y-81486150D01*
X185503179Y-81752257D01*
X185504004Y-81756462D01*
X185504005Y-81756470D01*
X185532848Y-81903483D01*
X185555889Y-82020923D01*
X185557276Y-82024974D01*
X185575275Y-82077544D01*
X185644573Y-82279950D01*
X185646499Y-82283779D01*
X185709495Y-82409032D01*
X185767591Y-82524544D01*
X185770017Y-82528073D01*
X185770020Y-82528079D01*
X185804642Y-82578454D01*
X185922666Y-82750179D01*
X186106929Y-82952681D01*
X186316969Y-83128302D01*
X186548901Y-83273792D01*
X186552803Y-83275554D01*
X186552807Y-83275556D01*
X186794520Y-83384694D01*
X186794524Y-83384696D01*
X186798432Y-83386460D01*
X186802551Y-83387680D01*
X187056832Y-83463002D01*
X187056837Y-83463003D01*
X187060945Y-83464220D01*
X187065179Y-83464868D01*
X187065184Y-83464869D01*
X187327340Y-83504984D01*
X187327342Y-83504984D01*
X187331582Y-83505633D01*
X187470913Y-83507822D01*
X187601045Y-83509867D01*
X187601051Y-83509867D01*
X187605336Y-83509934D01*
X187877141Y-83477042D01*
X188141967Y-83407566D01*
X188394914Y-83302792D01*
X188631301Y-83164658D01*
X188846754Y-82995722D01*
X188891539Y-82949508D01*
X189034303Y-82802186D01*
X189037286Y-82799108D01*
X189039819Y-82795660D01*
X189039823Y-82795655D01*
X189196834Y-82581909D01*
X189199372Y-82578454D01*
X189201418Y-82574686D01*
X189327962Y-82341621D01*
X189327963Y-82341619D01*
X189330012Y-82337845D01*
X189426789Y-82081732D01*
X189487912Y-81814854D01*
X189500031Y-81679075D01*
X189512031Y-81544616D01*
X189512251Y-81542151D01*
X189512692Y-81500000D01*
X189510964Y-81474653D01*
X189494362Y-81231123D01*
X189494361Y-81231117D01*
X189494070Y-81226846D01*
X189438550Y-80958747D01*
X189347157Y-80700664D01*
X189339277Y-80685395D01*
X189223550Y-80461178D01*
X189223549Y-80461177D01*
X189221585Y-80457371D01*
X189219122Y-80453866D01*
X189066619Y-80236877D01*
X189066614Y-80236871D01*
X189064155Y-80233372D01*
X188877782Y-80032811D01*
X188874466Y-80030097D01*
X188874463Y-80030094D01*
X188669233Y-79862114D01*
X188669226Y-79862109D01*
X188665915Y-79859399D01*
X188432472Y-79716345D01*
X188428555Y-79714626D01*
X188428552Y-79714624D01*
X188318232Y-79666197D01*
X188181775Y-79606297D01*
X188177647Y-79605121D01*
X188177644Y-79605120D01*
X188096557Y-79582022D01*
X187918462Y-79531290D01*
X187914220Y-79530686D01*
X187914214Y-79530685D01*
X187715596Y-79502418D01*
X187647406Y-79492713D01*
X187503671Y-79491961D01*
X187377908Y-79491302D01*
X187377902Y-79491302D01*
X187373622Y-79491280D01*
X187369378Y-79491839D01*
X187369374Y-79491839D01*
X187250397Y-79507503D01*
X187102177Y-79527016D01*
X187098037Y-79528149D01*
X187098035Y-79528149D01*
X187082251Y-79532467D01*
X186838093Y-79599261D01*
X186586257Y-79706678D01*
X186351329Y-79847280D01*
X186347978Y-79849964D01*
X186347976Y-79849966D01*
X186336202Y-79859399D01*
X186137657Y-80018463D01*
X185949194Y-80217062D01*
X185789428Y-80439400D01*
X185661314Y-80681364D01*
X185567225Y-80938477D01*
X185508899Y-81205980D01*
X185487418Y-81478924D01*
X140511255Y-81478924D01*
X140510964Y-81474653D01*
X140494362Y-81231123D01*
X140494361Y-81231117D01*
X140494070Y-81226846D01*
X140438550Y-80958747D01*
X140347157Y-80700664D01*
X140339277Y-80685395D01*
X140223550Y-80461178D01*
X140223549Y-80461177D01*
X140221585Y-80457371D01*
X140219122Y-80453866D01*
X140066619Y-80236877D01*
X140066614Y-80236871D01*
X140064155Y-80233372D01*
X139877782Y-80032811D01*
X139874466Y-80030097D01*
X139874463Y-80030094D01*
X139669233Y-79862114D01*
X139669226Y-79862109D01*
X139665915Y-79859399D01*
X139432472Y-79716345D01*
X139428555Y-79714626D01*
X139428552Y-79714624D01*
X139318232Y-79666197D01*
X139181775Y-79606297D01*
X139177647Y-79605121D01*
X139177644Y-79605120D01*
X139096557Y-79582022D01*
X138918462Y-79531290D01*
X138914220Y-79530686D01*
X138914214Y-79530685D01*
X138715596Y-79502418D01*
X138647406Y-79492713D01*
X138503671Y-79491961D01*
X138377908Y-79491302D01*
X138377902Y-79491302D01*
X138373622Y-79491280D01*
X138369378Y-79491839D01*
X138369374Y-79491839D01*
X138250397Y-79507503D01*
X138102177Y-79527016D01*
X138098037Y-79528149D01*
X138098035Y-79528149D01*
X138082251Y-79532467D01*
X137838093Y-79599261D01*
X137586257Y-79706678D01*
X137351329Y-79847280D01*
X137347978Y-79849964D01*
X137347976Y-79849966D01*
X137336202Y-79859399D01*
X137137657Y-80018463D01*
X136949194Y-80217062D01*
X136789428Y-80439400D01*
X136661314Y-80681364D01*
X136567225Y-80938477D01*
X136508899Y-81205980D01*
X136487418Y-81478924D01*
X135508000Y-81478924D01*
X135508000Y-78634000D01*
X135528002Y-78565879D01*
X135581658Y-78519386D01*
X135634000Y-78508000D01*
X190366000Y-78508000D01*
X190434121Y-78528002D01*
G37*
%TD.AperFunction*%
%TD*%
M02*
