%TF.GenerationSoftware,KiCad,Pcbnew,5.99.0-unknown-2a6c73b8df~142~ubuntu21.04.1*%
%TF.CreationDate,2021-10-24T13:29:38+00:00*%
%TF.ProjectId,wederian,77656465-7269-4616-9e2e-6b696361645f,rev?*%
%TF.SameCoordinates,Original*%
%TF.FileFunction,Paste,Top*%
%TF.FilePolarity,Positive*%
%FSLAX46Y46*%
G04 Gerber Fmt 4.6, Leading zero omitted, Abs format (unit mm)*
G04 Created by KiCad (PCBNEW 5.99.0-unknown-2a6c73b8df~142~ubuntu21.04.1) date 2021-10-24 13:29:38*
%MOMM*%
%LPD*%
G01*
G04 APERTURE LIST*
G04 Aperture macros list*
%AMRoundRect*
0 Rectangle with rounded corners*
0 $1 Rounding radius*
0 $2 $3 $4 $5 $6 $7 $8 $9 X,Y pos of 4 corners*
0 Add a 4 corners polygon primitive as box body*
4,1,4,$2,$3,$4,$5,$6,$7,$8,$9,$2,$3,0*
0 Add four circle primitives for the rounded corners*
1,1,$1+$1,$2,$3*
1,1,$1+$1,$4,$5*
1,1,$1+$1,$6,$7*
1,1,$1+$1,$8,$9*
0 Add four rect primitives between the rounded corners*
20,1,$1+$1,$2,$3,$4,$5,0*
20,1,$1+$1,$4,$5,$6,$7,0*
20,1,$1+$1,$6,$7,$8,$9,0*
20,1,$1+$1,$8,$9,$2,$3,0*%
%AMFreePoly0*
4,1,6,0.450000,-0.800000,-0.450000,-0.800000,-0.450000,0.530000,-0.180000,0.800000,0.450000,0.800000,0.450000,-0.800000,0.450000,-0.800000,$1*%
G04 Aperture macros list end*
%ADD10R,1.060000X0.650000*%
%ADD11R,0.700000X0.300000*%
%ADD12RoundRect,0.200000X0.200000X0.275000X-0.200000X0.275000X-0.200000X-0.275000X0.200000X-0.275000X0*%
%ADD13RoundRect,0.250000X-0.475000X0.250000X-0.475000X-0.250000X0.475000X-0.250000X0.475000X0.250000X0*%
%ADD14RoundRect,0.250000X0.250000X0.475000X-0.250000X0.475000X-0.250000X-0.475000X0.250000X-0.475000X0*%
%ADD15R,4.500000X2.000000*%
%ADD16RoundRect,0.225000X0.225000X0.250000X-0.225000X0.250000X-0.225000X-0.250000X0.225000X-0.250000X0*%
%ADD17R,1.500000X0.550000*%
%ADD18R,0.550000X1.500000*%
%ADD19RoundRect,0.225000X-0.225000X-0.250000X0.225000X-0.250000X0.225000X0.250000X-0.225000X0.250000X0*%
%ADD20RoundRect,0.200000X-0.200000X-0.275000X0.200000X-0.275000X0.200000X0.275000X-0.200000X0.275000X0*%
%ADD21RoundRect,0.218750X0.218750X0.381250X-0.218750X0.381250X-0.218750X-0.381250X0.218750X-0.381250X0*%
%ADD22R,2.000000X0.900000*%
%ADD23RoundRect,0.225000X-0.250000X0.225000X-0.250000X-0.225000X0.250000X-0.225000X0.250000X0.225000X0*%
%ADD24FreePoly0,180.000000*%
%ADD25R,0.550000X0.250000*%
%ADD26RoundRect,0.200000X0.275000X-0.200000X0.275000X0.200000X-0.275000X0.200000X-0.275000X-0.200000X0*%
%ADD27RoundRect,0.250000X-0.312500X-1.450000X0.312500X-1.450000X0.312500X1.450000X-0.312500X1.450000X0*%
%ADD28RoundRect,0.200000X-0.275000X0.200000X-0.275000X-0.200000X0.275000X-0.200000X0.275000X0.200000X0*%
G04 APERTURE END LIST*
D10*
%TO.C,U2*%
X148650000Y-92005000D03*
X148650000Y-92955000D03*
X148650000Y-93905000D03*
X150850000Y-93905000D03*
X150850000Y-92005000D03*
%TD*%
D11*
%TO.C,J1*%
X145743674Y-98236680D03*
X145743674Y-98736680D03*
X145743674Y-99236680D03*
X145743674Y-99736680D03*
X145743674Y-100236680D03*
X145743674Y-100736680D03*
X145743674Y-101236680D03*
X145743674Y-101736680D03*
X145743674Y-102236680D03*
X145743674Y-102736680D03*
X145743674Y-103236680D03*
X145743674Y-103736680D03*
X144043674Y-103486680D03*
X144043674Y-102986680D03*
X144043674Y-102486680D03*
X144043674Y-101986680D03*
X144043674Y-101486680D03*
X144043674Y-100986680D03*
X144043674Y-100486680D03*
X144043674Y-99986680D03*
X144043674Y-99486680D03*
X144043674Y-98986680D03*
X144043674Y-98486680D03*
X144043674Y-97986680D03*
%TD*%
D12*
%TO.C,R2*%
X153225000Y-100000000D03*
X151575000Y-100000000D03*
%TD*%
D13*
%TO.C,C1*%
X166500000Y-104250000D03*
X166500000Y-106150000D03*
%TD*%
D14*
%TO.C,C7*%
X157500000Y-94000000D03*
X155600000Y-94000000D03*
%TD*%
D15*
%TO.C,Y1*%
X167250000Y-113250000D03*
X158750000Y-113250000D03*
%TD*%
D16*
%TO.C,C6*%
X172025000Y-95000000D03*
X170475000Y-95000000D03*
%TD*%
D17*
%TO.C,U1*%
X168800000Y-98750000D03*
X168800000Y-99550000D03*
X168800000Y-100350000D03*
X168800000Y-101150000D03*
X168800000Y-101950000D03*
X168800000Y-102750000D03*
X168800000Y-103550000D03*
X168800000Y-104350000D03*
X168800000Y-105150000D03*
X168800000Y-105950000D03*
X168800000Y-106750000D03*
D18*
X170500000Y-108450000D03*
X171300000Y-108450000D03*
X172100000Y-108450000D03*
X172900000Y-108450000D03*
X173700000Y-108450000D03*
X174500000Y-108450000D03*
X175300000Y-108450000D03*
X176100000Y-108450000D03*
X176900000Y-108450000D03*
X177700000Y-108450000D03*
X178500000Y-108450000D03*
D17*
X180200000Y-106750000D03*
X180200000Y-105950000D03*
X180200000Y-105150000D03*
X180200000Y-104350000D03*
X180200000Y-103550000D03*
X180200000Y-102750000D03*
X180200000Y-101950000D03*
X180200000Y-101150000D03*
X180200000Y-100350000D03*
X180200000Y-99550000D03*
X180200000Y-98750000D03*
D18*
X178500000Y-97050000D03*
X177700000Y-97050000D03*
X176900000Y-97050000D03*
X176100000Y-97050000D03*
X175300000Y-97050000D03*
X174500000Y-97050000D03*
X173700000Y-97050000D03*
X172900000Y-97050000D03*
X172100000Y-97050000D03*
X171300000Y-97050000D03*
X170500000Y-97050000D03*
%TD*%
D19*
%TO.C,C9*%
X144475000Y-89500000D03*
X146025000Y-89500000D03*
%TD*%
D14*
%TO.C,C5*%
X146700000Y-92130000D03*
X144800000Y-92130000D03*
%TD*%
D16*
%TO.C,C4*%
X166675000Y-102400000D03*
X165125000Y-102400000D03*
%TD*%
D12*
%TO.C,R1*%
X153225000Y-101750000D03*
X151575000Y-101750000D03*
%TD*%
%TO.C,R5*%
X139150000Y-109750000D03*
X137500000Y-109750000D03*
%TD*%
%TO.C,R6*%
X139150000Y-107750000D03*
X137500000Y-107750000D03*
%TD*%
D20*
%TO.C,R3*%
X172925000Y-112400000D03*
X174575000Y-112400000D03*
%TD*%
D21*
%TO.C,L1*%
X154812500Y-92000000D03*
X152687500Y-92000000D03*
%TD*%
D22*
%TO.C,J2*%
X185271089Y-98000000D03*
X188471089Y-100000000D03*
X185271089Y-102000000D03*
X188471089Y-104000000D03*
%TD*%
D19*
%TO.C,C10*%
X138225000Y-89500000D03*
X139775000Y-89500000D03*
%TD*%
D23*
%TO.C,C3*%
X155000000Y-112375000D03*
X155000000Y-113925000D03*
%TD*%
%TO.C,C2*%
X171000000Y-112375000D03*
X171000000Y-113925000D03*
%TD*%
%TO.C,C8*%
X158750000Y-118975000D03*
X158750000Y-120525000D03*
%TD*%
D24*
%TO.C,U3*%
X163000000Y-120500000D03*
D25*
X164175000Y-121250000D03*
X164175000Y-120750000D03*
X164175000Y-120250000D03*
X164175000Y-119750000D03*
X161825000Y-119750000D03*
X161825000Y-120250000D03*
X161825000Y-120750000D03*
X161825000Y-121250000D03*
%TD*%
D12*
%TO.C,R4*%
X177825000Y-112400000D03*
X176175000Y-112400000D03*
%TD*%
D26*
%TO.C,RV2*%
X148750000Y-99575000D03*
X148750000Y-97925000D03*
%TD*%
D27*
%TO.C,F1*%
X138612500Y-93000000D03*
X142887500Y-93000000D03*
%TD*%
D28*
%TO.C,RV1*%
X148750000Y-102500000D03*
X148750000Y-104150000D03*
%TD*%
D20*
%TO.C,R9*%
X165175000Y-108000000D03*
X166825000Y-108000000D03*
%TD*%
%TO.C,R7*%
X186175000Y-112500000D03*
X187825000Y-112500000D03*
%TD*%
D12*
%TO.C,R8*%
X140075000Y-112500000D03*
X138425000Y-112500000D03*
%TD*%
M02*
